SplineFontDB: 3.2
FontName: Kilroy5W80-8ptRegular
FullName: Kilroy5W80 8pt Regular
FamilyName: Kilroy5W80 8pt
Weight: Regular
Copyright: Copyright 2020 The Roboto Serif Project Authors (https://github.com/googlefonts/RobotoSerif) OFL
Version: 1.008
ItalicAngle: 0
UnderlinePosition: -200
UnderlineWidth: 100
Ascent: 800
Descent: 200
InvalidEm: 0
sfntRevision: 0x0001020c
LayerCount: 2
Layer: 0 1 "Back" 1
Layer: 1 1 "Fore" 0
XUID: [1021 1018 -1064020043 18599]
StyleMap: 0x0040
FSType: 0
OS2Version: 4
OS2_WeightWidthSlopeOnly: 0
OS2_UseTypoMetrics: 1
CreationTime: 1586430965
ModificationTime: 1752109604
PfmFamily: 81
TTFWeight: 400
TTFWidth: 3
LineGap: 0
VLineGap: 0
Panose: 0 0 0 0 0 0 0 0 0 0
OS2TypoAscent: 927
OS2TypoAOffset: 0
OS2TypoDescent: -244
OS2TypoDOffset: 0
OS2TypoLinegap: 0
OS2WinAscent: 1048
OS2WinAOffset: 0
OS2WinDescent: 251
OS2WinDOffset: 0
HheadAscent: 927
HheadAOffset: 0
HheadDescent: -244
HheadDOffset: 0
OS2SubXSize: 650
OS2SubYSize: 600
OS2SubXOff: 0
OS2SubYOff: 75
OS2SupXSize: 650
OS2SupYSize: 600
OS2SupXOff: 0
OS2SupYOff: 350
OS2StrikeYSize: 100
OS2StrikeYPos: 311
OS2CapHeight: 710
OS2XHeight: 518
OS2Vendor: 'COMM'
OS2CodePages: 20000193.00000000
OS2UnicodeRanges: a10000ef.4000267a.00000000.00000000
Lookup: 5 0 0 "'locl' Localized Forms in Latin lookup 0" { "'locl' Localized Forms in Latin lookup 0 subtable"  } ['locl' ('latn' <'AZE ' 'CRT ' 'TRK ' > ) ]
Lookup: 1 0 0 "Single Substitution lookup 1" { "Single Substitution lookup 1 subtable"  } []
Lookup: 5 0 0 "'locl' Localized Forms in Latin lookup 2" { "'locl' Localized Forms in Latin lookup 2 subtable"  } ['locl' ('latn' <'PLK ' > ) ]
Lookup: 1 0 0 "Single Substitution lookup 3" { "Single Substitution lookup 3 subtable"  } []
Lookup: 6 0 0 "'locl' Localized Forms in Latin lookup 4" { "'locl' Localized Forms in Latin lookup 4 subtable"  } ['locl' ('latn' <'CAT ' > ) ]
Lookup: 4 0 0 "Ligature Substitution lookup 5" { "Ligature Substitution lookup 5 subtable"  } []

StartChar: .notdef
Encoding: 65536 -1 0
Width: 400
GlyphClass: 1
Flags: W
LayerCount: 2
Fore
SplineSet
0 0 m 1,0,-1
 0 700 l 1,1,-1
 400 700 l 1,2,-1
 400 0 l 1,3,-1
 0 0 l 1,0,-1
50 650 m 1,4,-1
 50 50 l 1,5,-1
 350 50 l 1,6,-1
 350 650 l 1,7,-1
 50 650 l 1,4,-1
EndSplineSet
EndChar

StartChar: A
Encoding: 65 65 6
Width: 685
GlyphClass: 2
Flags: W
AnchorPoint: "Anchor-2" 541 0 basechar 0
AnchorPoint: "Anchor-1" 342 0 basechar 0
AnchorPoint: "Anchor-0" 342 721 basechar 0
LayerCount: 2
Fore
SplineSet
204 302 m 1,0,-1
 456 302 l 1,1,-1
 473 227 l 1,2,-1
 186 227 l 1,3,-1
 204 302 l 1,0,-1
316 686 m 1,4,-1
 347 679 l 1,5,-1
 167 98 l 2,6,7
 167 92 167 92 176.5 86.5 c 128,-1,8
 186 81 186 81 202.5 78 c 128,-1,9
 219 75 219 75 241 75 c 2,10,-1
 250 75 l 1,11,-1
 250 0 l 1,12,-1
 18 0 l 1,13,-1
 18 75 l 1,14,-1
 23 75 l 2,15,16
 46 75 46 75 64.5 87 c 128,-1,17
 83 99 83 99 94 139 c 2,18,-1
 279 722 l 1,19,-1
 400 722 l 1,20,-1
 587 139 l 2,21,22
 599 99 599 99 618 87 c 128,-1,23
 637 75 637 75 663 75 c 2,24,-1
 667 75 l 1,25,-1
 667 0 l 1,26,-1
 415 0 l 1,27,-1
 415 75 l 1,28,-1
 425 75 l 2,29,30
 449 75 449 75 466.5 76.5 c 128,-1,31
 484 78 484 78 493.5 80 c 128,-1,32
 503 82 503 82 503 85 c 2,33,-1
 316 686 l 1,4,-1
EndSplineSet
EndChar

StartChar: Aogonek
Encoding: 260 260 15
Width: 685
GlyphClass: 1
Flags: W
LayerCount: 2
Fore
SplineSet
204 302 m 1,0,-1
 456 302 l 1,1,-1
 473 227 l 1,2,-1
 186 227 l 1,3,-1
 204 302 l 1,0,-1
546 40 m 1,4,-1
 575 4 l 1,5,6
 531 -34 531 -34 506.5 -58.5 c 128,-1,7
 482 -83 482 -83 472.5 -102 c 128,-1,8
 463 -121 463 -121 463 -144 c 0,9,10
 463 -165 463 -165 473.5 -177 c 128,-1,11
 484 -189 484 -189 507 -189 c 0,12,13
 534 -189 534 -189 553.5 -174 c 128,-1,14
 573 -159 573 -159 585 -141 c 1,15,-1
 629 -178 l 1,16,17
 604 -211 604 -211 570.5 -231.5 c 128,-1,18
 537 -252 537 -252 487 -252 c 0,19,20
 433 -252 433 -252 395.5 -230 c 128,-1,21
 358 -208 358 -208 358 -157 c 0,22,23
 358 -130 358 -130 366 -110 c 128,-1,24
 374 -90 374 -90 394.5 -69.5 c 128,-1,25
 415 -49 415 -49 452 -23.5 c 128,-1,26
 489 2 489 2 546 40 c 1,4,-1
667 0 m 1,27,-1
 531 0 l 1,28,-1
 316 686 l 1,29,-1
 344 663 l 1,30,-1
 169 98 l 2,31,32
 169 92 169 92 178.5 86.5 c 128,-1,33
 188 81 188 81 205 78 c 128,-1,34
 222 75 222 75 243 75 c 2,35,-1
 253 75 l 1,36,-1
 253 0 l 1,37,-1
 18 0 l 1,38,-1
 18 75 l 1,39,-1
 24 75 l 2,40,41
 46 75 46 75 64 87 c 128,-1,42
 82 99 82 99 94 139 c 2,43,-1
 279 722 l 1,44,-1
 400 722 l 1,45,-1
 587 139 l 2,46,47
 600 99 600 99 618.5 87 c 128,-1,48
 637 75 637 75 662 75 c 2,49,-1
 667 75 l 1,50,-1
 667 0 l 1,27,-1
EndSplineSet
EndChar

StartChar: Acaron
Encoding: 461 461 16
Width: 685
GlyphClass: 1
Flags: W
LayerCount: 2
Fore
SplineSet
297 805 m 1,0,-1
 369 805 l 1,1,-1
 494 961 l 1,2,-1
 494 981 l 1,3,-1
 445 981 l 1,4,-1
 271 839 l 1,5,-1
 400 843 l 1,6,-1
 230 981 l 1,7,-1
 170 981 l 1,8,-1
 170 961 l 1,9,-1
 297 805 l 1,0,-1
204 302 m 1,10,-1
 456 302 l 1,11,-1
 473 227 l 1,12,-1
 186 227 l 1,13,-1
 204 302 l 1,10,-1
316 686 m 1,14,-1
 347 679 l 1,15,-1
 167 98 l 2,16,17
 167 92 167 92 176.5 86.5 c 128,-1,18
 186 81 186 81 202.5 78 c 128,-1,19
 219 75 219 75 241 75 c 2,20,-1
 250 75 l 1,21,-1
 250 0 l 1,22,-1
 18 0 l 1,23,-1
 18 75 l 1,24,-1
 24 75 l 2,25,26
 46 75 46 75 64 87 c 128,-1,27
 82 99 82 99 94 139 c 2,28,-1
 279 722 l 1,29,-1
 400 722 l 1,30,-1
 587 139 l 2,31,32
 600 99 600 99 618.5 87 c 128,-1,33
 637 75 637 75 662 75 c 2,34,-1
 667 75 l 1,35,-1
 667 0 l 1,36,-1
 415 0 l 1,37,-1
 415 75 l 1,38,-1
 425 75 l 2,39,40
 449 75 449 75 466.5 76.5 c 128,-1,41
 484 78 484 78 493.5 80.5 c 128,-1,42
 503 83 503 83 503 86 c 2,43,-1
 316 686 l 1,14,-1
EndSplineSet
EndChar

StartChar: Adblgrave
Encoding: 512 512 18
Width: 685
GlyphClass: 1
Flags: W
LayerCount: 2
Fore
SplineSet
430 927 m 2,0,-1
 473 825 l 1,1,-1
 473 793 l 1,2,-1
 431 793 l 1,3,-1
 362 856 l 2,4,5
 342 874 342 874 331 891.5 c 128,-1,6
 320 909 320 909 320 930 c 0,7,8
 320 947 320 947 333 960 c 128,-1,9
 346 973 346 973 369 973 c 0,10,11
 385 973 385 973 396.5 966.5 c 128,-1,12
 408 960 408 960 416 950 c 128,-1,13
 424 940 424 940 430 927 c 2,0,-1
243 927 m 2,14,-1
 283 825 l 1,15,-1
 283 793 l 1,16,-1
 242 793 l 1,17,-1
 173 856 l 2,18,19
 153 874 153 874 142 891.5 c 128,-1,20
 131 909 131 909 131 930 c 0,21,22
 131 947 131 947 144 960 c 128,-1,23
 157 973 157 973 180 973 c 0,24,25
 196 973 196 973 208.5 966.5 c 128,-1,26
 221 960 221 960 229.5 950 c 128,-1,27
 238 940 238 940 243 927 c 2,14,-1
204 302 m 1,28,-1
 456 302 l 1,29,-1
 473 227 l 1,30,-1
 186 227 l 1,31,-1
 204 302 l 1,28,-1
316 686 m 1,32,-1
 347 679 l 1,33,-1
 167 98 l 2,34,35
 167 92 167 92 176.5 86.5 c 128,-1,36
 186 81 186 81 202.5 78 c 128,-1,37
 219 75 219 75 241 75 c 2,38,-1
 250 75 l 1,39,-1
 250 0 l 1,40,-1
 18 0 l 1,41,-1
 18 75 l 1,42,-1
 24 75 l 2,43,44
 46 75 46 75 64 87 c 128,-1,45
 82 99 82 99 94 139 c 2,46,-1
 279 722 l 1,47,-1
 400 722 l 1,48,-1
 587 139 l 2,49,50
 600 99 600 99 618.5 87 c 128,-1,51
 637 75 637 75 662 75 c 2,52,-1
 667 75 l 1,53,-1
 667 0 l 1,54,-1
 415 0 l 1,55,-1
 415 75 l 1,56,-1
 425 75 l 2,57,58
 449 75 449 75 466.5 76.5 c 128,-1,59
 484 78 484 78 493.5 80.5 c 128,-1,60
 503 83 503 83 503 86 c 2,61,-1
 316 686 l 1,32,-1
EndSplineSet
EndChar

StartChar: Ainvertedbreve
Encoding: 514 514 19
Width: 685
GlyphClass: 1
Flags: W
LayerCount: 2
Fore
SplineSet
343 928 m 0,0,1
 289 928 289 928 252 912 c 128,-1,2
 215 896 215 896 195 859 c 128,-1,3
 175 822 175 822 174 761 c 1,4,-1
 246 761 l 1,5,6
 248 797 248 797 257 816.5 c 128,-1,7
 266 836 266 836 286.5 843 c 128,-1,8
 307 850 307 850 344 850 c 0,9,10
 376 850 376 850 396 843 c 128,-1,11
 416 836 416 836 425.5 817 c 128,-1,12
 435 798 435 798 437 761 c 1,13,-1
 514 761 l 1,14,15
 512 822 512 822 491.5 859 c 128,-1,16
 471 896 471 896 433 912 c 128,-1,17
 395 928 395 928 343 928 c 0,0,1
204 302 m 1,18,-1
 456 302 l 1,19,-1
 473 227 l 1,20,-1
 186 227 l 1,21,-1
 204 302 l 1,18,-1
316 686 m 1,22,-1
 347 679 l 1,23,-1
 167 98 l 2,24,25
 167 92 167 92 176.5 86.5 c 128,-1,26
 186 81 186 81 202.5 78 c 128,-1,27
 219 75 219 75 241 75 c 2,28,-1
 250 75 l 1,29,-1
 250 0 l 1,30,-1
 18 0 l 1,31,-1
 18 75 l 1,32,-1
 23 75 l 2,33,34
 46 75 46 75 64 87 c 128,-1,35
 82 99 82 99 94 139 c 2,36,-1
 279 722 l 1,37,-1
 400 722 l 1,38,-1
 587 139 l 2,39,40
 600 99 600 99 618.5 87 c 128,-1,41
 637 75 637 75 662 75 c 2,42,-1
 667 75 l 1,43,-1
 667 0 l 1,44,-1
 415 0 l 1,45,-1
 415 75 l 1,46,-1
 425 75 l 2,47,48
 449 75 449 75 466.5 76.5 c 128,-1,49
 484 78 484 78 493.5 80.5 c 128,-1,50
 503 83 503 83 503 86 c 2,51,-1
 316 686 l 1,22,-1
EndSplineSet
EndChar

StartChar: B
Encoding: 66 66 32
Width: 674
GlyphClass: 2
Flags: W
AnchorPoint: "Anchor-0" 319 741 basechar 0
LayerCount: 2
Fore
SplineSet
368 710 m 2,0,1
 420 710 420 710 460 699 c 128,-1,2
 500 688 500 688 527.5 666 c 128,-1,3
 555 644 555 644 569 610 c 128,-1,4
 583 576 583 576 583 531 c 0,5,6
 583 488 583 488 563 452 c 128,-1,7
 543 416 543 416 503.5 395.5 c 128,-1,8
 464 375 464 375 405 375 c 1,9,-1
 413 390 l 1,10,-1
 413 353 l 1,11,-1
 405 371 l 1,12,13
 472 368 472 368 518 346.5 c 128,-1,14
 564 325 564 325 587.5 287.5 c 128,-1,15
 611 250 611 250 611 198 c 0,16,17
 611 148 611 148 596 110.5 c 128,-1,18
 581 73 581 73 551 49 c 128,-1,19
 521 25 521 25 477.5 12.5 c 128,-1,20
 434 0 434 0 378 0 c 2,21,-1
 56 0 l 1,22,-1
 56 75 l 1,23,-1
 66 75 l 2,24,25
 94 75 94 75 115 82 c 128,-1,26
 136 89 136 89 136 111 c 2,27,-1
 136 599 l 2,28,29
 136 621 136 621 115 628 c 128,-1,30
 94 635 94 635 66 635 c 2,31,-1
 56 635 l 1,32,-1
 56 710 l 1,33,-1
 368 710 l 2,0,1
196 407 m 1,34,-1
 363 407 l 2,35,36
 405 407 405 407 431 420.5 c 128,-1,37
 457 434 457 434 468.5 460.5 c 128,-1,38
 480 487 480 487 480 528 c 0,39,40
 480 562 480 562 469 586 c 128,-1,41
 458 610 458 610 432.5 623 c 128,-1,42
 407 636 407 636 364 636 c 2,43,-1
 235 636 l 1,44,-1
 235 74 l 1,45,-1
 373 74 l 2,46,47
 421 74 421 74 450.5 89 c 128,-1,48
 480 104 480 104 493.5 132.5 c 128,-1,49
 507 161 507 161 507 203 c 256,50,51
 507 245 507 245 492.5 275 c 128,-1,52
 478 305 478 305 445.5 321 c 128,-1,53
 413 337 413 337 362 337 c 2,54,-1
 196 337 l 1,55,-1
 196 407 l 1,34,-1
EndSplineSet
EndChar

StartChar: C
Encoding: 67 67 33
Width: 729
GlyphClass: 2
Flags: W
AnchorPoint: "Anchor-1" 386 0 basechar 0
AnchorPoint: "Anchor-0" 386 741 basechar 0
LayerCount: 2
Fore
SplineSet
371 659 m 0,0,1
 318 659 318 659 279 641 c 128,-1,2
 240 623 240 623 214.5 586.5 c 128,-1,3
 189 550 189 550 176 492.5 c 128,-1,4
 163 435 163 435 163 356 c 256,5,6
 163 277 163 277 176.5 219 c 128,-1,7
 190 161 190 161 216.5 123.5 c 128,-1,8
 243 86 243 86 284 68 c 128,-1,9
 325 50 325 50 382 50 c 0,10,11
 448 50 448 50 491 76.5 c 128,-1,12
 534 103 534 103 560.5 146 c 128,-1,13
 587 189 587 189 603 236 c 1,14,-1
 674 208 l 1,15,16
 652 137 652 137 612 85 c 128,-1,17
 572 33 572 33 513.5 4.5 c 128,-1,18
 455 -24 455 -24 377 -24 c 0,19,20
 304 -24 304 -24 245.5 0 c 128,-1,21
 187 24 187 24 144.5 72 c 128,-1,22
 102 120 102 120 79.5 191 c 128,-1,23
 57 262 57 262 57 356 c 256,24,25
 57 450 57 450 79.5 521 c 128,-1,26
 102 592 102 592 144 639.5 c 128,-1,27
 186 687 186 687 243.5 710.5 c 128,-1,28
 301 734 301 734 370 734 c 0,29,30
 432 734 432 734 479.5 708 c 128,-1,31
 527 682 527 682 556.5 630.5 c 128,-1,32
 586 579 586 579 593 501 c 1,33,-1
 573 542 l 1,34,-1
 586 720 l 1,35,-1
 661 720 l 1,36,-1
 661 464 l 1,37,-1
 579 464 l 1,38,39
 563 524 563 524 535 567.5 c 128,-1,40
 507 611 507 611 466.5 635 c 128,-1,41
 426 659 426 659 371 659 c 0,0,1
EndSplineSet
EndChar

StartChar: Ccaron
Encoding: 268 268 38
Width: 729
GlyphClass: 1
Flags: W
LayerCount: 2
Fore
SplineSet
331 805 m 1,0,-1
 403 805 l 1,1,-1
 528 961 l 1,2,-1
 528 981 l 1,3,-1
 479 981 l 1,4,-1
 305 839 l 1,5,-1
 434 843 l 1,6,-1
 264 981 l 1,7,-1
 204 981 l 1,8,-1
 204 961 l 1,9,-1
 331 805 l 1,0,-1
371 659 m 0,10,11
 318 659 318 659 279 641 c 128,-1,12
 240 623 240 623 214.5 586.5 c 128,-1,13
 189 550 189 550 176 492.5 c 128,-1,14
 163 435 163 435 163 356 c 256,15,16
 163 277 163 277 176.5 219 c 128,-1,17
 190 161 190 161 216.5 123.5 c 128,-1,18
 243 86 243 86 284 68 c 128,-1,19
 325 50 325 50 382 50 c 0,20,21
 448 50 448 50 491 76.5 c 128,-1,22
 534 103 534 103 560.5 146 c 128,-1,23
 587 189 587 189 603 236 c 1,24,-1
 674 208 l 1,25,26
 652 137 652 137 612 85 c 128,-1,27
 572 33 572 33 513.5 4.5 c 128,-1,28
 455 -24 455 -24 377 -24 c 0,29,30
 304 -24 304 -24 245.5 0 c 128,-1,31
 187 24 187 24 144.5 72 c 128,-1,32
 102 120 102 120 79.5 191 c 128,-1,33
 57 262 57 262 57 356 c 256,34,35
 57 450 57 450 79.5 521 c 128,-1,36
 102 592 102 592 144 639.5 c 128,-1,37
 186 687 186 687 243.5 710.5 c 128,-1,38
 301 734 301 734 370 734 c 0,39,40
 432 734 432 734 479.5 708 c 128,-1,41
 527 682 527 682 556.5 630.5 c 128,-1,42
 586 579 586 579 593 501 c 1,43,-1
 573 542 l 1,44,-1
 586 720 l 1,45,-1
 661 720 l 1,46,-1
 661 464 l 1,47,-1
 579 464 l 1,48,49
 563 524 563 524 535 567.5 c 128,-1,50
 507 611 507 611 466.5 635 c 128,-1,51
 426 659 426 659 371 659 c 0,10,11
EndSplineSet
EndChar

StartChar: D
Encoding: 68 68 40
Width: 753
GlyphClass: 2
Flags: W
AnchorPoint: "Anchor-1" 379 0 basechar 0
AnchorPoint: "Anchor-0" 379 741 basechar 0
LayerCount: 2
Fore
SplineSet
56 635 m 1,0,-1
 56 710 l 1,1,-1
 340 710 l 2,2,3
 424 710 424 710 490 688.5 c 128,-1,4
 556 667 556 667 602 624 c 128,-1,5
 648 581 648 581 671.5 514.5 c 128,-1,6
 695 448 695 448 695 359 c 256,7,8
 695 270 695 270 671.5 202.5 c 128,-1,9
 648 135 648 135 602 90.5 c 128,-1,10
 556 46 556 46 490 23 c 128,-1,11
 424 0 424 0 340 0 c 2,12,-1
 56 0 l 1,13,-1
 56 75 l 1,14,-1
 66 75 l 2,15,16
 94 75 94 75 115 82 c 128,-1,17
 136 89 136 89 136 111 c 2,18,-1
 136 599 l 2,19,20
 136 621 136 621 115 628 c 128,-1,21
 94 635 94 635 66 635 c 2,22,-1
 56 635 l 1,0,-1
339 636 m 2,23,-1
 235 636 l 1,24,-1
 235 74 l 1,25,-1
 339 74 l 2,26,27
 403 74 403 74 450 91 c 128,-1,28
 497 108 497 108 528 143.5 c 128,-1,29
 559 179 559 179 574 232.5 c 128,-1,30
 589 286 589 286 589 359 c 256,31,32
 589 432 589 432 574 484 c 128,-1,33
 559 536 559 536 528 570 c 128,-1,34
 497 604 497 604 450 620 c 128,-1,35
 403 636 403 636 339 636 c 2,23,-1
EndSplineSet
EndChar

StartChar: Dcaron
Encoding: 270 270 41
Width: 753
GlyphClass: 1
Flags: W
LayerCount: 2
Fore
SplineSet
335 805 m 1,0,-1
 407 805 l 1,1,-1
 533 961 l 1,2,-1
 533 981 l 1,3,-1
 483 981 l 1,4,-1
 309 839 l 1,5,-1
 438 843 l 1,6,-1
 268 981 l 1,7,-1
 208 981 l 1,8,-1
 208 961 l 1,9,-1
 335 805 l 1,0,-1
56 635 m 1,10,-1
 56 710 l 1,11,-1
 340 710 l 2,12,13
 424 710 424 710 490 688.5 c 128,-1,14
 556 667 556 667 602 624 c 128,-1,15
 648 581 648 581 671.5 514.5 c 128,-1,16
 695 448 695 448 695 359 c 256,17,18
 695 270 695 270 671.5 202.5 c 128,-1,19
 648 135 648 135 602 90.5 c 128,-1,20
 556 46 556 46 490 23 c 128,-1,21
 424 0 424 0 340 0 c 2,22,-1
 56 0 l 1,23,-1
 56 75 l 1,24,-1
 66 75 l 2,25,26
 94 75 94 75 115 82 c 128,-1,27
 136 89 136 89 136 111 c 2,28,-1
 136 599 l 2,29,30
 136 621 136 621 115 628 c 128,-1,31
 94 635 94 635 66 635 c 2,32,-1
 56 635 l 1,10,-1
339 636 m 2,33,-1
 235 636 l 1,34,-1
 235 74 l 1,35,-1
 339 74 l 2,36,37
 403 74 403 74 450 91 c 128,-1,38
 497 108 497 108 528 143.5 c 128,-1,39
 559 179 559 179 574 232.5 c 128,-1,40
 589 286 589 286 589 359 c 256,41,42
 589 432 589 432 574 484 c 128,-1,43
 559 536 559 536 528 570 c 128,-1,44
 497 604 497 604 450 620 c 128,-1,45
 403 636 403 636 339 636 c 2,33,-1
EndSplineSet
EndChar

StartChar: E
Encoding: 69 69 44
Width: 669
GlyphClass: 2
Flags: W
AnchorPoint: "Anchor-2" 462 0 basechar 0
AnchorPoint: "Anchor-1" 395 0 basechar 0
AnchorPoint: "Anchor-0" 395 741 basechar 0
LayerCount: 2
Fore
SplineSet
600 225 m 1,0,-1
 600 0 l 1,1,-1
 56 0 l 1,2,-1
 56 75 l 1,3,-1
 66 75 l 2,4,5
 94 75 94 75 115 82 c 128,-1,6
 136 89 136 89 136 111 c 2,7,-1
 136 599 l 2,8,9
 136 621 136 621 115 628 c 128,-1,10
 94 635 94 635 66 635 c 2,11,-1
 56 635 l 1,12,-1
 56 710 l 1,13,-1
 581 710 l 1,14,-1
 581 510 l 1,15,-1
 509 510 l 1,16,-1
 496 591 l 2,17,18
 494 609 494 609 481.5 618.5 c 128,-1,19
 469 628 469 628 444.5 632 c 128,-1,20
 420 636 420 636 382 636 c 2,21,-1
 235 636 l 1,22,-1
 235 74 l 1,23,-1
 396 74 l 2,24,25
 426 74 426 74 447 76 c 128,-1,26
 468 78 468 78 482 83 c 128,-1,27
 496 88 496 88 503 97 c 128,-1,28
 510 106 510 106 512 119 c 2,29,-1
 525 225 l 1,30,-1
 600 225 l 1,0,-1
220 399 m 1,31,32
 265 402 265 402 310 404.5 c 128,-1,33
 355 407 355 407 400 409.5 c 128,-1,34
 445 412 445 412 490 414 c 1,35,-1
 490 316 l 1,36,37
 445 319 445 319 400 321.5 c 128,-1,38
 355 324 355 324 310 326 c 128,-1,39
 265 328 265 328 220 330 c 1,40,-1
 220 399 l 1,31,32
EndSplineSet
Substitution2: "'ss01' Style Set 1 lookup 61 subtable" E.alt
EndChar

StartChar: Ecaron
Encoding: 282 282 53
Width: 669
GlyphClass: 1
Flags: W
LayerCount: 2
Fore
SplineSet
308 805 m 1,0,-1
 380 805 l 1,1,-1
 506 961 l 1,2,-1
 506 981 l 1,3,-1
 456 981 l 1,4,-1
 283 839 l 1,5,-1
 411 843 l 1,6,-1
 241 981 l 1,7,-1
 182 981 l 1,8,-1
 182 961 l 1,9,-1
 308 805 l 1,0,-1
600 225 m 1,10,-1
 600 0 l 1,11,-1
 56 0 l 1,12,-1
 56 75 l 1,13,-1
 66 75 l 2,14,15
 94 75 94 75 115 82 c 128,-1,16
 136 89 136 89 136 111 c 2,17,-1
 136 599 l 2,18,19
 136 621 136 621 115 628 c 128,-1,20
 94 635 94 635 66 635 c 2,21,-1
 56 635 l 1,22,-1
 56 710 l 1,23,-1
 581 710 l 1,24,-1
 581 510 l 1,25,-1
 509 510 l 1,26,-1
 496 591 l 2,27,28
 494 609 494 609 481.5 618.5 c 128,-1,29
 469 628 469 628 444.5 632 c 128,-1,30
 420 636 420 636 382 636 c 2,31,-1
 235 636 l 1,32,-1
 235 74 l 1,33,-1
 396 74 l 2,34,35
 426 74 426 74 447 76 c 128,-1,36
 468 78 468 78 482 83 c 128,-1,37
 496 88 496 88 503 97 c 128,-1,38
 510 106 510 106 512 119 c 2,39,-1
 525 225 l 1,40,-1
 600 225 l 1,10,-1
220 399 m 1,41,42
 265 402 265 402 310 404.5 c 128,-1,43
 355 407 355 407 400 409.5 c 128,-1,44
 445 412 445 412 490 414 c 1,45,-1
 490 316 l 1,46,47
 445 319 445 319 400 321.5 c 128,-1,48
 355 324 355 324 310 326 c 128,-1,49
 265 328 265 328 220 330 c 1,50,-1
 220 399 l 1,41,42
EndSplineSet
Substitution2: "'ss01' Style Set 1 lookup 61 subtable" Ecaron.alt
EndChar

StartChar: Edblgrave
Encoding: 516 516 54
Width: 669
GlyphClass: 1
Flags: W
LayerCount: 2
Fore
SplineSet
416 927 m 2,0,-1
 459 825 l 1,1,-1
 459 793 l 1,2,-1
 417 793 l 1,3,-1
 348 856 l 2,4,5
 328 874 328 874 317 891.5 c 128,-1,6
 306 909 306 909 306 930 c 0,7,8
 306 947 306 947 319 960 c 128,-1,9
 332 973 332 973 355 973 c 0,10,11
 371 973 371 973 382.5 966.5 c 128,-1,12
 394 960 394 960 402 950 c 128,-1,13
 410 940 410 940 416 927 c 2,0,-1
229 927 m 2,14,-1
 269 825 l 1,15,-1
 269 793 l 1,16,-1
 228 793 l 1,17,-1
 159 856 l 2,18,19
 139 874 139 874 127.5 891.5 c 128,-1,20
 116 909 116 909 116 930 c 0,21,22
 116 947 116 947 129.5 960 c 128,-1,23
 143 973 143 973 165 973 c 0,24,25
 182 973 182 973 194 966.5 c 128,-1,26
 206 960 206 960 215 950 c 128,-1,27
 224 940 224 940 229 927 c 2,14,-1
600 225 m 1,28,-1
 600 0 l 1,29,-1
 56 0 l 1,30,-1
 56 75 l 1,31,-1
 66 75 l 2,32,33
 94 75 94 75 115 82 c 128,-1,34
 136 89 136 89 136 111 c 2,35,-1
 136 599 l 2,36,37
 136 621 136 621 115 628 c 128,-1,38
 94 635 94 635 66 635 c 2,39,-1
 56 635 l 1,40,-1
 56 710 l 1,41,-1
 581 710 l 1,42,-1
 581 510 l 1,43,-1
 509 510 l 1,44,-1
 496 591 l 2,45,46
 494 609 494 609 481.5 618.5 c 128,-1,47
 469 628 469 628 445 632 c 128,-1,48
 421 636 421 636 382 636 c 2,49,-1
 235 636 l 1,50,-1
 235 74 l 1,51,-1
 396 74 l 2,52,53
 426 74 426 74 447 76 c 128,-1,54
 468 78 468 78 482 83 c 128,-1,55
 496 88 496 88 503 97 c 128,-1,56
 510 106 510 106 512 119 c 2,57,-1
 525 225 l 1,58,-1
 600 225 l 1,28,-1
220 399 m 1,59,60
 265 402 265 402 310 404.5 c 128,-1,61
 355 407 355 407 400 409.5 c 128,-1,62
 445 412 445 412 490 414 c 1,63,-1
 490 316 l 1,64,65
 445 319 445 319 400 321.5 c 128,-1,66
 355 324 355 324 310 326 c 128,-1,67
 265 328 265 328 220 330 c 1,68,-1
 220 399 l 1,59,60
EndSplineSet
Substitution2: "'ss01' Style Set 1 lookup 61 subtable" Edblgrave.alt
EndChar

StartChar: Einvertedbreve
Encoding: 518 518 55
Width: 669
GlyphClass: 1
Flags: W
LayerCount: 2
Fore
SplineSet
328 928 m 0,0,1
 274 928 274 928 237 912 c 128,-1,2
 200 896 200 896 180 859 c 128,-1,3
 160 822 160 822 159 761 c 1,4,-1
 231 761 l 1,5,6
 233 797 233 797 242 816.5 c 128,-1,7
 251 836 251 836 271.5 843 c 128,-1,8
 292 850 292 850 328 850 c 0,9,10
 361 850 361 850 381 843 c 128,-1,11
 401 836 401 836 410.5 817 c 128,-1,12
 420 798 420 798 421 761 c 1,13,-1
 498 761 l 1,14,15
 497 822 497 822 476 859 c 128,-1,16
 455 896 455 896 417.5 912 c 128,-1,17
 380 928 380 928 328 928 c 0,0,1
600 225 m 1,18,-1
 600 0 l 1,19,-1
 56 0 l 1,20,-1
 56 75 l 1,21,-1
 66 75 l 2,22,23
 94 75 94 75 115 82 c 128,-1,24
 136 89 136 89 136 111 c 2,25,-1
 136 599 l 2,26,27
 136 621 136 621 115 628 c 128,-1,28
 94 635 94 635 66 635 c 2,29,-1
 56 635 l 1,30,-1
 56 710 l 1,31,-1
 581 710 l 1,32,-1
 581 510 l 1,33,-1
 509 510 l 1,34,-1
 496 591 l 2,35,36
 494 609 494 609 481.5 618.5 c 128,-1,37
 469 628 469 628 445 632 c 128,-1,38
 421 636 421 636 382 636 c 2,39,-1
 235 636 l 1,40,-1
 235 74 l 1,41,-1
 396 74 l 2,42,43
 426 74 426 74 447 76 c 128,-1,44
 468 78 468 78 482 83 c 128,-1,45
 496 88 496 88 503 97 c 128,-1,46
 510 106 510 106 512 119 c 2,47,-1
 525 225 l 1,48,-1
 600 225 l 1,18,-1
220 399 m 1,49,50
 265 402 265 402 310 404.5 c 128,-1,51
 355 407 355 407 400 409.5 c 128,-1,52
 445 412 445 412 490 414 c 1,53,-1
 490 316 l 1,54,55
 445 319 445 319 400 321.5 c 128,-1,56
 355 324 355 324 310 326 c 128,-1,57
 265 328 265 328 220 330 c 1,58,-1
 220 399 l 1,49,50
EndSplineSet
Substitution2: "'ss01' Style Set 1 lookup 61 subtable" Einvertedbreve.alt
EndChar

StartChar: F
Encoding: 70 70 67
Width: 641
GlyphClass: 2
Flags: W
AnchorPoint: "Anchor-0" 312 741 basechar 0
LayerCount: 2
Fore
SplineSet
235 636 m 1,0,-1
 235 85 l 2,1,2
 235 82 235 82 242.5 80.5 c 128,-1,3
 250 79 250 79 262.5 77.5 c 128,-1,4
 275 76 275 76 290.5 75.5 c 128,-1,5
 306 75 306 75 323 75 c 2,6,-1
 341 75 l 1,7,-1
 341 0 l 1,8,-1
 56 0 l 1,9,-1
 56 75 l 1,10,-1
 66 75 l 2,11,12
 94 75 94 75 115 82 c 128,-1,13
 136 89 136 89 136 111 c 2,14,-1
 136 599 l 2,15,16
 136 621 136 621 115 628 c 128,-1,17
 94 635 94 635 66 635 c 2,18,-1
 56 635 l 1,19,-1
 56 710 l 1,20,-1
 581 710 l 1,21,-1
 581 506 l 1,22,-1
 509 506 l 1,23,-1
 496 591 l 2,24,25
 494 609 494 609 481.5 618.5 c 128,-1,26
 469 628 469 628 444.5 632 c 128,-1,27
 420 636 420 636 382 636 c 2,28,-1
 235 636 l 1,0,-1
220 391 m 1,29,30
 265 394 265 394 310 396 c 128,-1,31
 355 398 355 398 400 401 c 128,-1,32
 445 404 445 404 490 405 c 1,33,-1
 490 308 l 1,34,35
 445 311 445 311 400 313 c 128,-1,36
 355 315 355 315 310 317.5 c 128,-1,37
 265 320 265 320 220 322 c 1,38,-1
 220 391 l 1,29,30
EndSplineSet
Substitution2: "'ss01' Style Set 1 lookup 61 subtable" F.alt
EndChar

StartChar: G
Encoding: 71 71 68
Width: 774
GlyphClass: 2
Flags: W
AnchorPoint: "Anchor-1" 395 0 basechar 0
AnchorPoint: "Anchor-0" 395 741 basechar 0
LayerCount: 2
Fore
SplineSet
656 232 m 2,0,-1
 656 95 l 1,1,2
 639 75 639 75 613.5 53.5 c 128,-1,3
 588 32 588 32 553.5 14.5 c 128,-1,4
 519 -3 519 -3 477 -13.5 c 128,-1,5
 435 -24 435 -24 386 -24 c 0,6,7
 311 -24 311 -24 250 0 c 128,-1,8
 189 24 189 24 146 72 c 128,-1,9
 103 120 103 120 80 191 c 128,-1,10
 57 262 57 262 57 356 c 256,11,12
 57 450 57 450 81 521 c 128,-1,13
 105 592 105 592 148.5 639 c 128,-1,14
 192 686 192 686 250 710 c 128,-1,15
 308 734 308 734 376 734 c 0,16,17
 438 734 438 734 483 710.5 c 128,-1,18
 528 687 528 687 556 641.5 c 128,-1,19
 584 596 584 596 593 528 c 1,20,-1
 573 569 l 1,21,-1
 586 720 l 1,22,-1
 660 720 l 1,23,-1
 660 493 l 1,24,-1
 584 493 l 1,25,26
 568 541 568 541 540 578.5 c 128,-1,27
 512 616 512 616 472 638 c 128,-1,28
 432 660 432 660 378 660 c 0,29,30
 327 660 327 660 287 642 c 128,-1,31
 247 624 247 624 219.5 586.5 c 128,-1,32
 192 549 192 549 177.5 491.5 c 128,-1,33
 163 434 163 434 163 356 c 0,34,35
 163 277 163 277 177.5 219 c 128,-1,36
 192 161 192 161 220 123.5 c 128,-1,37
 248 86 248 86 290 68 c 128,-1,38
 332 50 332 50 387 50 c 0,39,40
 435 50 435 50 468.5 61 c 128,-1,41
 502 72 502 72 524.5 88 c 128,-1,42
 547 104 547 104 560 117 c 1,43,-1
 560 232 l 2,44,45
 560 257 560 257 534 264.5 c 128,-1,46
 508 272 508 272 472 272 c 2,47,-1
 443 272 l 1,48,-1
 443 347 l 1,49,-1
 747 347 l 1,50,-1
 747 272 l 1,51,-1
 724 272 l 2,52,53
 690 272 690 272 673 264.5 c 128,-1,54
 656 257 656 257 656 232 c 2,0,-1
EndSplineSet
EndChar

StartChar: Gcaron
Encoding: 486 486 73
Width: 774
GlyphClass: 1
Flags: W
LayerCount: 2
Fore
SplineSet
351 805 m 1,0,-1
 423 805 l 1,1,-1
 549 961 l 1,2,-1
 549 981 l 1,3,-1
 499 981 l 1,4,-1
 325 839 l 1,5,-1
 454 843 l 1,6,-1
 284 981 l 1,7,-1
 224 981 l 1,8,-1
 224 961 l 1,9,-1
 351 805 l 1,0,-1
656 232 m 2,10,-1
 656 95 l 1,11,12
 639 75 639 75 613.5 53.5 c 128,-1,13
 588 32 588 32 553.5 14.5 c 128,-1,14
 519 -3 519 -3 477 -13.5 c 128,-1,15
 435 -24 435 -24 386 -24 c 0,16,17
 311 -24 311 -24 250 0 c 128,-1,18
 189 24 189 24 146 72 c 128,-1,19
 103 120 103 120 80 191 c 128,-1,20
 57 262 57 262 57 356 c 256,21,22
 57 450 57 450 81 521 c 128,-1,23
 105 592 105 592 148.5 639 c 128,-1,24
 192 686 192 686 250 710 c 128,-1,25
 308 734 308 734 376 734 c 0,26,27
 438 734 438 734 483 710.5 c 128,-1,28
 528 687 528 687 556 641.5 c 128,-1,29
 584 596 584 596 593 528 c 1,30,-1
 573 569 l 1,31,-1
 586 720 l 1,32,-1
 660 720 l 1,33,-1
 660 493 l 1,34,-1
 584 493 l 1,35,36
 568 541 568 541 540 578.5 c 128,-1,37
 512 616 512 616 472 638 c 128,-1,38
 432 660 432 660 378 660 c 0,39,40
 327 660 327 660 287 642 c 128,-1,41
 247 624 247 624 219.5 586.5 c 128,-1,42
 192 549 192 549 177.5 491.5 c 128,-1,43
 163 434 163 434 163 356 c 0,44,45
 163 277 163 277 177.5 219 c 128,-1,46
 192 161 192 161 220 123.5 c 128,-1,47
 248 86 248 86 290 68 c 128,-1,48
 332 50 332 50 387 50 c 0,49,50
 435 50 435 50 468.5 61 c 128,-1,51
 502 72 502 72 524.5 88 c 128,-1,52
 547 104 547 104 560 117 c 1,53,-1
 560 232 l 2,54,55
 560 257 560 257 534 264.5 c 128,-1,56
 508 272 508 272 472 272 c 2,57,-1
 443 272 l 1,58,-1
 443 347 l 1,59,-1
 747 347 l 1,60,-1
 747 272 l 1,61,-1
 724 272 l 2,62,63
 690 272 690 272 673 264.5 c 128,-1,64
 656 257 656 257 656 232 c 2,10,-1
EndSplineSet
EndChar

StartChar: H
Encoding: 72 72 75
Width: 812
GlyphClass: 2
Flags: W
AnchorPoint: "Anchor-1" 406 0 basechar 0
AnchorPoint: "Anchor-0" 406 741 basechar 0
LayerCount: 2
Fore
SplineSet
213 404 m 1,0,-1
 598 404 l 1,1,-1
 598 328 l 1,2,-1
 213 328 l 1,3,-1
 213 404 l 1,0,-1
56 0 m 1,4,-1
 56 75 l 1,5,-1
 66 75 l 2,6,7
 94 75 94 75 115 82 c 128,-1,8
 136 89 136 89 136 111 c 2,9,-1
 136 599 l 2,10,11
 136 621 136 621 115 628 c 128,-1,12
 94 635 94 635 66 635 c 2,13,-1
 56 635 l 1,14,-1
 56 710 l 1,15,-1
 323 710 l 1,16,-1
 323 636 l 1,17,-1
 315 636 l 2,18,19
 302 636 302 636 288 635 c 128,-1,20
 274 634 274 634 262 633 c 128,-1,21
 250 632 250 632 242.5 630.5 c 128,-1,22
 235 629 235 629 235 626 c 2,23,-1
 235 84 l 2,24,25
 235 81 235 81 242.5 79.5 c 128,-1,26
 250 78 250 78 262 77 c 128,-1,27
 274 76 274 76 288 75.5 c 128,-1,28
 302 75 302 75 314 75 c 2,29,-1
 323 75 l 1,30,-1
 323 0 l 1,31,-1
 56 0 l 1,4,-1
489 0 m 1,32,-1
 489 74 l 1,33,-1
 497 74 l 2,34,35
 510 74 510 74 524 75 c 128,-1,36
 538 76 538 76 550 77 c 128,-1,37
 562 78 562 78 569 79.5 c 128,-1,38
 576 81 576 81 576 84 c 2,39,-1
 576 626 l 2,40,41
 576 629 576 629 569 630.5 c 128,-1,42
 562 632 562 632 550 633 c 128,-1,43
 538 634 538 634 524 634.5 c 128,-1,44
 510 635 510 635 498 635 c 2,45,-1
 489 635 l 1,46,-1
 489 710 l 1,47,-1
 756 710 l 1,48,-1
 756 635 l 1,49,-1
 746 635 l 2,50,51
 718 635 718 635 697 628 c 128,-1,52
 676 621 676 621 676 599 c 2,53,-1
 676 111 l 2,54,55
 676 89 676 89 697 82 c 128,-1,56
 718 75 718 75 746 75 c 2,57,-1
 756 75 l 1,58,-1
 756 0 l 1,59,-1
 489 0 l 1,32,-1
EndSplineSet
EndChar

StartChar: I
Encoding: 73 73 79
Width: 393
GlyphClass: 2
Flags: W
AnchorPoint: "Anchor-2" 259 0 basechar 0
AnchorPoint: "Anchor-1" 197 0 basechar 0
AnchorPoint: "Anchor-0" 197 741 basechar 0
LayerCount: 2
Fore
SplineSet
147 111 m 2,0,-1
 147 599 l 2,1,2
 147 621 147 621 125.5 628 c 128,-1,3
 104 635 104 635 73 635 c 2,4,-1
 55 635 l 1,5,-1
 55 710 l 1,6,-1
 339 710 l 1,7,-1
 339 635 l 1,8,-1
 320 635 l 2,9,10
 289 635 289 635 268 628 c 128,-1,11
 247 621 247 621 247 599 c 2,12,-1
 247 111 l 2,13,14
 247 89 247 89 268 82 c 128,-1,15
 289 75 289 75 320 75 c 2,16,-1
 339 75 l 1,17,-1
 339 0 l 1,18,-1
 55 0 l 1,19,-1
 55 75 l 1,20,-1
 73 75 l 2,21,22
 104 75 104 75 125.5 82 c 128,-1,23
 147 89 147 89 147 111 c 2,0,-1
EndSplineSet
EndChar

StartChar: Icaron
Encoding: 463 463 89
Width: 393
GlyphClass: 1
Flags: W
LayerCount: 2
Fore
SplineSet
161 805 m 1,0,-1
 233 805 l 1,1,-1
 359 961 l 1,2,-1
 359 981 l 1,3,-1
 309 981 l 1,4,-1
 136 839 l 1,5,-1
 264 843 l 1,6,-1
 94 981 l 1,7,-1
 35 981 l 1,8,-1
 35 961 l 1,9,-1
 161 805 l 1,0,-1
147 111 m 2,10,-1
 147 599 l 2,11,12
 147 621 147 621 125.5 628 c 128,-1,13
 104 635 104 635 73 635 c 2,14,-1
 55 635 l 1,15,-1
 55 710 l 1,16,-1
 339 710 l 1,17,-1
 339 635 l 1,18,-1
 320 635 l 2,19,20
 289 635 289 635 268 628 c 128,-1,21
 247 621 247 621 247 599 c 2,22,-1
 247 111 l 2,23,24
 247 89 247 89 268 82 c 128,-1,25
 289 75 289 75 320 75 c 2,26,-1
 339 75 l 1,27,-1
 339 0 l 1,28,-1
 55 0 l 1,29,-1
 55 75 l 1,30,-1
 73 75 l 2,31,32
 104 75 104 75 125.5 82 c 128,-1,33
 147 89 147 89 147 111 c 2,10,-1
EndSplineSet
EndChar

StartChar: Idblgrave
Encoding: 520 520 90
Width: 393
GlyphClass: 1
Flags: W
LayerCount: 2
Fore
SplineSet
284 927 m 2,0,-1
 327 825 l 1,1,-1
 327 793 l 1,2,-1
 286 793 l 1,3,-1
 217 856 l 2,4,5
 197 874 197 874 186 891.5 c 128,-1,6
 175 909 175 909 175 930 c 0,7,8
 175 947 175 947 188 960 c 128,-1,9
 201 973 201 973 223 973 c 0,10,11
 239 973 239 973 251 966.5 c 128,-1,12
 263 960 263 960 271 950 c 128,-1,13
 279 940 279 940 284 927 c 2,0,-1
98 927 m 2,14,-1
 138 825 l 1,15,-1
 138 793 l 1,16,-1
 97 793 l 1,17,-1
 28 856 l 2,18,19
 7 874 7 874 -4 891.5 c 128,-1,20
 -15 909 -15 909 -15 930 c 0,21,22
 -15 947 -15 947 -1.5 960 c 128,-1,23
 12 973 12 973 34 973 c 0,24,25
 50 973 50 973 62.5 966.5 c 128,-1,26
 75 960 75 960 84 950 c 128,-1,27
 93 940 93 940 98 927 c 2,14,-1
147 111 m 2,28,-1
 147 599 l 2,29,30
 147 621 147 621 125.5 628 c 128,-1,31
 104 635 104 635 73 635 c 2,32,-1
 55 635 l 1,33,-1
 55 710 l 1,34,-1
 339 710 l 1,35,-1
 339 635 l 1,36,-1
 320 635 l 2,37,38
 289 635 289 635 268 628 c 128,-1,39
 247 621 247 621 247 599 c 2,40,-1
 247 111 l 2,41,42
 247 89 247 89 268 82 c 128,-1,43
 289 75 289 75 320 75 c 2,44,-1
 339 75 l 1,45,-1
 339 0 l 1,46,-1
 55 0 l 1,47,-1
 55 75 l 1,48,-1
 73 75 l 2,49,50
 104 75 104 75 125.5 82 c 128,-1,51
 147 89 147 89 147 111 c 2,28,-1
EndSplineSet
EndChar

StartChar: Iinvertedbreve
Encoding: 522 522 91
Width: 393
GlyphClass: 1
Flags: W
LayerCount: 2
Fore
SplineSet
197 928 m 0,0,1
 143 928 143 928 106 912 c 128,-1,2
 69 896 69 896 49 859 c 128,-1,3
 29 822 29 822 28 761 c 1,4,-1
 100 761 l 1,5,6
 102 797 102 797 111 816.5 c 128,-1,7
 120 836 120 836 140.5 843 c 128,-1,8
 161 850 161 850 197 850 c 0,9,10
 230 850 230 850 250 843 c 128,-1,11
 270 836 270 836 279.5 817 c 128,-1,12
 289 798 289 798 291 761 c 1,13,-1
 367 761 l 1,14,15
 366 822 366 822 345 859 c 128,-1,16
 324 896 324 896 286.5 912 c 128,-1,17
 249 928 249 928 197 928 c 0,0,1
147 111 m 2,18,-1
 147 599 l 2,19,20
 147 621 147 621 125.5 628 c 128,-1,21
 104 635 104 635 73 635 c 2,22,-1
 55 635 l 1,23,-1
 55 710 l 1,24,-1
 339 710 l 1,25,-1
 339 635 l 1,26,-1
 320 635 l 2,27,28
 289 635 289 635 268 628 c 128,-1,29
 247 621 247 621 247 599 c 2,30,-1
 247 111 l 2,31,32
 247 89 247 89 268 82 c 128,-1,33
 289 75 289 75 320 75 c 2,34,-1
 339 75 l 1,35,-1
 339 0 l 1,36,-1
 55 0 l 1,37,-1
 55 75 l 1,38,-1
 73 75 l 2,39,40
 104 75 104 75 125.5 82 c 128,-1,41
 147 89 147 89 147 111 c 2,18,-1
EndSplineSet
EndChar

StartChar: J
Encoding: 74 74 94
Width: 625
GlyphClass: 2
Flags: W
AnchorPoint: "Anchor-0" 420 741 basechar 0
LayerCount: 2
Fore
SplineSet
293 710 m 1,0,-1
 582 710 l 1,1,-1
 582 635 l 1,2,-1
 563 635 l 2,3,4
 534 635 534 635 513.5 628 c 128,-1,5
 493 621 493 621 493 599 c 2,6,-1
 493 205 l 2,7,8
 493 143 493 143 475 99 c 128,-1,9
 457 55 457 55 425 28 c 128,-1,10
 393 1 393 1 350 -11.5 c 128,-1,11
 307 -24 307 -24 256 -24 c 0,12,13
 202 -24 202 -24 161.5 -11 c 128,-1,14
 121 2 121 2 94 19.5 c 128,-1,15
 67 37 67 37 51 50 c 1,16,-1
 51 220 l 1,17,-1
 161 220 l 1,18,-1
 161 42 l 1,19,20
 145 47 145 47 132.5 57.5 c 128,-1,21
 120 68 120 68 114 79 c 128,-1,22
 108 90 108 90 109 97 c 128,-1,23
 110 104 110 104 120 104 c 1,24,25
 134 92 134 92 152.5 79.5 c 128,-1,26
 171 67 171 67 196.5 58.5 c 128,-1,27
 222 50 222 50 255 50 c 0,28,29
 300 50 300 50 330.5 63 c 128,-1,30
 361 76 361 76 377.5 109.5 c 128,-1,31
 394 143 394 143 394 205 c 2,32,-1
 394 599 l 2,33,34
 394 614 394 614 383.5 621.5 c 128,-1,35
 373 629 373 629 355.5 632 c 128,-1,36
 338 635 338 635 316 635 c 2,37,-1
 293 635 l 1,38,-1
 293 710 l 1,0,-1
EndSplineSet
EndChar

StartChar: K
Encoding: 75 75 96
Width: 738
GlyphClass: 2
Flags: W
AnchorPoint: "Anchor-1" 380 0 basechar 0
AnchorPoint: "Anchor-0" 380 741 basechar 0
LayerCount: 2
Fore
SplineSet
56 0 m 1,0,-1
 56 75 l 1,1,-1
 66 75 l 2,2,3
 94 75 94 75 115 82 c 128,-1,4
 136 89 136 89 136 111 c 2,5,-1
 136 599 l 2,6,7
 136 621 136 621 115 628 c 128,-1,8
 94 635 94 635 66 635 c 2,9,-1
 56 635 l 1,10,-1
 56 710 l 1,11,-1
 319 710 l 1,12,-1
 319 636 l 1,13,-1
 310 636 l 2,14,15
 299 636 299 636 285.5 635 c 128,-1,16
 272 634 272 634 261 633 c 128,-1,17
 250 632 250 632 242.5 630.5 c 128,-1,18
 235 629 235 629 235 626 c 2,19,-1
 235 84 l 2,20,21
 235 81 235 81 242.5 80 c 128,-1,22
 250 79 250 79 261 77.5 c 128,-1,23
 272 76 272 76 285.5 75.5 c 128,-1,24
 299 75 299 75 310 75 c 2,25,-1
 318 75 l 1,26,-1
 318 0 l 1,27,-1
 56 0 l 1,0,-1
431 0 m 1,28,-1
 431 75 l 1,29,-1
 440 75 l 2,30,31
 459 75 459 75 476 76 c 128,-1,32
 493 77 493 77 504 79.5 c 128,-1,33
 515 82 515 82 515 85 c 2,34,-1
 281 345 l 1,35,-1
 281 372 l 1,36,-1
 525 625 l 2,37,38
 525 628 525 628 514.5 630.5 c 128,-1,39
 504 633 504 633 487.5 634 c 128,-1,40
 471 635 471 635 454 635 c 2,41,-1
 445 635 l 1,42,-1
 445 710 l 1,43,-1
 688 710 l 1,44,-1
 688 635 l 1,45,-1
 663 635 l 2,46,47
 653 635 653 635 643 632.5 c 128,-1,48
 633 630 633 630 623 624 c 128,-1,49
 613 618 613 618 603 607 c 2,50,-1
 357 355 l 1,51,-1
 359 397 l 1,52,-1
 631 96 l 2,53,54
 640 87 640 87 649.5 82.5 c 128,-1,55
 659 78 659 78 670.5 76.5 c 128,-1,56
 682 75 682 75 693 75 c 2,57,-1
 713 75 l 1,58,-1
 713 0 l 1,59,-1
 431 0 l 1,28,-1
EndSplineSet
EndChar

StartChar: L
Encoding: 76 76 98
Width: 620
GlyphClass: 2
Flags: W
AnchorPoint: "Anchor-2" 472 710 basechar 0
AnchorPoint: "Anchor-1" 380 0 basechar 0
AnchorPoint: "Anchor-0" 380 741 basechar 0
LayerCount: 2
Fore
SplineSet
334 710 m 1,0,-1
 56 710 l 1,1,-1
 56 635 l 1,2,-1
 66 635 l 2,3,4
 94 635 94 635 115 628 c 128,-1,5
 136 621 136 621 136 599 c 2,6,-1
 136 111 l 2,7,8
 136 89 136 89 115 82 c 128,-1,9
 94 75 94 75 66 75 c 2,10,-1
 56 75 l 1,11,-1
 56 0 l 1,12,-1
 572 0 l 1,13,-1
 572 235 l 1,14,-1
 498 235 l 1,15,-1
 484 119 l 2,16,17
 482 101 482 101 470 91 c 128,-1,18
 458 81 458 81 433 77.5 c 128,-1,19
 408 74 408 74 368 74 c 2,20,-1
 235 74 l 1,21,-1
 235 599 l 2,22,23
 235 621 235 621 259 628 c 128,-1,24
 283 635 283 635 319 635 c 2,25,-1
 334 635 l 1,26,-1
 334 710 l 1,0,-1
EndSplineSet
EndChar

StartChar: M
Encoding: 77 77 104
Width: 935
GlyphClass: 2
Flags: W
AnchorPoint: "Anchor-1" 456 0 basechar 0
LayerCount: 2
Fore
SplineSet
57 0 m 1,0,-1
 57 75 l 1,1,-1
 67 75 l 2,2,3
 86 75 86 75 101.5 78 c 128,-1,4
 117 81 117 81 127 89 c 128,-1,5
 137 97 137 97 137 111 c 2,6,-1
 137 599 l 2,7,8
 137 614 137 614 127 621.5 c 128,-1,9
 117 629 117 629 101.5 632 c 128,-1,10
 86 635 86 635 67 635 c 2,11,-1
 57 635 l 1,12,-1
 57 710 l 1,13,-1
 301 710 l 1,14,-1
 484 104 l 1,15,-1
 439 83 l 1,16,-1
 638 710 l 1,17,-1
 878 710 l 1,18,-1
 878 635 l 1,19,-1
 868 635 l 2,20,21
 840 635 840 635 818 628 c 128,-1,22
 796 621 796 621 796 599 c 2,23,-1
 796 111 l 2,24,25
 796 89 796 89 818 82 c 128,-1,26
 840 75 840 75 868 75 c 2,27,-1
 878 75 l 1,28,-1
 878 0 l 1,29,-1
 621 0 l 1,30,-1
 621 75 l 1,31,-1
 630 75 l 2,32,33
 643 75 643 75 659 76 c 128,-1,34
 675 77 675 77 686.5 79.5 c 128,-1,35
 698 82 698 82 698 85 c 2,36,-1
 698 693 l 1,37,-1
 717 702 l 1,38,-1
 486 -2 l 1,39,-1
 424 -2 l 1,40,-1
 202 703 l 1,41,-1
 219 692 l 1,42,-1
 219 85 l 2,43,44
 219 82 219 82 230.5 79.5 c 128,-1,45
 242 77 242 77 256 76 c 128,-1,46
 270 75 270 75 277 75 c 2,47,-1
 281 75 l 1,48,-1
 281 0 l 1,49,-1
 57 0 l 1,0,-1
EndSplineSet
EndChar

StartChar: N
Encoding: 78 78 106
Width: 786
GlyphClass: 2
Flags: W
AnchorPoint: "Anchor-1" 402 0 basechar 0
AnchorPoint: "Anchor-0" 402 741 basechar 0
LayerCount: 2
Fore
SplineSet
57 0 m 1,0,-1
 57 75 l 1,1,-1
 67 75 l 2,2,3
 86 75 86 75 102 78 c 128,-1,4
 118 81 118 81 127.5 89 c 128,-1,5
 137 97 137 97 137 111 c 2,6,-1
 137 599 l 2,7,8
 137 614 137 614 127.5 621.5 c 128,-1,9
 118 629 118 629 102 632 c 128,-1,10
 86 635 86 635 67 635 c 2,11,-1
 57 635 l 1,12,-1
 57 710 l 1,13,-1
 271 710 l 1,14,-1
 610 86 l 1,15,-1
 577 80 l 1,16,-1
 577 625 l 2,17,18
 577 629 577 629 564.5 631 c 128,-1,19
 552 633 552 633 537 634 c 128,-1,20
 522 635 522 635 510 635 c 2,21,-1
 497 635 l 1,22,-1
 497 710 l 1,23,-1
 740 710 l 1,24,-1
 740 635 l 1,25,-1
 730 635 l 2,26,27
 712 635 712 635 696 632 c 128,-1,28
 680 629 680 629 670 621.5 c 128,-1,29
 660 614 660 614 660 600 c 2,30,-1
 660 0 l 1,31,-1
 554 0 l 1,32,-1
 186 670 l 1,33,-1
 220 671 l 1,34,-1
 220 85 l 2,35,36
 220 82 220 82 232 79.5 c 128,-1,37
 244 77 244 77 260 76 c 128,-1,38
 276 75 276 75 287 75 c 2,39,-1
 300 75 l 1,40,-1
 300 0 l 1,41,-1
 57 0 l 1,0,-1
EndSplineSet
EndChar

StartChar: Ncaron
Encoding: 327 327 110
Width: 786
GlyphClass: 1
Flags: W
LayerCount: 2
Fore
SplineSet
367 805 m 1,0,-1
 438 805 l 1,1,-1
 564 961 l 1,2,-1
 564 981 l 1,3,-1
 514 981 l 1,4,-1
 341 839 l 1,5,-1
 470 843 l 1,6,-1
 299 981 l 1,7,-1
 240 981 l 1,8,-1
 240 961 l 1,9,-1
 367 805 l 1,0,-1
57 0 m 1,10,-1
 57 75 l 1,11,-1
 67 75 l 2,12,13
 86 75 86 75 102 78 c 128,-1,14
 118 81 118 81 127.5 89 c 128,-1,15
 137 97 137 97 137 111 c 2,16,-1
 137 599 l 2,17,18
 137 614 137 614 127.5 621.5 c 128,-1,19
 118 629 118 629 102 632 c 128,-1,20
 86 635 86 635 67 635 c 2,21,-1
 57 635 l 1,22,-1
 57 710 l 1,23,-1
 271 710 l 1,24,-1
 610 86 l 1,25,-1
 577 80 l 1,26,-1
 577 625 l 2,27,28
 577 629 577 629 564.5 631 c 128,-1,29
 552 633 552 633 537 634 c 128,-1,30
 522 635 522 635 510 635 c 2,31,-1
 497 635 l 1,32,-1
 497 710 l 1,33,-1
 740 710 l 1,34,-1
 740 635 l 1,35,-1
 730 635 l 2,36,37
 712 635 712 635 696 632 c 128,-1,38
 680 629 680 629 670 621.5 c 128,-1,39
 660 614 660 614 660 600 c 2,40,-1
 660 0 l 1,41,-1
 554 0 l 1,42,-1
 186 670 l 1,43,-1
 220 671 l 1,44,-1
 220 85 l 2,45,46
 220 82 220 82 232 79.5 c 128,-1,47
 244 77 244 77 260 76 c 128,-1,48
 276 75 276 75 287 75 c 2,49,-1
 300 75 l 1,50,-1
 300 0 l 1,51,-1
 57 0 l 1,10,-1
EndSplineSet
EndChar

StartChar: O
Encoding: 79 79 114
Width: 765
GlyphClass: 2
Flags: W
AnchorPoint: "Anchor-2" 421 0 basechar 0
AnchorPoint: "Anchor-1" 382 0 basechar 0
AnchorPoint: "Anchor-0" 382 741 basechar 0
LayerCount: 2
Fore
SplineSet
383 -24 m 256,0,1
 310 -24 310 -24 250 0.5 c 128,-1,2
 190 25 190 25 147 73.5 c 128,-1,3
 104 122 104 122 80.5 192.5 c 128,-1,4
 57 263 57 263 57 355 c 0,5,6
 57 448 57 448 80.5 518.5 c 128,-1,7
 104 589 104 589 147 637 c 128,-1,8
 190 685 190 685 250 709.5 c 128,-1,9
 310 734 310 734 383 734 c 256,10,11
 456 734 456 734 516 709.5 c 128,-1,12
 576 685 576 685 618.5 637 c 128,-1,13
 661 589 661 589 684.5 518.5 c 128,-1,14
 708 448 708 448 708 355 c 0,15,16
 708 263 708 263 684.5 192.5 c 128,-1,17
 661 122 661 122 618.5 73.5 c 128,-1,18
 576 25 576 25 516 0.5 c 128,-1,19
 456 -24 456 -24 383 -24 c 256,0,1
383 52 m 256,20,21
 437 52 437 52 478 70 c 128,-1,22
 519 88 519 88 546.5 125.5 c 128,-1,23
 574 163 574 163 588 220 c 128,-1,24
 602 277 602 277 602 355 c 256,25,26
 602 433 602 433 588 490 c 128,-1,27
 574 547 574 547 546.5 584.5 c 128,-1,28
 519 622 519 622 478 640 c 128,-1,29
 437 658 437 658 383 658 c 256,30,31
 329 658 329 658 287.5 640 c 128,-1,32
 246 622 246 622 218.5 584.5 c 128,-1,33
 191 547 191 547 177 490 c 128,-1,34
 163 433 163 433 163 355 c 256,35,36
 163 277 163 277 177 220 c 128,-1,37
 191 163 191 163 219 125.5 c 128,-1,38
 247 88 247 88 288 70 c 128,-1,39
 329 52 329 52 383 52 c 256,20,21
EndSplineSet
EndChar

StartChar: Ohorn
Encoding: 416 416 123
Width: 813
GlyphClass: 2
Flags: W
AnchorPoint: "Anchor-1" 403 -35 basechar 0
AnchorPoint: "Anchor-0" 403 742 basechar 0
LayerCount: 2
Fore
SplineSet
383 52 m 256,0,1
 438 52 438 52 479 69.5 c 128,-1,2
 520 87 520 87 547.5 124 c 128,-1,3
 575 161 575 161 588.5 218.5 c 128,-1,4
 602 276 602 276 602 355 c 0,5,6
 602 435 602 435 588.5 492 c 128,-1,7
 575 549 575 549 547.5 586 c 128,-1,8
 520 623 520 623 479 640.5 c 128,-1,9
 438 658 438 658 383 658 c 256,10,11
 328 658 328 658 287 640.5 c 128,-1,12
 246 623 246 623 218.5 586 c 128,-1,13
 191 549 191 549 177 491.5 c 128,-1,14
 163 434 163 434 163 355 c 0,15,16
 163 275 163 275 177 218 c 128,-1,17
 191 161 191 161 218.5 124 c 128,-1,18
 246 87 246 87 287 69.5 c 128,-1,19
 328 52 328 52 383 52 c 256,0,1
568 634 m 1,20,-1
 534 673 l 1,21,22
 572 652 572 652 603.5 623.5 c 128,-1,23
 635 595 635 595 658.5 556.5 c 128,-1,24
 682 518 682 518 695 468 c 128,-1,25
 708 418 708 418 708 355 c 0,26,27
 708 263 708 263 684.5 192 c 128,-1,28
 661 121 661 121 618.5 72.5 c 128,-1,29
 576 24 576 24 516 0 c 128,-1,30
 456 -24 456 -24 383 -24 c 256,31,32
 310 -24 310 -24 250.5 0 c 128,-1,33
 191 24 191 24 147.5 72.5 c 128,-1,34
 104 121 104 121 80.5 192 c 128,-1,35
 57 263 57 263 57 355 c 0,36,37
 57 448 57 448 80.5 518.5 c 128,-1,38
 104 589 104 589 147.5 637.5 c 128,-1,39
 191 686 191 686 250.5 710 c 128,-1,40
 310 734 310 734 383 734 c 0,41,42
 428 734 428 734 461 728.5 c 128,-1,43
 494 723 494 723 520.5 716 c 128,-1,44
 547 709 547 709 569.5 703 c 128,-1,45
 592 697 592 697 617 697 c 0,46,47
 647 697 647 697 668 710 c 128,-1,48
 689 723 689 723 703 748.5 c 128,-1,49
 717 774 717 774 725 812 c 128,-1,50
 733 850 733 850 736 899 c 1,51,-1
 829 899 l 1,52,53
 826 826 826 826 811.5 773.5 c 128,-1,54
 797 721 797 721 773 687.5 c 128,-1,55
 749 654 749 654 719.5 638 c 128,-1,56
 690 622 690 622 659 622 c 0,57,58
 642 622 642 622 625.5 626 c 128,-1,59
 609 630 609 630 593 637 c 128,-1,60
 577 644 577 644 560.5 653 c 128,-1,61
 544 662 544 662 526 671 c 1,62,-1
 568 669 l 1,63,-1
 568 634 l 1,20,-1
EndSplineSet
EndChar

StartChar: Ocaron
Encoding: 465 465 124
Width: 765
GlyphClass: 1
Flags: W
LayerCount: 2
Fore
SplineSet
347 805 m 1,0,-1
 419 805 l 1,1,-1
 544 961 l 1,2,-1
 544 981 l 1,3,-1
 495 981 l 1,4,-1
 321 839 l 1,5,-1
 450 843 l 1,6,-1
 280 981 l 1,7,-1
 220 981 l 1,8,-1
 220 961 l 1,9,-1
 347 805 l 1,0,-1
383 -24 m 256,10,11
 310 -24 310 -24 250 0.5 c 128,-1,12
 190 25 190 25 147 73.5 c 128,-1,13
 104 122 104 122 80.5 192.5 c 128,-1,14
 57 263 57 263 57 355 c 0,15,16
 57 448 57 448 80.5 518.5 c 128,-1,17
 104 589 104 589 147 637 c 128,-1,18
 190 685 190 685 250 709.5 c 128,-1,19
 310 734 310 734 383 734 c 256,20,21
 456 734 456 734 516 709.5 c 128,-1,22
 576 685 576 685 618.5 637 c 128,-1,23
 661 589 661 589 684.5 518.5 c 128,-1,24
 708 448 708 448 708 355 c 0,25,26
 708 263 708 263 684.5 192.5 c 128,-1,27
 661 122 661 122 618.5 73.5 c 128,-1,28
 576 25 576 25 516 0.5 c 128,-1,29
 456 -24 456 -24 383 -24 c 256,10,11
383 52 m 256,30,31
 437 52 437 52 478 70 c 128,-1,32
 519 88 519 88 546.5 125.5 c 128,-1,33
 574 163 574 163 588 220 c 128,-1,34
 602 277 602 277 602 355 c 256,35,36
 602 433 602 433 588 490 c 128,-1,37
 574 547 574 547 546.5 584.5 c 128,-1,38
 519 622 519 622 478 640 c 128,-1,39
 437 658 437 658 383 658 c 256,40,41
 329 658 329 658 287.5 640 c 128,-1,42
 246 622 246 622 218.5 584.5 c 128,-1,43
 191 547 191 547 177 490 c 128,-1,44
 163 433 163 433 163 355 c 256,45,46
 163 277 163 277 177 220 c 128,-1,47
 191 163 191 163 219 125.5 c 128,-1,48
 247 88 247 88 288 70 c 128,-1,49
 329 52 329 52 383 52 c 256,30,31
EndSplineSet
EndChar

StartChar: Oogonek
Encoding: 490 490 125
Width: 765
GlyphClass: 1
Flags: W
LayerCount: 2
Fore
SplineSet
383 52 m 256,0,1
 438 52 438 52 479 69.5 c 128,-1,2
 520 87 520 87 547.5 124 c 128,-1,3
 575 161 575 161 588.5 218 c 128,-1,4
 602 275 602 275 602 355 c 256,5,6
 602 435 602 435 588.5 492 c 128,-1,7
 575 549 575 549 547.5 586 c 128,-1,8
 520 623 520 623 479 640.5 c 128,-1,9
 438 658 438 658 383 658 c 256,10,11
 328 658 328 658 287 640.5 c 128,-1,12
 246 623 246 623 218.5 586 c 128,-1,13
 191 549 191 549 177 492 c 128,-1,14
 163 435 163 435 163 355 c 256,15,16
 163 275 163 275 177 218 c 128,-1,17
 191 161 191 161 218.5 124 c 128,-1,18
 246 87 246 87 287 69.5 c 128,-1,19
 328 52 328 52 383 52 c 256,0,1
614 69 m 0,20,21
 594 48 594 48 569 26.5 c 128,-1,22
 544 5 544 5 518.5 -17 c 128,-1,23
 493 -39 493 -39 471 -61.5 c 128,-1,24
 449 -84 449 -84 435.5 -106 c 128,-1,25
 422 -128 422 -128 422 -150 c 0,26,27
 422 -167 422 -167 432 -178 c 128,-1,28
 442 -189 442 -189 465 -189 c 0,29,30
 492 -189 492 -189 511 -174 c 128,-1,31
 530 -159 530 -159 542 -143 c 1,32,-1
 586 -181 l 1,33,34
 569 -202 569 -202 549 -218 c 128,-1,35
 529 -234 529 -234 503.5 -243 c 128,-1,36
 478 -252 478 -252 442 -252 c 0,37,38
 404 -252 404 -252 374.5 -242.5 c 128,-1,39
 345 -233 345 -233 328.5 -213 c 128,-1,40
 312 -193 312 -193 312 -162 c 0,41,42
 312 -138 312 -138 321.5 -118.5 c 128,-1,43
 331 -99 331 -99 353 -78 c 128,-1,44
 375 -57 375 -57 413 -30 c 128,-1,45
 451 -3 451 -3 509 35 c 1,46,-1
 495 -6 l 1,47,48
 477 -12 477 -12 459 -16 c 128,-1,49
 441 -20 441 -20 422.5 -22 c 128,-1,50
 404 -24 404 -24 383 -24 c 0,51,52
 310 -24 310 -24 250.5 0 c 128,-1,53
 191 24 191 24 147.5 72.5 c 128,-1,54
 104 121 104 121 80.5 192 c 128,-1,55
 57 263 57 263 57 355 c 0,56,57
 57 448 57 448 80.5 518.5 c 128,-1,58
 104 589 104 589 147.5 637.5 c 128,-1,59
 191 686 191 686 250.5 710 c 128,-1,60
 310 734 310 734 383 734 c 256,61,62
 456 734 456 734 516 710 c 128,-1,63
 576 686 576 686 618.5 637.5 c 128,-1,64
 661 589 661 589 684.5 518.5 c 128,-1,65
 708 448 708 448 708 355 c 0,66,67
 708 294 708 294 697 241 c 128,-1,68
 686 188 686 188 664.5 145 c 128,-1,69
 643 102 643 102 614 69 c 0,20,21
EndSplineSet
EndChar

StartChar: Odblgrave
Encoding: 524 524 126
Width: 765
GlyphClass: 1
Flags: W
LayerCount: 2
Fore
SplineSet
474 927 m 2,0,-1
 517 825 l 1,1,-1
 517 793 l 1,2,-1
 476 793 l 1,3,-1
 407 856 l 2,4,5
 386 874 386 874 375 891.5 c 128,-1,6
 364 909 364 909 364 930 c 0,7,8
 364 947 364 947 377.5 960 c 128,-1,9
 391 973 391 973 413 973 c 0,10,11
 429 973 429 973 441 966.5 c 128,-1,12
 453 960 453 960 461 950 c 128,-1,13
 469 940 469 940 474 927 c 2,0,-1
287 927 m 2,14,-1
 327 825 l 1,15,-1
 327 793 l 1,16,-1
 287 793 l 1,17,-1
 217 856 l 2,18,19
 197 874 197 874 186 891.5 c 128,-1,20
 175 909 175 909 175 930 c 0,21,22
 175 947 175 947 188.5 960 c 128,-1,23
 202 973 202 973 224 973 c 0,24,25
 240 973 240 973 252.5 966.5 c 128,-1,26
 265 960 265 960 274 950 c 128,-1,27
 283 940 283 940 287 927 c 2,14,-1
383 -24 m 256,28,29
 310 -24 310 -24 250 0.5 c 128,-1,30
 190 25 190 25 147 73.5 c 128,-1,31
 104 122 104 122 80.5 192.5 c 128,-1,32
 57 263 57 263 57 355 c 0,33,34
 57 448 57 448 80.5 518.5 c 128,-1,35
 104 589 104 589 147 637 c 128,-1,36
 190 685 190 685 250 709.5 c 128,-1,37
 310 734 310 734 383 734 c 256,38,39
 456 734 456 734 516 709.5 c 128,-1,40
 576 685 576 685 618.5 637 c 128,-1,41
 661 589 661 589 684.5 518.5 c 128,-1,42
 708 448 708 448 708 355 c 0,43,44
 708 263 708 263 684.5 192.5 c 128,-1,45
 661 122 661 122 618.5 73.5 c 128,-1,46
 576 25 576 25 516 0.5 c 128,-1,47
 456 -24 456 -24 383 -24 c 256,28,29
383 52 m 256,48,49
 437 52 437 52 478 70 c 128,-1,50
 519 88 519 88 546.5 125.5 c 128,-1,51
 574 163 574 163 588 220 c 128,-1,52
 602 277 602 277 602 355 c 256,53,54
 602 433 602 433 588 490 c 128,-1,55
 574 547 574 547 546.5 584.5 c 128,-1,56
 519 622 519 622 478 640 c 128,-1,57
 437 658 437 658 383 658 c 256,58,59
 329 658 329 658 287.5 640 c 128,-1,60
 246 622 246 622 218.5 584.5 c 128,-1,61
 191 547 191 547 177 490 c 128,-1,62
 163 433 163 433 163 355 c 256,63,64
 163 277 163 277 177 220 c 128,-1,65
 191 163 191 163 219 125.5 c 128,-1,66
 247 88 247 88 288 70 c 128,-1,67
 329 52 329 52 383 52 c 256,48,49
EndSplineSet
EndChar

StartChar: Oinvertedbreve
Encoding: 526 526 127
Width: 765
GlyphClass: 1
Flags: W
LayerCount: 2
Fore
SplineSet
383 928 m 0,0,1
 329 928 329 928 291.5 912 c 128,-1,2
 254 896 254 896 234.5 859 c 128,-1,3
 215 822 215 822 214 761 c 1,4,-1
 286 761 l 1,5,6
 288 797 288 797 297 816.5 c 128,-1,7
 306 836 306 836 326.5 843 c 128,-1,8
 347 850 347 850 383 850 c 0,9,10
 416 850 416 850 436 843 c 128,-1,11
 456 836 456 836 465 817 c 128,-1,12
 474 798 474 798 476 761 c 1,13,-1
 553 761 l 1,14,15
 552 822 552 822 531 859 c 128,-1,16
 510 896 510 896 472.5 912 c 128,-1,17
 435 928 435 928 383 928 c 0,0,1
383 -24 m 256,18,19
 310 -24 310 -24 250 0.5 c 128,-1,20
 190 25 190 25 147 73.5 c 128,-1,21
 104 122 104 122 80.5 192.5 c 128,-1,22
 57 263 57 263 57 355 c 0,23,24
 57 448 57 448 80.5 518.5 c 128,-1,25
 104 589 104 589 147 637 c 128,-1,26
 190 685 190 685 250 709.5 c 128,-1,27
 310 734 310 734 383 734 c 256,28,29
 456 734 456 734 516 709.5 c 128,-1,30
 576 685 576 685 618.5 637 c 128,-1,31
 661 589 661 589 684.5 518.5 c 128,-1,32
 708 448 708 448 708 355 c 0,33,34
 708 263 708 263 684.5 192.5 c 128,-1,35
 661 122 661 122 618.5 73.5 c 128,-1,36
 576 25 576 25 516 0.5 c 128,-1,37
 456 -24 456 -24 383 -24 c 256,18,19
383 52 m 256,38,39
 437 52 437 52 478 70 c 128,-1,40
 519 88 519 88 546.5 125.5 c 128,-1,41
 574 163 574 163 588 220 c 128,-1,42
 602 277 602 277 602 355 c 256,43,44
 602 433 602 433 588 490 c 128,-1,45
 574 547 574 547 546.5 584.5 c 128,-1,46
 519 622 519 622 478 640 c 128,-1,47
 437 658 437 658 383 658 c 256,48,49
 329 658 329 658 287.5 640 c 128,-1,50
 246 622 246 622 218.5 584.5 c 128,-1,51
 191 547 191 547 177 490 c 128,-1,52
 163 433 163 433 163 355 c 256,53,54
 163 277 163 277 177 220 c 128,-1,55
 191 163 191 163 219 125.5 c 128,-1,56
 247 88 247 88 288 70 c 128,-1,57
 329 52 329 52 383 52 c 256,38,39
EndSplineSet
EndChar

StartChar: P
Encoding: 80 80 147
Width: 654
GlyphClass: 2
Flags: W
AnchorPoint: "Anchor-0" 319 741 basechar 0
LayerCount: 2
Fore
SplineSet
235 84 m 2,0,-1
 235 636 l 1,1,-1
 365 636 l 2,2,3
 409 636 409 636 438.5 620 c 128,-1,4
 468 604 468 604 482.5 572.5 c 128,-1,5
 497 541 497 541 497 495 c 256,6,7
 497 449 497 449 482.5 416.5 c 128,-1,8
 468 384 468 384 438.5 366.5 c 128,-1,9
 409 349 409 349 365 349 c 2,10,-1
 219 349 l 1,11,-1
 219 276 l 1,12,-1
 367 276 l 2,13,14
 435 276 435 276 488 301 c 128,-1,15
 541 326 541 326 571 376 c 128,-1,16
 601 426 601 426 601 499 c 0,17,18
 601 606 601 606 537.5 658 c 128,-1,19
 474 710 474 710 367 710 c 2,20,-1
 56 710 l 1,21,-1
 56 635 l 1,22,-1
 66 635 l 2,23,24
 94 635 94 635 115 628 c 128,-1,25
 136 621 136 621 136 599 c 2,26,-1
 136 111 l 2,27,28
 136 89 136 89 115 82 c 128,-1,29
 94 75 94 75 66 75 c 2,30,-1
 56 75 l 1,31,-1
 56 0 l 1,32,-1
 341 0 l 1,33,-1
 341 75 l 1,34,-1
 322 75 l 2,35,36
 305 75 305 75 289.5 75.5 c 128,-1,37
 274 76 274 76 262 77.5 c 128,-1,38
 250 79 250 79 242.5 80 c 128,-1,39
 235 81 235 81 235 84 c 2,0,-1
EndSplineSet
EndChar

StartChar: Q
Encoding: 81 81 148
Width: 765
GlyphClass: 1
Flags: W
LayerCount: 2
Fore
SplineSet
342 -3 m 1,0,-1
 422 10 l 1,1,2
 424 -49 424 -49 437.5 -84.5 c 128,-1,3
 451 -120 451 -120 479.5 -135.5 c 128,-1,4
 508 -151 508 -151 553 -151 c 0,5,6
 583 -151 583 -151 609 -147 c 128,-1,7
 635 -143 635 -143 658.5 -136.5 c 128,-1,8
 682 -130 682 -130 703 -124 c 1,9,-1
 703 -224 l 1,10,11
 675 -230 675 -230 636.5 -234.5 c 128,-1,12
 598 -239 598 -239 562 -239 c 0,13,14
 487 -239 487 -239 438 -212 c 128,-1,15
 389 -185 389 -185 365.5 -132 c 128,-1,16
 342 -79 342 -79 342 -3 c 1,0,-1
383 -24 m 256,17,18
 310 -24 310 -24 250 0.5 c 128,-1,19
 190 25 190 25 147 73.5 c 128,-1,20
 104 122 104 122 80.5 192.5 c 128,-1,21
 57 263 57 263 57 355 c 0,22,23
 57 448 57 448 80.5 518.5 c 128,-1,24
 104 589 104 589 147 637 c 128,-1,25
 190 685 190 685 250 709.5 c 128,-1,26
 310 734 310 734 383 734 c 256,27,28
 456 734 456 734 516 709.5 c 128,-1,29
 576 685 576 685 618.5 637 c 128,-1,30
 661 589 661 589 684.5 518.5 c 128,-1,31
 708 448 708 448 708 355 c 0,32,33
 708 263 708 263 684.5 192.5 c 128,-1,34
 661 122 661 122 618.5 73.5 c 128,-1,35
 576 25 576 25 516 0.5 c 128,-1,36
 456 -24 456 -24 383 -24 c 256,17,18
383 52 m 256,37,38
 437 52 437 52 479 70 c 128,-1,39
 521 88 521 88 549.5 125.5 c 128,-1,40
 578 163 578 163 593.5 219.5 c 128,-1,41
 609 276 609 276 609 355 c 0,42,43
 610 433 610 433 595 490 c 128,-1,44
 580 547 580 547 551 584.5 c 128,-1,45
 522 622 522 622 479.5 640 c 128,-1,46
 437 658 437 658 383 658 c 256,47,48
 329 658 329 658 287.5 640 c 128,-1,49
 246 622 246 622 218.5 584.5 c 128,-1,50
 191 547 191 547 177 490 c 128,-1,51
 163 433 163 433 163 355 c 256,52,53
 163 277 163 277 177 220 c 128,-1,54
 191 163 191 163 219 125.5 c 128,-1,55
 247 88 247 88 288 70 c 128,-1,56
 329 52 329 52 383 52 c 256,37,38
EndSplineSet
EndChar

StartChar: R
Encoding: 82 82 149
Width: 716
GlyphClass: 2
Flags: W
AnchorPoint: "Anchor-1" 401 0 basechar 0
AnchorPoint: "Anchor-0" 401 741 basechar 0
LayerCount: 2
Fore
SplineSet
368 322 m 1,0,-1
 539 0 l 1,1,-1
 687 0 l 1,2,-1
 687 75 l 1,3,-1
 678 75 l 2,4,5
 657 75 657 75 639.5 79.5 c 128,-1,6
 622 84 622 84 607 97.5 c 128,-1,7
 592 111 592 111 578 136 c 2,8,-1
 452 365 l 1,9,-1
 368 322 l 1,0,-1
235 85 m 2,10,-1
 235 636 l 1,11,-1
 367 636 l 2,12,13
 414 636 414 636 444.5 622 c 128,-1,14
 475 608 475 608 490 579.5 c 128,-1,15
 505 551 505 551 505 509 c 256,16,17
 505 467 505 467 490.5 434.5 c 128,-1,18
 476 402 476 402 444.5 383.5 c 128,-1,19
 413 365 413 365 361 365 c 2,20,-1
 225 365 l 1,21,-1
 225 295 l 1,22,-1
 400 295 l 2,23,24
 404 295 404 295 407.5 296.5 c 128,-1,25
 411 298 411 298 416 302 c 128,-1,26
 421 306 421 306 428 311 c 0,27,28
 481 323 481 323 519.5 350 c 128,-1,29
 558 377 558 377 579.5 419.5 c 128,-1,30
 601 462 601 462 601 519 c 0,31,32
 601 582 601 582 573.5 624.5 c 128,-1,33
 546 667 546 667 494.5 688.5 c 128,-1,34
 443 710 443 710 370 710 c 2,35,-1
 56 710 l 1,36,-1
 56 635 l 1,37,-1
 66 635 l 2,38,39
 94 635 94 635 115 628 c 128,-1,40
 136 621 136 621 136 599 c 2,41,-1
 136 111 l 2,42,43
 136 89 136 89 115 82 c 128,-1,44
 94 75 94 75 66 75 c 2,45,-1
 56 75 l 1,46,-1
 56 0 l 1,47,-1
 340 0 l 1,48,-1
 340 75 l 1,49,-1
 322 75 l 2,50,51
 306 75 306 75 290.5 75.5 c 128,-1,52
 275 76 275 76 262.5 77.5 c 128,-1,53
 250 79 250 79 242.5 80.5 c 128,-1,54
 235 82 235 82 235 85 c 2,10,-1
EndSplineSet
EndChar

StartChar: Rcaron
Encoding: 344 344 152
Width: 716
GlyphClass: 1
Flags: W
LayerCount: 2
Fore
SplineSet
313 805 m 1,0,-1
 384 805 l 1,1,-1
 510 961 l 1,2,-1
 510 981 l 1,3,-1
 460 981 l 1,4,-1
 287 839 l 1,5,-1
 416 843 l 1,6,-1
 245 981 l 1,7,-1
 186 981 l 1,8,-1
 186 961 l 1,9,-1
 313 805 l 1,0,-1
368 322 m 1,10,-1
 539 0 l 1,11,-1
 687 0 l 1,12,-1
 687 75 l 1,13,-1
 678 75 l 2,14,15
 657 75 657 75 639.5 79.5 c 128,-1,16
 622 84 622 84 607 97.5 c 128,-1,17
 592 111 592 111 578 136 c 2,18,-1
 452 365 l 1,19,-1
 368 322 l 1,10,-1
235 85 m 2,20,-1
 235 636 l 1,21,-1
 367 636 l 2,22,23
 414 636 414 636 444.5 622 c 128,-1,24
 475 608 475 608 490 579.5 c 128,-1,25
 505 551 505 551 505 509 c 256,26,27
 505 467 505 467 490.5 434.5 c 128,-1,28
 476 402 476 402 444.5 383.5 c 128,-1,29
 413 365 413 365 361 365 c 2,30,-1
 225 365 l 1,31,-1
 225 295 l 1,32,-1
 400 295 l 2,33,34
 404 295 404 295 407.5 296.5 c 128,-1,35
 411 298 411 298 416 302 c 128,-1,36
 421 306 421 306 428 311 c 0,37,38
 481 323 481 323 519.5 350 c 128,-1,39
 558 377 558 377 579.5 419.5 c 128,-1,40
 601 462 601 462 601 519 c 0,41,42
 601 582 601 582 573.5 624.5 c 128,-1,43
 546 667 546 667 494.5 688.5 c 128,-1,44
 443 710 443 710 370 710 c 2,45,-1
 56 710 l 1,46,-1
 56 635 l 1,47,-1
 66 635 l 2,48,49
 94 635 94 635 115 628 c 128,-1,50
 136 621 136 621 136 599 c 2,51,-1
 136 111 l 2,52,53
 136 89 136 89 115 82 c 128,-1,54
 94 75 94 75 66 75 c 2,55,-1
 56 75 l 1,56,-1
 56 0 l 1,57,-1
 340 0 l 1,58,-1
 340 75 l 1,59,-1
 322 75 l 2,60,61
 306 75 306 75 290.5 75.5 c 128,-1,62
 275 76 275 76 262.5 77.5 c 128,-1,63
 250 79 250 79 242.5 80.5 c 128,-1,64
 235 82 235 82 235 85 c 2,20,-1
EndSplineSet
EndChar

StartChar: Rdblgrave
Encoding: 528 528 153
Width: 716
GlyphClass: 1
Flags: W
LayerCount: 2
Fore
SplineSet
441 927 m 2,0,-1
 484 825 l 1,1,-1
 484 793 l 1,2,-1
 443 793 l 1,3,-1
 374 856 l 2,4,5
 353 874 353 874 342 891.5 c 128,-1,6
 331 909 331 909 331 930 c 0,7,8
 331 947 331 947 344.5 960 c 128,-1,9
 358 973 358 973 380 973 c 0,10,11
 396 973 396 973 408 966.5 c 128,-1,12
 420 960 420 960 428 950 c 128,-1,13
 436 940 436 940 441 927 c 2,0,-1
254 927 m 2,14,-1
 294 825 l 1,15,-1
 294 793 l 1,16,-1
 253 793 l 1,17,-1
 184 856 l 2,18,19
 164 874 164 874 153 891.5 c 128,-1,20
 142 909 142 909 142 930 c 0,21,22
 142 947 142 947 155 960 c 128,-1,23
 168 973 168 973 191 973 c 0,24,25
 207 973 207 973 219.5 966.5 c 128,-1,26
 232 960 232 960 241 950 c 128,-1,27
 250 940 250 940 254 927 c 2,14,-1
368 322 m 1,28,-1
 539 0 l 1,29,-1
 687 0 l 1,30,-1
 687 75 l 1,31,-1
 678 75 l 2,32,33
 657 75 657 75 639.5 79.5 c 128,-1,34
 622 84 622 84 607 97.5 c 128,-1,35
 592 111 592 111 578 136 c 2,36,-1
 452 365 l 1,37,-1
 368 322 l 1,28,-1
235 85 m 2,38,-1
 235 636 l 1,39,-1
 367 636 l 2,40,41
 414 636 414 636 444.5 622 c 128,-1,42
 475 608 475 608 490 579.5 c 128,-1,43
 505 551 505 551 505 509 c 256,44,45
 505 467 505 467 490.5 434.5 c 128,-1,46
 476 402 476 402 444.5 383.5 c 128,-1,47
 413 365 413 365 361 365 c 2,48,-1
 225 365 l 1,49,-1
 225 295 l 1,50,-1
 400 295 l 2,51,52
 405 295 405 295 408 296.5 c 128,-1,53
 411 298 411 298 416 302 c 128,-1,54
 421 306 421 306 428 311 c 0,55,56
 481 323 481 323 519.5 350 c 128,-1,57
 558 377 558 377 579.5 419.5 c 128,-1,58
 601 462 601 462 601 519 c 0,59,60
 601 582 601 582 573.5 624.5 c 128,-1,61
 546 667 546 667 494.5 688.5 c 128,-1,62
 443 710 443 710 370 710 c 2,63,-1
 56 710 l 1,64,-1
 56 635 l 1,65,-1
 66 635 l 2,66,67
 94 635 94 635 115 628 c 128,-1,68
 136 621 136 621 136 599 c 2,69,-1
 136 111 l 2,70,71
 136 89 136 89 115 82 c 128,-1,72
 94 75 94 75 66 75 c 2,73,-1
 56 75 l 1,74,-1
 56 0 l 1,75,-1
 340 0 l 1,76,-1
 340 75 l 1,77,-1
 322 75 l 2,78,79
 306 75 306 75 290 75.5 c 128,-1,80
 274 76 274 76 262 77.5 c 128,-1,81
 250 79 250 79 242.5 80.5 c 128,-1,82
 235 82 235 82 235 85 c 2,38,-1
EndSplineSet
EndChar

StartChar: Rinvertedbreve
Encoding: 530 530 154
Width: 716
GlyphClass: 1
Flags: W
LayerCount: 2
Fore
SplineSet
349 928 m 0,0,1
 294 928 294 928 257 912 c 128,-1,2
 220 896 220 896 200 859 c 128,-1,3
 180 822 180 822 179 761 c 1,4,-1
 251 761 l 1,5,6
 253 797 253 797 262 816.5 c 128,-1,7
 271 836 271 836 291.5 843 c 128,-1,8
 312 850 312 850 349 850 c 0,9,10
 382 850 382 850 401.5 843 c 128,-1,11
 421 836 421 836 430.5 817 c 128,-1,12
 440 798 440 798 442 761 c 1,13,-1
 519 761 l 1,14,15
 518 822 518 822 497 859 c 128,-1,16
 476 896 476 896 438.5 912 c 128,-1,17
 401 928 401 928 349 928 c 0,0,1
368 322 m 1,18,-1
 539 0 l 1,19,-1
 687 0 l 1,20,-1
 687 75 l 1,21,-1
 678 75 l 2,22,23
 657 75 657 75 639.5 79.5 c 128,-1,24
 622 84 622 84 607 97.5 c 128,-1,25
 592 111 592 111 578 136 c 2,26,-1
 452 365 l 1,27,-1
 368 322 l 1,18,-1
235 85 m 2,28,-1
 235 636 l 1,29,-1
 367 636 l 2,30,31
 414 636 414 636 444.5 622 c 128,-1,32
 475 608 475 608 490 579.5 c 128,-1,33
 505 551 505 551 505 509 c 256,34,35
 505 467 505 467 490.5 434.5 c 128,-1,36
 476 402 476 402 444.5 383.5 c 128,-1,37
 413 365 413 365 361 365 c 2,38,-1
 225 365 l 1,39,-1
 225 295 l 1,40,-1
 400 295 l 2,41,42
 404 295 404 295 407.5 296.5 c 128,-1,43
 411 298 411 298 416 302 c 128,-1,44
 421 306 421 306 428 311 c 0,45,46
 481 323 481 323 519.5 350 c 128,-1,47
 558 377 558 377 579.5 419.5 c 128,-1,48
 601 462 601 462 601 519 c 0,49,50
 601 582 601 582 573.5 624.5 c 128,-1,51
 546 667 546 667 494.5 688.5 c 128,-1,52
 443 710 443 710 370 710 c 2,53,-1
 56 710 l 1,54,-1
 56 635 l 1,55,-1
 66 635 l 2,56,57
 94 635 94 635 115 628 c 128,-1,58
 136 621 136 621 136 599 c 2,59,-1
 136 111 l 2,60,61
 136 89 136 89 115 82 c 128,-1,62
 94 75 94 75 66 75 c 2,63,-1
 56 75 l 1,64,-1
 56 0 l 1,65,-1
 340 0 l 1,66,-1
 340 75 l 1,67,-1
 322 75 l 2,68,69
 306 75 306 75 290.5 75.5 c 128,-1,70
 275 76 275 76 262.5 77.5 c 128,-1,71
 250 79 250 79 242.5 80.5 c 128,-1,72
 235 82 235 82 235 85 c 2,28,-1
EndSplineSet
EndChar

StartChar: S
Encoding: 83 83 157
Width: 621
GlyphClass: 2
Flags: W
AnchorPoint: "Anchor-1" 341 0 basechar 0
AnchorPoint: "Anchor-0" 341 741 basechar 0
LayerCount: 2
Fore
SplineSet
344 50 m 0,0,1
 392 50 392 50 421.5 61.5 c 128,-1,2
 451 73 451 73 464.5 99.5 c 128,-1,3
 478 126 478 126 478 172 c 0,4,5
 478 212 478 212 462.5 237 c 128,-1,6
 447 262 447 262 421 278 c 128,-1,7
 395 294 395 294 361.5 304 c 128,-1,8
 328 314 328 314 292 323 c 0,9,10
 247 335 247 335 208.5 349 c 128,-1,11
 170 363 170 363 140.5 385.5 c 128,-1,12
 111 408 111 408 94.5 446.5 c 128,-1,13
 78 485 78 485 78 545 c 256,14,15
 78 605 78 605 101.5 647 c 128,-1,16
 125 689 125 689 171.5 711.5 c 128,-1,17
 218 734 218 734 287 734 c 0,18,19
 345 734 345 734 385.5 714.5 c 128,-1,20
 426 695 426 695 448.5 651.5 c 128,-1,21
 471 608 471 608 473 538 c 1,22,-1
 453 586 l 1,23,-1
 467 720 l 1,24,-1
 537 720 l 1,25,-1
 537 504 l 1,26,-1
 463 504 l 1,27,28
 451 554 451 554 429 589 c 128,-1,29
 407 624 407 624 373 643 c 128,-1,30
 339 662 339 662 288 662 c 0,31,32
 245 662 245 662 218.5 649 c 128,-1,33
 192 636 192 636 180 611.5 c 128,-1,34
 168 587 168 587 168 549 c 0,35,36
 168 512 168 512 180.5 489.5 c 128,-1,37
 193 467 193 467 216.5 453.5 c 128,-1,38
 240 440 240 440 272.5 430.5 c 128,-1,39
 305 421 305 421 347 409 c 0,40,41
 387 398 387 398 427 384 c 128,-1,42
 467 370 467 370 500 347 c 128,-1,43
 533 324 533 324 553 285.5 c 128,-1,44
 573 247 573 247 573 187 c 0,45,46
 573 112 573 112 543.5 65.5 c 128,-1,47
 514 19 514 19 463 -2.5 c 128,-1,48
 412 -24 412 -24 345 -24 c 0,49,50
 280 -24 280 -24 231.5 -2.5 c 128,-1,51
 183 19 183 19 154.5 68.5 c 128,-1,52
 126 118 126 118 121 200 c 1,53,-1
 144 153 l 1,54,-1
 132 -8 l 1,55,-1
 62 -8 l 1,56,-1
 62 234 l 1,57,-1
 138 234 l 1,58,59
 151 171 151 171 176.5 130 c 128,-1,60
 202 89 202 89 243.5 69.5 c 128,-1,61
 285 50 285 50 344 50 c 0,0,1
EndSplineSet
EndChar

StartChar: Scaron
Encoding: 352 352 161
Width: 621
GlyphClass: 1
Flags: W
LayerCount: 2
Fore
SplineSet
281 805 m 1,0,-1
 353 805 l 1,1,-1
 479 961 l 1,2,-1
 479 981 l 1,3,-1
 429 981 l 1,4,-1
 256 839 l 1,5,-1
 384 843 l 1,6,-1
 214 981 l 1,7,-1
 155 981 l 1,8,-1
 155 961 l 1,9,-1
 281 805 l 1,0,-1
344 50 m 0,10,11
 392 50 392 50 421.5 61.5 c 128,-1,12
 451 73 451 73 464.5 99.5 c 128,-1,13
 478 126 478 126 478 172 c 0,14,15
 478 212 478 212 462.5 237 c 128,-1,16
 447 262 447 262 421 278 c 128,-1,17
 395 294 395 294 361.5 304 c 128,-1,18
 328 314 328 314 292 323 c 0,19,20
 247 335 247 335 208.5 349 c 128,-1,21
 170 363 170 363 140.5 385.5 c 128,-1,22
 111 408 111 408 94.5 446.5 c 128,-1,23
 78 485 78 485 78 545 c 256,24,25
 78 605 78 605 101.5 647 c 128,-1,26
 125 689 125 689 171.5 711.5 c 128,-1,27
 218 734 218 734 287 734 c 0,28,29
 345 734 345 734 385.5 714.5 c 128,-1,30
 426 695 426 695 448.5 651.5 c 128,-1,31
 471 608 471 608 473 538 c 1,32,-1
 453 586 l 1,33,-1
 467 720 l 1,34,-1
 537 720 l 1,35,-1
 537 504 l 1,36,-1
 463 504 l 1,37,38
 451 554 451 554 429 589 c 128,-1,39
 407 624 407 624 373 643 c 128,-1,40
 339 662 339 662 288 662 c 0,41,42
 245 662 245 662 218.5 649 c 128,-1,43
 192 636 192 636 180 611.5 c 128,-1,44
 168 587 168 587 168 549 c 0,45,46
 168 512 168 512 180.5 489.5 c 128,-1,47
 193 467 193 467 216.5 453.5 c 128,-1,48
 240 440 240 440 272.5 430.5 c 128,-1,49
 305 421 305 421 347 409 c 0,50,51
 387 398 387 398 427 384 c 128,-1,52
 467 370 467 370 500 347 c 128,-1,53
 533 324 533 324 553 285.5 c 128,-1,54
 573 247 573 247 573 187 c 0,55,56
 573 112 573 112 543.5 65.5 c 128,-1,57
 514 19 514 19 463 -2.5 c 128,-1,58
 412 -24 412 -24 345 -24 c 0,59,60
 280 -24 280 -24 231.5 -2.5 c 128,-1,61
 183 19 183 19 154.5 68.5 c 128,-1,62
 126 118 126 118 121 200 c 1,63,-1
 144 153 l 1,64,-1
 132 -8 l 1,65,-1
 62 -8 l 1,66,-1
 62 234 l 1,67,-1
 138 234 l 1,68,69
 151 171 151 171 176.5 130 c 128,-1,70
 202 89 202 89 243.5 69.5 c 128,-1,71
 285 50 285 50 344 50 c 0,10,11
EndSplineSet
EndChar

StartChar: Scarondotaccent
Encoding: 7782 7782 166
Width: 621
GlyphClass: 1
Flags: W
LayerCount: 2
Fore
SplineSet
278 805 m 1,0,-1
 350 805 l 1,1,-1
 476 961 l 1,2,-1
 476 981 l 1,3,-1
 426 981 l 1,4,-1
 253 839 l 1,5,-1
 381 843 l 1,6,-1
 211 981 l 1,7,-1
 152 981 l 1,8,-1
 152 961 l 1,9,-1
 278 805 l 1,0,-1
344 50 m 0,10,11
 392 50 392 50 421.5 61.5 c 128,-1,12
 451 73 451 73 464.5 99.5 c 128,-1,13
 478 126 478 126 478 172 c 0,14,15
 478 212 478 212 462.5 237 c 128,-1,16
 447 262 447 262 421 278 c 128,-1,17
 395 294 395 294 361.5 304 c 128,-1,18
 328 314 328 314 292 323 c 0,19,20
 247 335 247 335 208.5 349 c 128,-1,21
 170 363 170 363 140.5 385.5 c 128,-1,22
 111 408 111 408 94.5 446.5 c 128,-1,23
 78 485 78 485 78 545 c 256,24,25
 78 605 78 605 101.5 647 c 128,-1,26
 125 689 125 689 171.5 711.5 c 128,-1,27
 218 734 218 734 287 734 c 0,28,29
 345 734 345 734 385.5 714.5 c 128,-1,30
 426 695 426 695 448.5 651.5 c 128,-1,31
 471 608 471 608 473 538 c 1,32,-1
 453 586 l 1,33,-1
 467 720 l 1,34,-1
 537 720 l 1,35,-1
 537 504 l 1,36,-1
 463 504 l 1,37,38
 451 554 451 554 429 589 c 128,-1,39
 407 624 407 624 373 643 c 128,-1,40
 339 662 339 662 288 662 c 0,41,42
 245 662 245 662 218.5 649 c 128,-1,43
 192 636 192 636 180 611.5 c 128,-1,44
 168 587 168 587 168 549 c 0,45,46
 168 512 168 512 180.5 489.5 c 128,-1,47
 193 467 193 467 216.5 453.5 c 128,-1,48
 240 440 240 440 272.5 430.5 c 128,-1,49
 305 421 305 421 347 409 c 0,50,51
 387 398 387 398 427 384 c 128,-1,52
 467 370 467 370 500 347 c 128,-1,53
 533 324 533 324 553 285.5 c 128,-1,54
 573 247 573 247 573 187 c 0,55,56
 573 112 573 112 543.5 65.5 c 128,-1,57
 514 19 514 19 463 -2.5 c 128,-1,58
 412 -24 412 -24 345 -24 c 0,59,60
 280 -24 280 -24 231.5 -2.5 c 128,-1,61
 183 19 183 19 154.5 68.5 c 128,-1,62
 126 118 126 118 121 200 c 1,63,-1
 144 153 l 1,64,-1
 132 -8 l 1,65,-1
 62 -8 l 1,66,-1
 62 234 l 1,67,-1
 138 234 l 1,68,69
 151 171 151 171 176.5 130 c 128,-1,70
 202 89 202 89 243.5 69.5 c 128,-1,71
 285 50 285 50 344 50 c 0,10,11
314 1009 m 256,72,73
 279 1009 279 1009 259.5 1027.5 c 128,-1,74
 240 1046 240 1046 240 1082 c 0,75,76
 240 1116 240 1116 259.5 1134.5 c 128,-1,77
 279 1153 279 1153 314 1153 c 256,78,79
 349 1153 349 1153 368.5 1134.5 c 128,-1,80
 388 1116 388 1116 388 1082 c 0,81,82
 388 1046 388 1046 368.5 1027.5 c 128,-1,83
 349 1009 349 1009 314 1009 c 256,72,73
EndSplineSet
EndChar

StartChar: T
Encoding: 84 84 168
Width: 688
GlyphClass: 2
Flags: W
AnchorPoint: "Anchor-1" 348 0 basechar 0
AnchorPoint: "Anchor-0" 348 741 basechar 0
LayerCount: 2
Fore
SplineSet
294 111 m 2,0,-1
 294 636 l 1,1,-1
 236 636 l 2,2,3
 195 636 195 636 174 630 c 128,-1,4
 153 624 153 624 144.5 611.5 c 128,-1,5
 136 599 136 599 134 578 c 2,6,-1
 123 472 l 1,7,-1
 50 472 l 1,8,-1
 50 710 l 1,9,-1
 638 710 l 1,10,-1
 638 472 l 1,11,-1
 565 472 l 1,12,-1
 554 578 l 2,13,14
 552 599 552 599 543.5 611.5 c 128,-1,15
 535 624 535 624 513.5 630 c 128,-1,16
 492 636 492 636 451 636 c 2,17,-1
 393 636 l 1,18,-1
 393 111 l 2,19,20
 393 89 393 89 417 82 c 128,-1,21
 441 75 441 75 472 75 c 2,22,-1
 490 75 l 1,23,-1
 490 0 l 1,24,-1
 197 0 l 1,25,-1
 197 75 l 1,26,-1
 216 75 l 2,27,28
 247 75 247 75 270.5 82 c 128,-1,29
 294 89 294 89 294 111 c 2,0,-1
EndSplineSet
EndChar

StartChar: Tcaron
Encoding: 356 356 170
Width: 688
GlyphClass: 1
Flags: W
LayerCount: 2
Fore
SplineSet
302 805 m 1,0,-1
 374 805 l 1,1,-1
 500 961 l 1,2,-1
 500 981 l 1,3,-1
 450 981 l 1,4,-1
 276 839 l 1,5,-1
 405 843 l 1,6,-1
 235 981 l 1,7,-1
 175 981 l 1,8,-1
 175 961 l 1,9,-1
 302 805 l 1,0,-1
294 111 m 2,10,-1
 294 636 l 1,11,-1
 236 636 l 2,12,13
 195 636 195 636 174 630 c 128,-1,14
 153 624 153 624 144.5 611.5 c 128,-1,15
 136 599 136 599 134 578 c 2,16,-1
 123 472 l 1,17,-1
 50 472 l 1,18,-1
 50 710 l 1,19,-1
 638 710 l 1,20,-1
 638 472 l 1,21,-1
 565 472 l 1,22,-1
 554 578 l 2,23,24
 552 599 552 599 543.5 611.5 c 128,-1,25
 535 624 535 624 513.5 630 c 128,-1,26
 492 636 492 636 451 636 c 2,27,-1
 393 636 l 1,28,-1
 393 111 l 2,29,30
 393 89 393 89 417 82 c 128,-1,31
 441 75 441 75 472 75 c 2,32,-1
 490 75 l 1,33,-1
 490 0 l 1,34,-1
 197 0 l 1,35,-1
 197 75 l 1,36,-1
 216 75 l 2,37,38
 247 75 247 75 270.5 82 c 128,-1,39
 294 89 294 89 294 111 c 2,10,-1
EndSplineSet
EndChar

StartChar: U
Encoding: 85 85 174
Width: 771
GlyphClass: 2
Flags: W
AnchorPoint: "Anchor-2" 442 0 basechar 0
AnchorPoint: "Anchor-1" 390 0 basechar 0
AnchorPoint: "Anchor-0" 390 741 basechar 0
LayerCount: 2
Fore
SplineSet
227 250 m 2,0,1
 227 195 227 195 239.5 158 c 128,-1,2
 252 121 252 121 275 98.5 c 128,-1,3
 298 76 298 76 329 66 c 128,-1,4
 360 56 360 56 397 56 c 256,5,6
 434 56 434 56 464.5 66 c 128,-1,7
 495 76 495 76 517 98.5 c 128,-1,8
 539 121 539 121 550.5 158 c 128,-1,9
 562 195 562 195 562 250 c 2,10,-1
 562 616 l 2,11,12
 562 621 562 621 555 624.5 c 128,-1,13
 548 628 548 628 537 630 c 128,-1,14
 526 632 526 632 513.5 633.5 c 128,-1,15
 501 635 501 635 491 635 c 2,16,-1
 482 635 l 1,17,-1
 482 710 l 1,18,-1
 724 710 l 1,19,-1
 724 635 l 1,20,-1
 714 635 l 2,21,22
 696 635 696 635 680 631 c 128,-1,23
 664 627 664 627 654 617 c 128,-1,24
 644 607 644 607 644 590 c 2,25,-1
 644 238 l 2,26,27
 644 168 644 168 624 118 c 128,-1,28
 604 68 604 68 568.5 36.5 c 128,-1,29
 533 5 533 5 487 -9.5 c 128,-1,30
 441 -24 441 -24 389 -24 c 0,31,32
 334 -24 334 -24 286.5 -9.5 c 128,-1,33
 239 5 239 5 203 36.5 c 128,-1,34
 167 68 167 68 147.5 118 c 128,-1,35
 128 168 128 168 128 238 c 2,36,-1
 128 599 l 2,37,38
 128 621 128 621 106.5 628 c 128,-1,39
 85 635 85 635 57 635 c 2,40,-1
 47 635 l 1,41,-1
 47 710 l 1,42,-1
 314 710 l 1,43,-1
 314 636 l 1,44,-1
 306 636 l 2,45,46
 293 636 293 636 279 635 c 128,-1,47
 265 634 265 634 253 632.5 c 128,-1,48
 241 631 241 631 234 629.5 c 128,-1,49
 227 628 227 628 227 625 c 2,50,-1
 227 250 l 2,0,1
EndSplineSet
EndChar

StartChar: Uogonek
Encoding: 370 370 184
Width: 771
GlyphClass: 1
Flags: W
LayerCount: 2
Fore
SplineSet
495 39 m 1,0,-1
 496 -4 l 1,1,2
 472 -15 472 -15 445 -19.5 c 128,-1,3
 418 -24 418 -24 389 -24 c 0,4,5
 333 -24 333 -24 285 -9.5 c 128,-1,6
 237 5 237 5 201.5 36.5 c 128,-1,7
 166 68 166 68 147 118 c 128,-1,8
 128 168 128 168 128 238 c 2,9,-1
 128 599 l 2,10,11
 128 621 128 621 109.5 628 c 128,-1,12
 91 635 91 635 57 635 c 2,13,-1
 47 635 l 1,14,-1
 47 710 l 1,15,-1
 314 710 l 1,16,-1
 314 636 l 1,17,-1
 306 636 l 2,18,19
 293 636 293 636 279 635 c 128,-1,20
 265 634 265 634 253 633 c 128,-1,21
 241 632 241 632 234 630.5 c 128,-1,22
 227 629 227 629 227 626 c 2,23,-1
 227 238 l 2,24,25
 227 187 227 187 239.5 152 c 128,-1,26
 252 117 252 117 275 96.5 c 128,-1,27
 298 76 298 76 329.5 67 c 128,-1,28
 361 58 361 58 399 58 c 0,29,30
 436 58 436 58 466.5 67 c 128,-1,31
 497 76 497 76 518.5 96.5 c 128,-1,32
 540 117 540 117 551.5 152 c 128,-1,33
 563 187 563 187 563 238 c 2,34,-1
 563 616 l 2,35,36
 563 621 563 621 556.5 624.5 c 128,-1,37
 550 628 550 628 540 630 c 128,-1,38
 530 632 530 632 517 633.5 c 128,-1,39
 504 635 504 635 490 635 c 2,40,-1
 482 635 l 1,41,-1
 482 710 l 1,42,-1
 724 710 l 1,43,-1
 724 635 l 1,44,-1
 714 635 l 2,45,46
 692 635 692 635 676 631 c 128,-1,47
 660 627 660 627 652 617 c 128,-1,48
 644 607 644 607 644 590 c 2,49,-1
 644 238 l 2,50,51
 644 193 644 193 634.5 156 c 128,-1,52
 625 119 625 119 609.5 90 c 128,-1,53
 594 61 594 61 574 40 c 0,54,55
 555 18 555 18 527.5 -3.5 c 128,-1,56
 500 -25 500 -25 474.5 -47.5 c 128,-1,57
 449 -70 449 -70 431.5 -95.5 c 128,-1,58
 414 -121 414 -121 414 -150 c 0,59,60
 414 -163 414 -163 423 -174 c 128,-1,61
 432 -185 432 -185 455 -185 c 0,62,63
 484 -185 484 -185 502 -171 c 128,-1,64
 520 -157 520 -157 532 -141 c 1,65,-1
 575 -181 l 1,66,67
 550 -212 550 -212 517 -232 c 128,-1,68
 484 -252 484 -252 431 -252 c 0,69,70
 396 -252 396 -252 367.5 -242.5 c 128,-1,71
 339 -233 339 -233 323 -213 c 128,-1,72
 307 -193 307 -193 307 -161 c 0,73,74
 307 -138 307 -138 315.5 -118 c 128,-1,75
 324 -98 324 -98 344.5 -77.5 c 128,-1,76
 365 -57 365 -57 402 -29 c 128,-1,77
 439 -1 439 -1 495 39 c 1,0,-1
EndSplineSet
EndChar

StartChar: Uhorn
Encoding: 431 431 185
Width: 876
GlyphClass: 2
Flags: W
AnchorPoint: "Anchor-1" 442 -35 basechar 0
AnchorPoint: "Anchor-0" 442 663 basechar 0
LayerCount: 2
Fore
SplineSet
128 238 m 2,0,-1
 128 599 l 2,1,2
 128 621 128 621 109.5 628 c 128,-1,3
 91 635 91 635 57 635 c 2,4,-1
 47 635 l 1,5,-1
 47 710 l 1,6,-1
 314 710 l 1,7,-1
 314 636 l 1,8,-1
 306 636 l 2,9,10
 293 636 293 636 279 635 c 128,-1,11
 265 634 265 634 253 633 c 128,-1,12
 241 632 241 632 234 630.5 c 128,-1,13
 227 629 227 629 227 626 c 2,14,-1
 227 238 l 2,15,16
 227 187 227 187 239.5 152 c 128,-1,17
 252 117 252 117 275 96 c 128,-1,18
 298 75 298 75 329.5 66 c 128,-1,19
 361 57 361 57 400 57 c 0,20,21
 446 57 446 57 483 73.5 c 128,-1,22
 520 90 520 90 541.5 130 c 128,-1,23
 563 170 563 170 563 238 c 2,24,-1
 563 616 l 2,25,26
 563 621 563 621 556.5 624.5 c 128,-1,27
 550 628 550 628 540 630 c 128,-1,28
 530 632 530 632 517 633.5 c 128,-1,29
 504 635 504 635 490 635 c 2,30,-1
 482 635 l 1,31,-1
 482 710 l 1,32,-1
 701 710 l 2,33,34
 734 710 734 710 756.5 722.5 c 128,-1,35
 779 735 779 735 792.5 760 c 128,-1,36
 806 785 806 785 812.5 819.5 c 128,-1,37
 819 854 819 854 822 899 c 1,38,-1
 915 899 l 1,39,40
 913 846 913 846 905.5 805 c 128,-1,41
 898 764 898 764 883 734 c 128,-1,42
 868 704 868 704 844 684 c 128,-1,43
 820 664 820 664 785 652 c 128,-1,44
 750 640 750 640 703 636 c 0,45,46
 685 635 685 635 672 631 c 128,-1,47
 659 627 659 627 651.5 617.5 c 128,-1,48
 644 608 644 608 644 592 c 2,49,-1
 644 238 l 2,50,51
 644 168 644 168 624.5 118 c 128,-1,52
 605 68 605 68 570 36.5 c 128,-1,53
 535 5 535 5 488.5 -9.5 c 128,-1,54
 442 -24 442 -24 389 -24 c 0,55,56
 333 -24 333 -24 285 -9.5 c 128,-1,57
 237 5 237 5 201.5 36.5 c 128,-1,58
 166 68 166 68 147 118 c 128,-1,59
 128 168 128 168 128 238 c 2,0,-1
EndSplineSet
EndChar

StartChar: Ucaron
Encoding: 467 467 186
Width: 771
GlyphClass: 1
Flags: W
LayerCount: 2
Fore
SplineSet
357 805 m 1,0,-1
 428 805 l 1,1,-1
 554 961 l 1,2,-1
 554 981 l 1,3,-1
 505 981 l 1,4,-1
 331 839 l 1,5,-1
 460 843 l 1,6,-1
 290 981 l 1,7,-1
 230 981 l 1,8,-1
 230 961 l 1,9,-1
 357 805 l 1,0,-1
227 250 m 2,10,11
 227 195 227 195 239.5 158 c 128,-1,12
 252 121 252 121 275 98.5 c 128,-1,13
 298 76 298 76 329 66 c 128,-1,14
 360 56 360 56 397 56 c 256,15,16
 434 56 434 56 464.5 66 c 128,-1,17
 495 76 495 76 517 98.5 c 128,-1,18
 539 121 539 121 550.5 158 c 128,-1,19
 562 195 562 195 562 250 c 2,20,-1
 562 616 l 2,21,22
 562 621 562 621 555 624.5 c 128,-1,23
 548 628 548 628 537 630 c 128,-1,24
 526 632 526 632 513.5 633.5 c 128,-1,25
 501 635 501 635 490 635 c 2,26,-1
 482 635 l 1,27,-1
 482 710 l 1,28,-1
 724 710 l 1,29,-1
 724 635 l 1,30,-1
 714 635 l 2,31,32
 696 635 696 635 680 631 c 128,-1,33
 664 627 664 627 654 617 c 128,-1,34
 644 607 644 607 644 590 c 2,35,-1
 644 238 l 2,36,37
 644 168 644 168 624 118 c 128,-1,38
 604 68 604 68 568.5 36.5 c 128,-1,39
 533 5 533 5 487 -9.5 c 128,-1,40
 441 -24 441 -24 389 -24 c 0,41,42
 334 -24 334 -24 286.5 -9.5 c 128,-1,43
 239 5 239 5 203 36.5 c 128,-1,44
 167 68 167 68 147.5 118 c 128,-1,45
 128 168 128 168 128 238 c 2,46,-1
 128 599 l 2,47,48
 128 621 128 621 106.5 628 c 128,-1,49
 85 635 85 635 57 635 c 2,50,-1
 47 635 l 1,51,-1
 47 710 l 1,52,-1
 314 710 l 1,53,-1
 314 636 l 1,54,-1
 306 636 l 2,55,56
 293 636 293 636 279 635 c 128,-1,57
 265 634 265 634 253 632.5 c 128,-1,58
 241 631 241 631 234 629.5 c 128,-1,59
 227 628 227 628 227 625 c 2,60,-1
 227 250 l 2,10,11
EndSplineSet
EndChar

StartChar: Udieresiscaron
Encoding: 473 473 187
Width: 771
GlyphClass: 1
Flags: W
LayerCount: 2
Fore
SplineSet
359 981 m 1,0,-1
 431 981 l 1,1,-1
 556 1136 l 1,2,-1
 556 1156 l 1,3,-1
 507 1156 l 1,4,-1
 333 1015 l 1,5,-1
 462 1018 l 1,6,-1
 292 1156 l 1,7,-1
 232 1156 l 1,8,-1
 232 1136 l 1,9,-1
 359 981 l 1,0,-1
227 250 m 2,10,11
 227 195 227 195 239.5 158 c 128,-1,12
 252 121 252 121 275 98.5 c 128,-1,13
 298 76 298 76 329 66 c 128,-1,14
 360 56 360 56 397 56 c 256,15,16
 434 56 434 56 464.5 66 c 128,-1,17
 495 76 495 76 517 98.5 c 128,-1,18
 539 121 539 121 550.5 158 c 128,-1,19
 562 195 562 195 562 250 c 2,20,-1
 562 616 l 2,21,22
 562 621 562 621 555 624.5 c 128,-1,23
 548 628 548 628 537 630 c 128,-1,24
 526 632 526 632 513.5 633.5 c 128,-1,25
 501 635 501 635 490 635 c 2,26,-1
 482 635 l 1,27,-1
 482 710 l 1,28,-1
 724 710 l 1,29,-1
 724 635 l 1,30,-1
 714 635 l 2,31,32
 696 635 696 635 680 631 c 128,-1,33
 664 627 664 627 654 617 c 128,-1,34
 644 607 644 607 644 590 c 2,35,-1
 644 238 l 2,36,37
 644 168 644 168 624 118 c 128,-1,38
 604 68 604 68 568.5 36.5 c 128,-1,39
 533 5 533 5 487 -9.5 c 128,-1,40
 441 -24 441 -24 389 -24 c 0,41,42
 334 -24 334 -24 286.5 -9.5 c 128,-1,43
 239 5 239 5 203 36.5 c 128,-1,44
 167 68 167 68 147.5 118 c 128,-1,45
 128 168 128 168 128 238 c 2,46,-1
 128 599 l 2,47,48
 128 621 128 621 106.5 628 c 128,-1,49
 85 635 85 635 57 635 c 2,50,-1
 47 635 l 1,51,-1
 47 710 l 1,52,-1
 314 710 l 1,53,-1
 314 636 l 1,54,-1
 306 636 l 2,55,56
 293 636 293 636 279 635 c 128,-1,57
 265 634 265 634 253 632.5 c 128,-1,58
 241 631 241 631 234 629.5 c 128,-1,59
 227 628 227 628 227 625 c 2,60,-1
 227 250 l 2,10,11
342 877 m 0,61,62
 342 840 342 840 322.5 824 c 128,-1,63
 303 808 303 808 272 808 c 0,64,65
 240 808 240 808 221 824 c 128,-1,66
 202 840 202 840 202 877 c 0,67,68
 202 912 202 912 221 928.5 c 128,-1,69
 240 945 240 945 272 945 c 0,70,71
 303 945 303 945 322.5 928.5 c 128,-1,72
 342 912 342 912 342 877 c 0,61,62
585 877 m 0,73,74
 585 840 585 840 565.5 824 c 128,-1,75
 546 808 546 808 515 808 c 256,76,77
 484 808 484 808 464.5 824 c 128,-1,78
 445 840 445 840 445 877 c 0,79,80
 445 912 445 912 464.5 928.5 c 128,-1,81
 484 945 484 945 515 945 c 256,82,83
 546 945 546 945 565.5 928.5 c 128,-1,84
 585 912 585 912 585 877 c 0,73,74
EndSplineSet
EndChar

StartChar: Udblgrave
Encoding: 532 532 188
Width: 771
GlyphClass: 1
Flags: W
LayerCount: 2
Fore
SplineSet
473 927 m 2,0,-1
 516 825 l 1,1,-1
 516 793 l 1,2,-1
 474 793 l 1,3,-1
 405 856 l 2,4,5
 385 874 385 874 374 891.5 c 128,-1,6
 363 909 363 909 363 930 c 0,7,8
 363 947 363 947 376 960 c 128,-1,9
 389 973 389 973 412 973 c 0,10,11
 428 973 428 973 439.5 966.5 c 128,-1,12
 451 960 451 960 459 950 c 128,-1,13
 467 940 467 940 473 927 c 2,0,-1
286 927 m 2,14,-1
 326 825 l 1,15,-1
 326 793 l 1,16,-1
 285 793 l 1,17,-1
 216 856 l 2,18,19
 196 874 196 874 184.5 891.5 c 128,-1,20
 173 909 173 909 173 930 c 0,21,22
 173 947 173 947 186.5 960 c 128,-1,23
 200 973 200 973 222 973 c 0,24,25
 238 973 238 973 250.5 966.5 c 128,-1,26
 263 960 263 960 272 950 c 128,-1,27
 281 940 281 940 286 927 c 2,14,-1
227 250 m 2,28,29
 227 195 227 195 239.5 158 c 128,-1,30
 252 121 252 121 275 98.5 c 128,-1,31
 298 76 298 76 329 66 c 128,-1,32
 360 56 360 56 397 56 c 256,33,34
 434 56 434 56 464.5 66 c 128,-1,35
 495 76 495 76 517 98.5 c 128,-1,36
 539 121 539 121 550.5 158 c 128,-1,37
 562 195 562 195 562 250 c 2,38,-1
 562 616 l 2,39,40
 562 621 562 621 555 624.5 c 128,-1,41
 548 628 548 628 537 630 c 128,-1,42
 526 632 526 632 513.5 633.5 c 128,-1,43
 501 635 501 635 490 635 c 2,44,-1
 482 635 l 1,45,-1
 482 710 l 1,46,-1
 724 710 l 1,47,-1
 724 635 l 1,48,-1
 714 635 l 2,49,50
 696 635 696 635 680 631 c 128,-1,51
 664 627 664 627 654 617 c 128,-1,52
 644 607 644 607 644 590 c 2,53,-1
 644 238 l 2,54,55
 644 168 644 168 624 118 c 128,-1,56
 604 68 604 68 568.5 36.5 c 128,-1,57
 533 5 533 5 487 -9.5 c 128,-1,58
 441 -24 441 -24 389 -24 c 0,59,60
 334 -24 334 -24 286.5 -9.5 c 128,-1,61
 239 5 239 5 203 36.5 c 128,-1,62
 167 68 167 68 147.5 118 c 128,-1,63
 128 168 128 168 128 238 c 2,64,-1
 128 599 l 2,65,66
 128 621 128 621 106.5 628 c 128,-1,67
 85 635 85 635 57 635 c 2,68,-1
 47 635 l 1,69,-1
 47 710 l 1,70,-1
 314 710 l 1,71,-1
 314 636 l 1,72,-1
 306 636 l 2,73,74
 293 636 293 636 279 635 c 128,-1,75
 265 634 265 634 253 632.5 c 128,-1,76
 241 631 241 631 234 629.5 c 128,-1,77
 227 628 227 628 227 625 c 2,78,-1
 227 250 l 2,28,29
EndSplineSet
EndChar

StartChar: Uinvertedbreve
Encoding: 534 534 189
Width: 771
GlyphClass: 1
Flags: W
LayerCount: 2
Fore
SplineSet
385 928 m 0,0,1
 331 928 331 928 294 912 c 128,-1,2
 257 896 257 896 237 859 c 128,-1,3
 217 822 217 822 216 761 c 1,4,-1
 288 761 l 1,5,6
 290 797 290 797 299 816.5 c 128,-1,7
 308 836 308 836 328.5 843 c 128,-1,8
 349 850 349 850 386 850 c 0,9,10
 419 850 419 850 438.5 843 c 128,-1,11
 458 836 458 836 467.5 817 c 128,-1,12
 477 798 477 798 479 761 c 1,13,-1
 556 761 l 1,14,15
 555 822 555 822 534 859 c 128,-1,16
 513 896 513 896 475.5 912 c 128,-1,17
 438 928 438 928 385 928 c 0,0,1
227 250 m 2,18,19
 227 195 227 195 239.5 158 c 128,-1,20
 252 121 252 121 275 98.5 c 128,-1,21
 298 76 298 76 329 66 c 128,-1,22
 360 56 360 56 397 56 c 256,23,24
 434 56 434 56 464.5 66 c 128,-1,25
 495 76 495 76 517 98.5 c 128,-1,26
 539 121 539 121 550.5 158 c 128,-1,27
 562 195 562 195 562 250 c 2,28,-1
 562 616 l 2,29,30
 562 621 562 621 555 624.5 c 128,-1,31
 548 628 548 628 537 630 c 128,-1,32
 526 632 526 632 513.5 633.5 c 128,-1,33
 501 635 501 635 490 635 c 2,34,-1
 482 635 l 1,35,-1
 482 710 l 1,36,-1
 724 710 l 1,37,-1
 724 635 l 1,38,-1
 714 635 l 2,39,40
 696 635 696 635 680 631 c 128,-1,41
 664 627 664 627 654 617 c 128,-1,42
 644 607 644 607 644 590 c 2,43,-1
 644 238 l 2,44,45
 644 168 644 168 624 118 c 128,-1,46
 604 68 604 68 568.5 36.5 c 128,-1,47
 533 5 533 5 487 -9.5 c 128,-1,48
 441 -24 441 -24 389 -24 c 0,49,50
 334 -24 334 -24 286.5 -9.5 c 128,-1,51
 239 5 239 5 203 36.5 c 128,-1,52
 167 68 167 68 147.5 118 c 128,-1,53
 128 168 128 168 128 238 c 2,54,-1
 128 599 l 2,55,56
 128 621 128 621 106.5 628 c 128,-1,57
 85 635 85 635 57 635 c 2,58,-1
 47 635 l 1,59,-1
 47 710 l 1,60,-1
 314 710 l 1,61,-1
 314 636 l 1,62,-1
 306 636 l 2,63,64
 293 636 293 636 279 635 c 128,-1,65
 265 634 265 634 253 632.5 c 128,-1,66
 241 631 241 631 234 629.5 c 128,-1,67
 227 628 227 628 227 625 c 2,68,-1
 227 250 l 2,18,19
EndSplineSet
EndChar

StartChar: V
Encoding: 86 86 199
Width: 703
GlyphClass: 2
Flags: W
AnchorPoint: "Anchor-0" 360 741 basechar 0
LayerCount: 2
Fore
SplineSet
374 24 m 1,0,-1
 349 37 l 1,1,-1
 534 612 l 2,2,3
 534 619 534 619 524.5 624.5 c 128,-1,4
 515 630 515 630 498.5 632.5 c 128,-1,5
 482 635 482 635 460 635 c 2,6,-1
 449 635 l 1,7,-1
 449 710 l 1,8,-1
 683 710 l 1,9,-1
 683 635 l 1,10,-1
 678 635 l 2,11,12
 656 635 656 635 637.5 623 c 128,-1,13
 619 611 619 611 606 571 c 2,14,-1
 415 -12 l 1,15,-1
 290 -12 l 1,16,-1
 96 571 l 2,17,18
 83 611 83 611 65 623 c 128,-1,19
 47 635 47 635 24 635 c 2,20,-1
 19 635 l 1,21,-1
 19 710 l 1,22,-1
 274 710 l 1,23,-1
 274 635 l 1,24,-1
 262 635 l 2,25,26
 236 635 236 635 218 633.5 c 128,-1,27
 200 632 200 632 190 630 c 128,-1,28
 180 628 180 628 180 624 c 2,29,-1
 374 24 l 1,0,-1
EndSplineSet
EndChar

StartChar: W
Encoding: 87 87 200
Width: 978
GlyphClass: 2
Flags: W
AnchorPoint: "Anchor-0" 502 741 basechar 0
LayerCount: 2
Fore
SplineSet
20 710 m 1,0,-1
 260 710 l 1,1,-1
 260 635 l 1,2,-1
 245 635 l 2,3,4
 233 635 233 635 217 633.5 c 128,-1,5
 201 632 201 632 190 630 c 128,-1,6
 179 628 179 628 179 624 c 2,7,-1
 320 42 l 1,8,-1
 279 41 l 1,9,-1
 448 710 l 1,10,-1
 556 710 l 1,11,-1
 723 45 l 1,12,-1
 685 45 l 1,13,-1
 824 612 l 2,14,15
 824 619 824 619 814.5 624 c 128,-1,16
 805 629 805 629 791.5 632 c 128,-1,17
 778 635 778 635 766 635 c 2,18,-1
 753 635 l 1,19,-1
 753 710 l 1,20,-1
 959 710 l 1,21,-1
 959 635 l 1,22,-1
 953 635 l 2,23,24
 933 635 933 635 917.5 624 c 128,-1,25
 902 613 902 613 895 587 c 2,26,-1
 750 -2 l 1,27,-1
 643 -2 l 1,28,-1
 474 656 l 1,29,-1
 512 658 l 1,30,-1
 347 -2 l 1,31,-1
 240 -2 l 1,32,-1
 86 597 l 2,33,34
 79 624 79 624 64.5 629.5 c 128,-1,35
 50 635 50 635 26 635 c 2,36,-1
 20 635 l 1,37,-1
 20 710 l 1,0,-1
EndSplineSet
EndChar

StartChar: X
Encoding: 88 88 205
Width: 715
GlyphClass: 2
Flags: W
AnchorPoint: "Anchor-1" 355 0 basechar 0
AnchorPoint: "Anchor-0" 378 741 basechar 0
LayerCount: 2
Fore
SplineSet
40 635 m 1,0,-1
 40 710 l 1,1,-1
 305 710 l 1,2,-1
 305 635 l 1,3,-1
 289 635 l 2,4,5
 272 635 272 635 256.5 634.5 c 128,-1,6
 241 634 241 634 231 632 c 128,-1,7
 221 630 221 630 221 626 c 2,8,-1
 390 391 l 1,9,-1
 401 388 l 1,10,-1
 601 109 l 2,11,12
 617 87 617 87 633 81 c 128,-1,13
 649 75 649 75 669 75 c 2,14,-1
 688 75 l 1,15,-1
 688 0 l 1,16,-1
 418 0 l 1,17,-1
 418 75 l 1,18,-1
 434 75 l 2,19,20
 451 75 451 75 467 76 c 128,-1,21
 483 77 483 77 493 79 c 128,-1,22
 503 81 503 81 503 84 c 2,23,-1
 320 340 l 1,24,-1
 310 343 l 1,25,-1
 123 601 l 2,26,27
 107 624 107 624 90 629.5 c 128,-1,28
 73 635 73 635 53 635 c 2,29,-1
 40 635 l 1,0,-1
27 0 m 1,30,-1
 27 75 l 1,31,-1
 46 75 l 2,32,33
 64 75 64 75 80 84.5 c 128,-1,34
 96 94 96 94 114 121 c 2,35,-1
 299 379 l 1,36,-1
 360 337 l 1,37,-1
 187 92 l 2,38,39
 187 87 187 87 197.5 83.5 c 128,-1,40
 208 80 208 80 223 77.5 c 128,-1,41
 238 75 238 75 251 75 c 2,42,-1
 268 75 l 1,43,-1
 268 0 l 1,44,-1
 27 0 l 1,30,-1
414 355 m 1,45,-1
 352 395 l 1,46,-1
 516 618 l 2,47,48
 516 624 516 624 505 627.5 c 128,-1,49
 494 631 494 631 479 633 c 128,-1,50
 464 635 464 635 450 635 c 2,51,-1
 436 635 l 1,52,-1
 436 710 l 1,53,-1
 674 710 l 1,54,-1
 674 635 l 1,55,-1
 660 635 l 2,56,57
 642 635 642 635 625.5 626.5 c 128,-1,58
 609 618 609 618 588 590 c 2,59,-1
 414 355 l 1,45,-1
EndSplineSet
EndChar

StartChar: Y
Encoding: 89 89 206
Width: 670
GlyphClass: 2
Flags: W
AnchorPoint: "Anchor-1" 339 0 basechar 0
AnchorPoint: "Anchor-0" 339 741 basechar 0
LayerCount: 2
Fore
SplineSet
288 303 m 1,0,-1
 294 263 l 1,1,-1
 100 596 l 2,2,3
 90 612 90 612 81.5 621 c 128,-1,4
 73 630 73 630 62.5 632.5 c 128,-1,5
 52 635 52 635 38 635 c 2,6,-1
 26 635 l 1,7,-1
 26 710 l 1,8,-1
 264 710 l 1,9,-1
 264 635 l 1,10,-1
 249 635 l 2,11,12
 234 635 234 635 220 633.5 c 128,-1,13
 206 632 206 632 196.5 630 c 128,-1,14
 187 628 187 628 187 624 c 2,15,-1
 370 303 l 1,16,-1
 327 303 l 1,17,-1
 494 612 l 2,18,19
 494 620 494 620 484.5 624.5 c 128,-1,20
 475 629 475 629 462.5 632 c 128,-1,21
 450 635 450 635 440 635 c 2,22,-1
 429 635 l 1,23,-1
 429 710 l 1,24,-1
 642 710 l 1,25,-1
 642 635 l 1,26,-1
 630 635 l 2,27,28
 618 635 618 635 607 630.5 c 128,-1,29
 596 626 596 626 585.5 615 c 128,-1,30
 575 604 575 604 564 585 c 2,31,-1
 380 262 l 1,32,-1
 387 303 l 1,33,-1
 387 111 l 2,34,35
 387 89 387 89 409.5 82 c 128,-1,36
 432 75 432 75 463 75 c 2,37,-1
 483 75 l 1,38,-1
 483 0 l 1,39,-1
 192 0 l 1,40,-1
 192 75 l 1,41,-1
 211 75 l 2,42,43
 244 75 244 75 266 82 c 128,-1,44
 288 89 288 89 288 111 c 2,45,-1
 288 303 l 1,0,-1
EndSplineSet
EndChar

StartChar: Z
Encoding: 90 90 216
Width: 637
GlyphClass: 2
Flags: W
AnchorPoint: "Anchor-1" 337 0 basechar 0
AnchorPoint: "Anchor-0" 337 741 basechar 0
LayerCount: 2
Fore
SplineSet
259 636 m 2,0,1
 230 636 230 636 211 634 c 128,-1,2
 192 632 192 632 181.5 627 c 128,-1,3
 171 622 171 622 166 613.5 c 128,-1,4
 161 605 161 605 159 591 c 2,5,-1
 147 505 l 1,6,-1
 74 505 l 1,7,-1
 74 710 l 1,8,-1
 563 710 l 1,9,-1
 563 630 l 1,10,-1
 132 20 l 1,11,-1
 115 74 l 1,12,-1
 389 74 l 2,13,14
 429 74 429 74 450 77.5 c 128,-1,15
 471 81 471 81 479.5 91 c 128,-1,16
 488 101 488 101 490 119 c 2,17,-1
 504 230 l 1,18,-1
 578 230 l 1,19,-1
 578 0 l 1,20,-1
 60 0 l 1,21,-1
 60 83 l 1,22,-1
 480 677 l 1,23,-1
 502 636 l 1,24,-1
 259 636 l 2,0,1
EndSplineSet
EndChar

StartChar: Zcaron
Encoding: 381 381 219
Width: 637
GlyphClass: 1
Flags: W
LayerCount: 2
Fore
SplineSet
278 805 m 1,0,-1
 350 805 l 1,1,-1
 475 961 l 1,2,-1
 475 981 l 1,3,-1
 426 981 l 1,4,-1
 252 839 l 1,5,-1
 381 843 l 1,6,-1
 211 981 l 1,7,-1
 151 981 l 1,8,-1
 151 961 l 1,9,-1
 278 805 l 1,0,-1
259 636 m 2,10,11
 230 636 230 636 211 634 c 128,-1,12
 192 632 192 632 181.5 627 c 128,-1,13
 171 622 171 622 166 613.5 c 128,-1,14
 161 605 161 605 159 591 c 2,15,-1
 147 505 l 1,16,-1
 74 505 l 1,17,-1
 74 710 l 1,18,-1
 563 710 l 1,19,-1
 563 630 l 1,20,-1
 132 20 l 1,21,-1
 115 74 l 1,22,-1
 389 74 l 2,23,24
 429 74 429 74 450 77.5 c 128,-1,25
 471 81 471 81 479.5 91 c 128,-1,26
 488 101 488 101 490 119 c 2,27,-1
 504 230 l 1,28,-1
 578 230 l 1,29,-1
 578 0 l 1,30,-1
 60 0 l 1,31,-1
 60 83 l 1,32,-1
 480 677 l 1,33,-1
 502 636 l 1,34,-1
 259 636 l 2,10,11
EndSplineSet
EndChar

StartChar: AE
Encoding: 198 198 221
Width: 1027
GlyphClass: 2
Flags: W
AnchorPoint: "Anchor-0" 633 741 basechar 0
LayerCount: 2
Fore
SplineSet
227 302 m 1,0,-1
 536 302 l 1,1,-1
 554 227 l 1,2,-1
 209 227 l 1,3,-1
 227 302 l 1,0,-1
581 400 m 1,4,5
 625 402 625 402 669 404 c 128,-1,6
 713 406 713 406 758.5 409 c 128,-1,7
 804 412 804 412 849 415 c 1,8,-1
 849 316 l 1,9,10
 805 318 805 318 760 320 c 128,-1,11
 715 322 715 322 670.5 325 c 128,-1,12
 626 328 626 328 581 330 c 1,13,-1
 581 400 l 1,4,5
418 0 m 1,14,-1
 418 75 l 1,15,-1
 425 75 l 2,16,17
 450 75 450 75 467 78 c 128,-1,18
 484 81 484 81 492.5 87.5 c 128,-1,19
 501 94 501 94 501 103 c 2,20,-1
 501 658 l 1,21,-1
 480 643 l 1,22,-1
 169 97 l 2,23,24
 169 92 169 92 176 86.5 c 128,-1,25
 183 81 183 81 198.5 78 c 128,-1,26
 214 75 214 75 239 75 c 2,27,-1
 249 75 l 1,28,-1
 249 0 l 1,29,-1
 5 0 l 1,30,-1
 5 75 l 1,31,-1
 11 75 l 2,32,33
 30 75 30 75 44.5 81 c 128,-1,34
 59 87 59 87 72.5 101.5 c 128,-1,35
 86 116 86 116 99 139 c 2,36,-1
 364 603 l 1,37,38
 364 618 364 618 358.5 625 c 128,-1,39
 353 632 353 632 340 633.5 c 128,-1,40
 327 635 327 635 305 635 c 2,41,-1
 294 635 l 1,42,-1
 294 710 l 1,43,-1
 941 710 l 1,44,-1
 941 510 l 1,45,-1
 868 510 l 1,46,-1
 856 591 l 2,47,48
 853 609 853 609 841 618.5 c 128,-1,49
 829 628 829 628 804.5 632 c 128,-1,50
 780 636 780 636 741 636 c 2,51,-1
 600 636 l 1,52,-1
 600 74 l 1,53,-1
 757 74 l 2,54,55
 786 74 786 74 807.5 76 c 128,-1,56
 829 78 829 78 842.5 83 c 128,-1,57
 856 88 856 88 863 97 c 128,-1,58
 870 106 870 106 871 119 c 2,59,-1
 885 225 l 1,60,-1
 960 225 l 1,61,-1
 960 0 l 1,62,-1
 418 0 l 1,14,-1
EndSplineSet
EndChar

StartChar: Eth
Encoding: 208 208 223
Width: 753
GlyphClass: 1
Flags: W
LayerCount: 2
Fore
SplineSet
47 397 m 1,0,-1
 425 397 l 1,1,-1
 425 324 l 1,2,-1
 47 324 l 1,3,-1
 47 397 l 1,0,-1
56 635 m 1,4,-1
 56 710 l 1,5,-1
 340 710 l 2,6,7
 424 710 424 710 490 688.5 c 128,-1,8
 556 667 556 667 602 624 c 128,-1,9
 648 581 648 581 671.5 514.5 c 128,-1,10
 695 448 695 448 695 359 c 256,11,12
 695 270 695 270 671.5 202.5 c 128,-1,13
 648 135 648 135 602 90.5 c 128,-1,14
 556 46 556 46 490 23 c 128,-1,15
 424 0 424 0 340 0 c 2,16,-1
 56 0 l 1,17,-1
 56 75 l 1,18,-1
 66 75 l 2,19,20
 94 75 94 75 115 82 c 128,-1,21
 136 89 136 89 136 111 c 2,22,-1
 136 599 l 2,23,24
 136 621 136 621 115 628 c 128,-1,25
 94 635 94 635 66 635 c 2,26,-1
 56 635 l 1,4,-1
339 636 m 2,27,-1
 235 636 l 1,28,-1
 235 74 l 1,29,-1
 339 74 l 2,30,31
 403 74 403 74 450 91 c 128,-1,32
 497 108 497 108 528 143.5 c 128,-1,33
 559 179 559 179 574 232.5 c 128,-1,34
 589 286 589 286 589 359 c 256,35,36
 589 432 589 432 574 484 c 128,-1,37
 559 536 559 536 528 570 c 128,-1,38
 497 604 497 604 450 620 c 128,-1,39
 403 636 403 636 339 636 c 2,27,-1
EndSplineSet
EndChar

StartChar: Oslash
Encoding: 216 216 224
Width: 765
GlyphClass: 2
Flags: W
AnchorPoint: "Anchor-0" 382 731 basechar 0
LayerCount: 2
Fore
SplineSet
383 658 m 0,0,1
 328 658 328 658 287 640 c 128,-1,2
 246 622 246 622 218.5 584.5 c 128,-1,3
 191 547 191 547 177 489.5 c 128,-1,4
 163 432 163 432 163 355 c 0,5,6
 163 272 163 272 177 213.5 c 128,-1,7
 191 155 191 155 218.5 119.5 c 128,-1,8
 246 84 246 84 287 68 c 128,-1,9
 328 52 328 52 383 52 c 0,10,11
 437 52 437 52 478 70 c 128,-1,12
 519 88 519 88 546.5 125.5 c 128,-1,13
 574 163 574 163 588 220 c 128,-1,14
 602 277 602 277 602 355 c 0,15,16
 602 438 602 438 588 496.5 c 128,-1,17
 574 555 574 555 547 590.5 c 128,-1,18
 520 626 520 626 478.5 642 c 128,-1,19
 437 658 437 658 383 658 c 0,0,1
383 -24 m 256,20,21
 310 -24 310 -24 250 2 c 128,-1,22
 190 28 190 28 147 77.5 c 128,-1,23
 104 127 104 127 80.5 197 c 128,-1,24
 57 267 57 267 57 355 c 0,25,26
 57 448 57 448 80.5 518.5 c 128,-1,27
 104 589 104 589 147.5 637.5 c 128,-1,28
 191 686 191 686 250.5 710 c 128,-1,29
 310 734 310 734 383 734 c 256,30,31
 456 734 456 734 515.5 708.5 c 128,-1,32
 575 683 575 683 618 633.5 c 128,-1,33
 661 584 661 584 684.5 514 c 128,-1,34
 708 444 708 444 708 355 c 0,35,36
 708 263 708 263 684.5 192 c 128,-1,37
 661 121 661 121 618.5 72.5 c 128,-1,38
 576 24 576 24 516 0 c 128,-1,39
 456 -24 456 -24 383 -24 c 256,20,21
0 -23 m 1,40,-1
 678 733 l 1,41,-1
 766 733 l 1,42,-1
 87 -23 l 1,43,-1
 0 -23 l 1,40,-1
EndSplineSet
EndChar

StartChar: Thorn
Encoding: 222 222 226
Width: 678
GlyphClass: 1
Flags: W
LayerCount: 2
Fore
SplineSet
341 710 m 1,0,-1
 56 710 l 1,1,-1
 56 635 l 1,2,-1
 66 635 l 2,3,4
 100 635 100 635 118 628 c 128,-1,5
 136 621 136 621 136 599 c 2,6,-1
 136 111 l 2,7,8
 136 89 136 89 118 82 c 128,-1,9
 100 75 100 75 66 75 c 2,10,-1
 56 75 l 1,11,-1
 56 0 l 1,12,-1
 341 0 l 1,13,-1
 341 74 l 1,14,-1
 322 74 l 2,15,16
 305 74 305 74 289.5 75 c 128,-1,17
 274 76 274 76 262 77 c 128,-1,18
 250 78 250 78 242.5 79.5 c 128,-1,19
 235 81 235 81 235 84 c 2,20,-1
 235 626 l 2,21,22
 235 629 235 629 242.5 630 c 128,-1,23
 250 631 250 631 262 632.5 c 128,-1,24
 274 634 274 634 289.5 634.5 c 128,-1,25
 305 635 305 635 322 635 c 2,26,-1
 341 635 l 1,27,-1
 341 710 l 1,0,-1
622 367 m 256,28,29
 622 430 622 430 593 472 c 128,-1,30
 564 514 564 514 511.5 534.5 c 128,-1,31
 459 555 459 555 387 555 c 2,32,-1
 207 555 l 1,33,-1
 207 481 l 1,34,-1
 385 481 l 2,35,36
 431 481 431 481 460 469 c 128,-1,37
 489 457 489 457 503 431.5 c 128,-1,38
 517 406 517 406 517 366 c 256,39,40
 517 326 517 326 503 299.5 c 128,-1,41
 489 273 489 273 460 260.5 c 128,-1,42
 431 248 431 248 384 248 c 2,43,-1
 209 248 l 1,44,-1
 209 174 l 1,45,-1
 387 174 l 2,46,47
 456 174 456 174 509 196 c 128,-1,48
 562 218 562 218 592 261 c 128,-1,49
 622 304 622 304 622 367 c 256,28,29
EndSplineSet
EndChar

StartChar: Hbar
Encoding: 294 294 228
Width: 809
GlyphClass: 1
Flags: W
LayerCount: 2
Fore
SplineSet
211 373 m 1,0,-1
 596 373 l 1,1,-1
 596 306 l 1,2,-1
 211 306 l 1,3,-1
 211 373 l 1,0,-1
55 0 m 1,4,-1
 55 75 l 1,5,-1
 65 75 l 2,6,7
 93 75 93 75 114 82 c 128,-1,8
 135 89 135 89 135 111 c 2,9,-1
 135 599 l 2,10,11
 135 621 135 621 114 628 c 128,-1,12
 93 635 93 635 65 635 c 2,13,-1
 55 635 l 1,14,-1
 55 710 l 1,15,-1
 322 710 l 1,16,-1
 322 636 l 1,17,-1
 313 636 l 2,18,19
 300 636 300 636 286 635 c 128,-1,20
 272 634 272 634 260.5 633 c 128,-1,21
 249 632 249 632 241.5 630.5 c 128,-1,22
 234 629 234 629 234 626 c 2,23,-1
 234 84 l 2,24,25
 234 81 234 81 241.5 79.5 c 128,-1,26
 249 78 249 78 260.5 77 c 128,-1,27
 272 76 272 76 286.5 75.5 c 128,-1,28
 301 75 301 75 313 75 c 2,29,-1
 322 75 l 1,30,-1
 322 0 l 1,31,-1
 55 0 l 1,4,-1
488 0 m 1,32,-1
 488 74 l 1,33,-1
 496 74 l 2,34,35
 509 74 509 74 523 75 c 128,-1,36
 537 76 537 76 548.5 77 c 128,-1,37
 560 78 560 78 567.5 79.5 c 128,-1,38
 575 81 575 81 575 84 c 2,39,-1
 575 626 l 2,40,41
 575 629 575 629 567.5 630.5 c 128,-1,42
 560 632 560 632 548.5 633 c 128,-1,43
 537 634 537 634 523 634.5 c 128,-1,44
 509 635 509 635 496 635 c 2,45,-1
 488 635 l 1,46,-1
 488 710 l 1,47,-1
 755 710 l 1,48,-1
 755 635 l 1,49,-1
 744 635 l 2,50,51
 717 635 717 635 695.5 628 c 128,-1,52
 674 621 674 621 674 599 c 2,53,-1
 674 111 l 2,54,55
 674 89 674 89 695.5 82 c 128,-1,56
 717 75 717 75 744 75 c 2,57,-1
 755 75 l 1,58,-1
 755 0 l 1,59,-1
 488 0 l 1,32,-1
46 474 m 1,60,-1
 46 540 l 1,61,-1
 764 540 l 1,62,-1
 764 474 l 1,63,-1
 46 474 l 1,60,-1
EndSplineSet
EndChar

StartChar: Ldot
Encoding: 319 319 230
Width: 620
GlyphClass: 1
Flags: W
LayerCount: 2
Fore
SplineSet
334 710 m 1,0,-1
 56 710 l 1,1,-1
 56 635 l 1,2,-1
 66 635 l 2,3,4
 94 635 94 635 115 628 c 128,-1,5
 136 621 136 621 136 599 c 2,6,-1
 136 111 l 2,7,8
 136 89 136 89 115 82 c 128,-1,9
 94 75 94 75 66 75 c 2,10,-1
 56 75 l 1,11,-1
 56 0 l 1,12,-1
 572 0 l 1,13,-1
 572 221 l 1,14,-1
 498 221 l 1,15,-1
 484 119 l 2,16,17
 482 101 482 101 469.5 91 c 128,-1,18
 457 81 457 81 432.5 77.5 c 128,-1,19
 408 74 408 74 368 74 c 2,20,-1
 235 74 l 1,21,-1
 235 599 l 2,22,23
 235 621 235 621 259 628 c 128,-1,24
 283 635 283 635 319 635 c 2,25,-1
 334 635 l 1,26,-1
 334 710 l 1,0,-1
511 344 m 0,27,28
 473 344 473 344 447.5 368 c 128,-1,29
 422 392 422 392 422 430 c 0,30,31
 422 470 422 470 447.5 493 c 128,-1,32
 473 516 473 516 511 516 c 0,33,34
 551 516 551 516 576.5 493 c 128,-1,35
 602 470 602 470 602 430 c 0,36,37
 602 392 602 392 576.5 368 c 128,-1,38
 551 344 551 344 511 344 c 0,27,28
EndSplineSet
Ligature2: "Ligature Substitution lookup 5 subtable" L periodcentered
EndChar

StartChar: Lslash
Encoding: 321 321 231
Width: 620
GlyphClass: 1
Flags: W
LayerCount: 2
Fore
SplineSet
29 182 m 1,0,-1
 484 472 l 1,1,-1
 484 552 l 1,2,-1
 29 263 l 1,3,-1
 29 182 l 1,0,-1
334 710 m 1,4,-1
 56 710 l 1,5,-1
 56 635 l 1,6,-1
 66 635 l 2,7,8
 94 635 94 635 115 628 c 128,-1,9
 136 621 136 621 136 599 c 2,10,-1
 136 111 l 2,11,12
 136 89 136 89 115 82 c 128,-1,13
 94 75 94 75 66 75 c 2,14,-1
 56 75 l 1,15,-1
 56 0 l 1,16,-1
 572 0 l 1,17,-1
 572 235 l 1,18,-1
 498 235 l 1,19,-1
 484 119 l 2,20,21
 482 101 482 101 470 91 c 128,-1,22
 458 81 458 81 433 77.5 c 128,-1,23
 408 74 408 74 368 74 c 2,24,-1
 235 74 l 1,25,-1
 235 599 l 2,26,27
 235 621 235 621 259 628 c 128,-1,28
 283 635 283 635 319 635 c 2,29,-1
 334 635 l 1,30,-1
 334 710 l 1,4,-1
EndSplineSet
EndChar

StartChar: Eng
Encoding: 330 330 232
Width: 786
GlyphClass: 1
Flags: W
LayerCount: 2
Fore
SplineSet
660 -18 m 2,0,1
 660 -81 660 -81 643 -125.5 c 128,-1,2
 626 -170 626 -170 595.5 -197 c 128,-1,3
 565 -224 565 -224 524.5 -237 c 128,-1,4
 484 -250 484 -250 437 -250 c 0,5,6
 398 -250 398 -250 370 -244.5 c 128,-1,7
 342 -239 342 -239 325 -231 c 1,8,-1
 325 -150 l 1,9,10
 338 -155 338 -155 354.5 -160 c 128,-1,11
 371 -165 371 -165 391 -168 c 128,-1,12
 411 -171 411 -171 434 -171 c 0,13,14
 483 -171 483 -171 514 -157 c 128,-1,15
 545 -143 545 -143 561 -107.5 c 128,-1,16
 577 -72 577 -72 577 -8 c 2,17,-1
 577 61 l 1,18,-1
 596 -36 l 1,19,-1
 188 670 l 1,20,-1
 220 671 l 1,21,-1
 220 85 l 2,22,23
 220 82 220 82 230.5 79.5 c 128,-1,24
 241 77 241 77 256.5 76 c 128,-1,25
 272 75 272 75 287 75 c 2,26,-1
 300 75 l 1,27,-1
 300 0 l 1,28,-1
 57 0 l 1,29,-1
 57 75 l 1,30,-1
 67 75 l 2,31,32
 90 75 90 75 105.5 78 c 128,-1,33
 121 81 121 81 129 89 c 128,-1,34
 137 97 137 97 137 111 c 2,35,-1
 137 599 l 2,36,37
 137 614 137 614 129 621.5 c 128,-1,38
 121 629 121 629 105.5 632 c 128,-1,39
 90 635 90 635 67 635 c 2,40,-1
 57 635 l 1,41,-1
 57 710 l 1,42,-1
 271 710 l 1,43,-1
 632 78 l 1,44,-1
 577 80 l 1,45,-1
 577 625 l 2,46,47
 577 629 577 629 566 631 c 128,-1,48
 555 633 555 633 540 634 c 128,-1,49
 525 635 525 635 510 635 c 2,50,-1
 497 635 l 1,51,-1
 497 710 l 1,52,-1
 740 710 l 1,53,-1
 740 635 l 1,54,-1
 730 635 l 2,55,56
 708 635 708 635 692.5 632 c 128,-1,57
 677 629 677 629 668.5 621.5 c 128,-1,58
 660 614 660 614 660 599 c 2,59,-1
 660 -18 l 2,0,1
EndSplineSet
Substitution2: "'ss07' Style Set 7 lookup 67 subtable" Eng.afr
EndChar

StartChar: OE
Encoding: 338 338 233
Width: 1032
GlyphClass: 1
Flags: W
LayerCount: 2
Fore
SplineSet
588 399 m 1,0,1
 632 402 632 402 677 404.5 c 128,-1,2
 722 407 722 407 766 409.5 c 128,-1,3
 810 412 810 412 855 414 c 1,4,-1
 855 316 l 1,5,6
 810 319 810 319 766 321.5 c 128,-1,7
 722 324 722 324 677 326.5 c 128,-1,8
 632 329 632 329 588 331 c 1,9,-1
 588 399 l 1,0,1
408 74 m 2,10,-1
 508 74 l 1,11,-1
 508 636 l 1,12,-1
 408 636 l 2,13,14
 346 636 346 636 300 619.5 c 128,-1,15
 254 603 254 603 224 569 c 128,-1,16
 194 535 194 535 178.5 480.5 c 128,-1,17
 163 426 163 426 163 351 c 256,18,19
 163 276 163 276 178.5 223 c 128,-1,20
 194 170 194 170 224 137 c 128,-1,21
 254 104 254 104 300 89 c 128,-1,22
 346 74 346 74 408 74 c 2,10,-1
406 0 m 2,23,24
 324 0 324 0 259 21.5 c 128,-1,25
 194 43 194 43 149 86 c 128,-1,26
 104 129 104 129 80.5 195.5 c 128,-1,27
 57 262 57 262 57 351 c 256,28,29
 57 440 57 440 80.5 507.5 c 128,-1,30
 104 575 104 575 149 619.5 c 128,-1,31
 194 664 194 664 259 687 c 128,-1,32
 324 710 324 710 406 710 c 2,33,-1
 946 710 l 1,34,-1
 946 510 l 1,35,-1
 874 510 l 1,36,-1
 862 591 l 2,37,38
 860 609 860 609 850.5 618.5 c 128,-1,39
 841 628 841 628 819 632 c 128,-1,40
 797 636 797 636 758 636 c 2,41,-1
 607 636 l 1,42,-1
 607 74 l 1,43,-1
 773 74 l 2,44,45
 802 74 802 74 822 76 c 128,-1,46
 842 78 842 78 853.5 83 c 128,-1,47
 865 88 865 88 870.5 97 c 128,-1,48
 876 106 876 106 877 119 c 2,49,-1
 891 225 l 1,50,-1
 965 225 l 1,51,-1
 965 0 l 1,52,-1
 406 0 l 2,23,24
EndSplineSet
EndChar

StartChar: Tbar
Encoding: 358 358 234
Width: 688
GlyphClass: 1
Flags: W
LayerCount: 2
Fore
SplineSet
126 342 m 1,0,-1
 559 342 l 1,1,-1
 559 269 l 1,2,-1
 126 269 l 1,3,-1
 126 342 l 1,0,-1
294 111 m 2,4,-1
 294 636 l 1,5,-1
 236 636 l 2,6,7
 195 636 195 636 174 630 c 128,-1,8
 153 624 153 624 144.5 611.5 c 128,-1,9
 136 599 136 599 134 578 c 2,10,-1
 123 472 l 1,11,-1
 50 472 l 1,12,-1
 50 710 l 1,13,-1
 638 710 l 1,14,-1
 638 472 l 1,15,-1
 565 472 l 1,16,-1
 554 578 l 2,17,18
 552 599 552 599 543.5 611.5 c 128,-1,19
 535 624 535 624 513.5 630 c 128,-1,20
 492 636 492 636 451 636 c 2,21,-1
 393 636 l 1,22,-1
 393 111 l 2,23,24
 393 89 393 89 417 82 c 128,-1,25
 441 75 441 75 472 75 c 2,26,-1
 490 75 l 1,27,-1
 490 0 l 1,28,-1
 197 0 l 1,29,-1
 197 75 l 1,30,-1
 216 75 l 2,31,32
 247 75 247 75 270.5 82 c 128,-1,33
 294 89 294 89 294 111 c 2,4,-1
EndSplineSet
EndChar

StartChar: Bhook
Encoding: 385 385 235
Width: 743
GlyphClass: 2
Flags: W
AnchorPoint: "Anchor-1" 401 0 basechar 0
AnchorPoint: "Anchor-0" 372 741 basechar 0
LayerCount: 2
Fore
SplineSet
265 407 m 1,0,-1
 432 407 l 2,1,2
 474 407 474 407 500 420.5 c 128,-1,3
 526 434 526 434 538 460.5 c 128,-1,4
 550 487 550 487 550 527 c 0,5,6
 550 563 550 563 538.5 586.5 c 128,-1,7
 527 610 527 610 501.5 623 c 128,-1,8
 476 636 476 636 433 636 c 2,9,-1
 305 636 l 1,10,-1
 305 74 l 1,11,-1
 442 74 l 2,12,13
 490 74 490 74 519.5 89 c 128,-1,14
 549 104 549 104 563 132.5 c 128,-1,15
 577 161 577 161 577 203 c 256,16,17
 577 245 577 245 562 275 c 128,-1,18
 547 305 547 305 515 321 c 128,-1,19
 483 337 483 337 431 337 c 2,20,-1
 265 337 l 1,21,-1
 265 407 l 1,0,-1
186 710 m 2,22,-1
 438 710 l 2,23,24
 489 710 489 710 529 699 c 128,-1,25
 569 688 569 688 596.5 666 c 128,-1,26
 624 644 624 644 638 610.5 c 128,-1,27
 652 577 652 577 652 532 c 0,28,29
 652 488 652 488 632 452 c 128,-1,30
 612 416 612 416 572.5 395.5 c 128,-1,31
 533 375 533 375 474 375 c 1,32,-1
 483 390 l 1,33,-1
 483 353 l 1,34,-1
 474 371 l 1,35,36
 542 368 542 368 587.5 346.5 c 128,-1,37
 633 325 633 325 657 287.5 c 128,-1,38
 681 250 681 250 681 198 c 0,39,40
 681 148 681 148 665.5 110.5 c 128,-1,41
 650 73 650 73 620 49 c 128,-1,42
 590 25 590 25 546.5 12.5 c 128,-1,43
 503 0 503 0 447 0 c 2,44,-1
 125 0 l 1,45,-1
 125 75 l 1,46,-1
 135 75 l 2,47,48
 163 75 163 75 184 82 c 128,-1,49
 205 89 205 89 205 111 c 2,50,-1
 205 636 l 1,51,-1
 188 636 l 2,52,53
 158 636 158 636 138 628 c 128,-1,54
 118 620 118 620 108.5 599.5 c 128,-1,55
 99 579 99 579 99 542 c 0,56,57
 99 520 99 520 101.5 502 c 128,-1,58
 104 484 104 484 108 468 c 1,59,-1
 12 468 l 1,60,61
 9 481 9 481 7.5 499 c 128,-1,62
 6 517 6 517 6 536 c 0,63,64
 6 597 6 597 26 634.5 c 128,-1,65
 46 672 46 672 86 691 c 128,-1,66
 126 710 126 710 186 710 c 2,22,-1
EndSplineSet
EndChar

StartChar: Dhook
Encoding: 394 394 236
Width: 822
GlyphClass: 2
Flags: W
AnchorPoint: "Anchor-1" 411 0 basechar 0
AnchorPoint: "Anchor-0" 386 741 basechar 0
LayerCount: 2
Fore
SplineSet
186 710 m 2,0,-1
 409 710 l 2,1,2
 493 710 493 710 559 688.5 c 128,-1,3
 625 667 625 667 671 624 c 128,-1,4
 717 581 717 581 741 514.5 c 128,-1,5
 765 448 765 448 765 359 c 256,6,7
 765 270 765 270 741 202.5 c 128,-1,8
 717 135 717 135 671 90.5 c 128,-1,9
 625 46 625 46 559 23 c 128,-1,10
 493 0 493 0 409 0 c 2,11,-1
 125 0 l 1,12,-1
 125 75 l 1,13,-1
 135 75 l 2,14,15
 163 75 163 75 184 82 c 128,-1,16
 205 89 205 89 205 111 c 2,17,-1
 205 636 l 1,18,-1
 187 636 l 2,19,20
 158 636 158 636 138.5 628 c 128,-1,21
 119 620 119 620 109 599.5 c 128,-1,22
 99 579 99 579 99 542 c 0,23,24
 99 520 99 520 101.5 502 c 128,-1,25
 104 484 104 484 108 468 c 1,26,-1
 11 468 l 1,27,28
 9 481 9 481 7.5 499.5 c 128,-1,29
 6 518 6 518 6 536 c 0,30,31
 6 597 6 597 26 635 c 128,-1,32
 46 673 46 673 86 691.5 c 128,-1,33
 126 710 126 710 186 710 c 2,0,-1
408 636 m 2,34,-1
 305 636 l 1,35,-1
 305 74 l 1,36,-1
 408 74 l 2,37,38
 472 74 472 74 519 91 c 128,-1,39
 566 108 566 108 597 143.5 c 128,-1,40
 628 179 628 179 643.5 232.5 c 128,-1,41
 659 286 659 286 659 359 c 256,42,43
 659 432 659 432 643.5 484 c 128,-1,44
 628 536 628 536 597 570 c 128,-1,45
 566 604 566 604 519 620 c 128,-1,46
 472 636 472 636 408 636 c 2,34,-1
EndSplineSet
EndChar

StartChar: Schwa
Encoding: 399 399 237
Width: 711
GlyphClass: 1
Flags: W
LayerCount: 2
Fore
SplineSet
342 749 m 0,0,1
 437 749 437 749 507 707 c 128,-1,2
 577 665 577 665 615.5 580.5 c 128,-1,3
 654 496 654 496 654 370 c 0,4,5
 654 279 654 279 632 206 c 128,-1,6
 610 133 610 133 570 82 c 128,-1,7
 530 31 530 31 473.5 3.5 c 128,-1,8
 417 -24 417 -24 347 -24 c 0,9,10
 245 -24 245 -24 182.5 23.5 c 128,-1,11
 120 71 120 71 91 164 c 128,-1,12
 62 257 62 257 59 397 c 1,13,-1
 590 397 l 1,14,-1
 590 320 l 1,15,-1
 144 320 l 1,16,-1
 165 341 l 1,17,18
 168 260 168 260 180 204 c 128,-1,19
 192 148 192 148 213.5 114.5 c 128,-1,20
 235 81 235 81 267.5 66.5 c 128,-1,21
 300 52 300 52 346 52 c 0,22,23
 394 52 394 52 431.5 69 c 128,-1,24
 469 86 469 86 494.5 124 c 128,-1,25
 520 162 520 162 534 222.5 c 128,-1,26
 548 283 548 283 548 369 c 0,27,28
 548 461 548 461 533 520 c 128,-1,29
 518 579 518 579 490.5 613 c 128,-1,30
 463 647 463 647 425.5 660 c 128,-1,31
 388 673 388 673 341 673 c 0,32,33
 288 673 288 673 249 660 c 128,-1,34
 210 647 210 647 180 618.5 c 128,-1,35
 150 590 150 590 121 542 c 1,36,-1
 57 586 l 1,37,38
 86 636 86 636 126 672 c 128,-1,39
 166 708 166 708 220.5 728.5 c 128,-1,40
 275 749 275 749 342 749 c 0,0,1
EndSplineSet
EndChar

StartChar: Khook
Encoding: 408 408 238
Width: 741
GlyphClass: 2
Flags: W
AnchorPoint: "Anchor-1" 378 0 basechar 0
AnchorPoint: "Anchor-0" 422 741 basechar 0
LayerCount: 2
Fore
SplineSet
56 0 m 1,0,-1
 56 75 l 1,1,-1
 66 75 l 2,2,3
 94 75 94 75 115 82 c 128,-1,4
 136 89 136 89 136 111 c 2,5,-1
 136 599 l 2,6,7
 136 621 136 621 115 628 c 128,-1,8
 94 635 94 635 66 635 c 2,9,-1
 56 635 l 1,10,-1
 56 710 l 1,11,-1
 319 710 l 1,12,-1
 319 635 l 1,13,-1
 310 635 l 2,14,15
 299 635 299 635 285.5 634.5 c 128,-1,16
 272 634 272 634 261 633 c 128,-1,17
 250 632 250 632 242.5 630.5 c 128,-1,18
 235 629 235 629 235 626 c 2,19,-1
 235 84 l 2,20,21
 235 81 235 81 242.5 80 c 128,-1,22
 250 79 250 79 261 77.5 c 128,-1,23
 272 76 272 76 285.5 75.5 c 128,-1,24
 299 75 299 75 310 75 c 2,25,-1
 318 75 l 1,26,-1
 318 0 l 1,27,-1
 56 0 l 1,0,-1
658 719 m 0,28,29
 689 719 689 719 709 705 c 128,-1,30
 729 691 729 691 739 664 c 128,-1,31
 749 637 749 637 749 597 c 0,32,33
 749 558 749 558 744 522.5 c 128,-1,34
 739 487 739 487 731 468 c 1,35,-1
 637 468 l 1,36,37
 643 480 643 480 648 500 c 128,-1,38
 653 520 653 520 656 544 c 128,-1,39
 659 568 659 568 659 591 c 0,40,41
 659 611 659 611 652.5 620.5 c 128,-1,42
 646 630 646 630 632 630 c 0,43,44
 622 630 622 630 610.5 623 c 128,-1,45
 599 616 599 616 577.5 593.5 c 128,-1,46
 556 571 556 571 514 525 c 2,47,-1
 357 355 l 1,48,-1
 359 397 l 1,49,-1
 631 96 l 2,50,51
 640 87 640 87 649.5 82.5 c 128,-1,52
 659 78 659 78 670.5 76.5 c 128,-1,53
 682 75 682 75 693 75 c 2,54,-1
 713 75 l 1,55,-1
 713 0 l 1,56,-1
 431 0 l 1,57,-1
 431 75 l 1,58,-1
 440 75 l 2,59,60
 459 75 459 75 476 76 c 128,-1,61
 493 77 493 77 504 79.5 c 128,-1,62
 515 82 515 82 515 85 c 2,63,-1
 281 345 l 1,64,-1
 281 372 l 1,65,-1
 465 572 l 2,66,67
 507 619 507 619 535.5 647.5 c 128,-1,68
 564 676 564 676 584.5 692 c 128,-1,69
 605 708 605 708 622 713.5 c 128,-1,70
 639 719 639 719 658 719 c 0,28,29
EndSplineSet
EndChar

StartChar: Yhook
Encoding: 435 435 239
Width: 712
GlyphClass: 2
Flags: W
AnchorPoint: "Anchor-1" 334 0 basechar 0
AnchorPoint: "Anchor-0" 363 741 basechar 0
LayerCount: 2
Fore
SplineSet
473 574 m 2,0,1
 503 629 503 629 527 660.5 c 128,-1,2
 551 692 551 692 575 705.5 c 128,-1,3
 599 719 599 719 629 719 c 0,4,5
 667 719 667 719 689.5 702 c 128,-1,6
 712 685 712 685 721.5 655.5 c 128,-1,7
 731 626 731 626 731 589 c 0,8,9
 731 555 731 555 726 520.5 c 128,-1,10
 721 486 721 486 714 468 c 1,11,-1
 619 468 l 1,12,13
 624 480 624 480 629 498.5 c 128,-1,14
 634 517 634 517 637.5 539 c 128,-1,15
 641 561 641 561 641 582 c 0,16,17
 641 606 641 606 635 617.5 c 128,-1,18
 629 629 629 629 613 629 c 0,19,20
 602 629 602 629 592 621 c 128,-1,21
 582 613 582 613 569.5 593.5 c 128,-1,22
 557 574 557 574 538 540 c 2,23,-1
 380 262 l 1,24,-1
 387 303 l 1,25,-1
 387 111 l 2,26,27
 387 89 387 89 409.5 82 c 128,-1,28
 432 75 432 75 463 75 c 2,29,-1
 483 75 l 1,30,-1
 483 0 l 1,31,-1
 192 0 l 1,32,-1
 192 75 l 1,33,-1
 211 75 l 2,34,35
 243 75 243 75 265.5 82 c 128,-1,36
 288 89 288 89 288 111 c 2,37,-1
 288 303 l 1,38,-1
 294 263 l 1,39,-1
 100 596 l 2,40,41
 91 612 91 612 81.5 621 c 128,-1,42
 72 630 72 630 62 632.5 c 128,-1,43
 52 635 52 635 38 635 c 2,44,-1
 26 635 l 1,45,-1
 26 710 l 1,46,-1
 264 710 l 1,47,-1
 264 635 l 1,48,-1
 249 635 l 2,49,50
 234 635 234 635 220 633.5 c 128,-1,51
 206 632 206 632 196.5 630 c 128,-1,52
 187 628 187 628 187 624 c 2,53,-1
 370 303 l 1,54,-1
 327 303 l 1,55,-1
 473 574 l 2,0,1
EndSplineSet
EndChar

StartChar: Germandbls
Encoding: 7838 7838 240
Width: 825
GlyphClass: 1
Flags: W
LayerCount: 2
Fore
SplineSet
570 58 m 0,0,1
 611 58 611 58 632 70.5 c 128,-1,2
 653 83 653 83 660.5 111 c 128,-1,3
 668 139 668 139 668 183 c 0,4,5
 668 229 668 229 657 257 c 128,-1,6
 646 285 646 285 622 302.5 c 128,-1,7
 598 320 598 320 558.5 334 c 128,-1,8
 519 348 519 348 463 366 c 1,9,-1
 463 440 l 1,10,-1
 606 673 l 1,11,-1
 634 634 l 1,12,-1
 376 634 l 2,13,14
 334 634 334 634 306 623.5 c 128,-1,15
 278 613 278 613 261.5 592 c 128,-1,16
 245 571 245 571 238 540 c 128,-1,17
 231 509 231 509 231 468 c 2,18,-1
 231 0 l 1,19,-1
 47 0 l 1,20,-1
 47 75 l 1,21,-1
 57 75 l 2,22,23
 91 75 91 75 111 82 c 128,-1,24
 131 89 131 89 131 111 c 2,25,-1
 131 461 l 2,26,27
 131 521 131 521 144 567.5 c 128,-1,28
 157 614 157 614 185 645.5 c 128,-1,29
 213 677 213 677 259 693.5 c 128,-1,30
 305 710 305 710 371 710 c 2,31,-1
 684 710 l 1,32,-1
 684 636 l 1,33,-1
 543 400 l 1,34,-1
 509 421 l 1,35,36
 565 404 565 404 612.5 387.5 c 128,-1,37
 660 371 660 371 695 346.5 c 128,-1,38
 730 322 730 322 749 284 c 128,-1,39
 768 246 768 246 768 186 c 0,40,41
 768 125 768 125 747.5 80 c 128,-1,42
 727 35 727 35 684 10.5 c 128,-1,43
 641 -14 641 -14 575 -14 c 0,44,45
 517 -14 517 -14 480 7.5 c 128,-1,46
 443 29 443 29 424 74.5 c 128,-1,47
 405 120 405 120 401 190 c 1,48,-1
 416 147 l 1,49,-1
 404 0 l 1,50,-1
 332 0 l 1,51,-1
 332 232 l 1,52,-1
 412 232 l 1,53,54
 423 192 423 192 434.5 159.5 c 128,-1,55
 446 127 446 127 462.5 104.5 c 128,-1,56
 479 82 479 82 504.5 70 c 128,-1,57
 530 58 530 58 570 58 c 0,0,1
EndSplineSet
EndChar

StartChar: Delta
Encoding: 916 916 241
Width: 717
GlyphClass: 1
Flags: W
LayerCount: 2
Fore
SplineSet
51 0 m 1,0,-1
 51 86 l 1,1,-1
 304 710 l 1,2,-1
 414 710 l 1,3,-1
 666 86 l 1,4,-1
 666 0 l 1,5,-1
 51 0 l 1,0,-1
579 56 m 1,6,-1
 323 700 l 1,7,-1
 377 696 l 1,8,-1
 120 53 l 1,9,-1
 80 88 l 1,10,-1
 610 88 l 1,11,-1
 579 56 l 1,6,-1
EndSplineSet
EndChar

StartChar: Omega
Encoding: 937 937 242
Width: 822
GlyphClass: 1
Flags: W
LayerCount: 2
Fore
SplineSet
411 735 m 256,0,1
 342 735 342 735 285 718.5 c 128,-1,2
 228 702 228 702 187.5 668.5 c 128,-1,3
 147 635 147 635 125 585 c 128,-1,4
 103 535 103 535 103 468 c 0,5,6
 103 431 103 431 111 395.5 c 128,-1,7
 119 360 119 360 135 323 c 128,-1,8
 151 286 151 286 177 245.5 c 128,-1,9
 203 205 203 205 239 158.5 c 128,-1,10
 275 112 275 112 322 56 c 1,11,-1
 330 71 l 1,12,-1
 233 71 l 2,13,14
 194 71 194 71 173 75.5 c 128,-1,15
 152 80 152 80 143 91 c 128,-1,16
 134 102 134 102 131 120 c 2,17,-1
 118 215 l 1,18,-1
 47 215 l 1,19,-1
 47 0 l 1,20,-1
 367 0 l 1,21,-1
 367 116 l 1,22,23
 329 164 329 164 300 205.5 c 128,-1,24
 271 247 271 247 250.5 286.5 c 128,-1,25
 230 326 230 326 219.5 367.5 c 128,-1,26
 209 409 209 409 209 457 c 0,27,28
 209 533 209 533 231.5 577.5 c 128,-1,29
 254 622 254 622 299 641.5 c 128,-1,30
 344 661 344 661 411 661 c 256,31,32
 478 661 478 661 522.5 641.5 c 128,-1,33
 567 622 567 622 589.5 577.5 c 128,-1,34
 612 533 612 533 612 457 c 0,35,36
 612 409 612 409 601.5 367.5 c 128,-1,37
 591 326 591 326 571 286.5 c 128,-1,38
 551 247 551 247 522 205.5 c 128,-1,39
 493 164 493 164 455 116 c 1,40,-1
 455 0 l 1,41,-1
 775 0 l 1,42,-1
 775 215 l 1,43,-1
 704 215 l 1,44,-1
 691 120 l 2,45,46
 688 102 688 102 678.5 91 c 128,-1,47
 669 80 669 80 647.5 75.5 c 128,-1,48
 626 71 626 71 587 71 c 2,49,-1
 491 71 l 1,50,-1
 500 56 l 1,51,52
 547 111 547 111 583 158 c 128,-1,53
 619 205 619 205 645 245.5 c 128,-1,54
 671 286 671 286 687 323 c 128,-1,55
 703 360 703 360 710.5 395.5 c 128,-1,56
 718 431 718 431 718 468 c 0,57,58
 718 535 718 535 696 585 c 128,-1,59
 674 635 674 635 633.5 668.5 c 128,-1,60
 593 702 593 702 536.5 718.5 c 128,-1,61
 480 735 480 735 411 735 c 256,0,1
EndSplineSet
EndChar

StartChar: Djecyr
Encoding: 1026 1026 244
Width: 833
GlyphClass: 2
Flags: W
AnchorPoint: "Anchor-0" 325 741 basechar 0
LayerCount: 2
Fore
SplineSet
776 199 m 0,0,1
 776 146 776 146 760.5 104 c 128,-1,2
 745 62 745 62 715 33 c 128,-1,3
 685 4 685 4 643 -10 c 128,-1,4
 601 -24 601 -24 547 -24 c 1,5,-1
 547 50 l 1,6,7
 587 50 587 50 615 65 c 128,-1,8
 643 80 643 80 657 113 c 128,-1,9
 671 146 671 146 671 199 c 0,10,11
 671 266 671 266 634.5 306 c 128,-1,12
 598 346 598 346 528 346 c 0,13,14
 475 346 475 346 429.5 334.5 c 128,-1,15
 384 323 384 323 337 296 c 1,16,-1
 337 371 l 1,17,18
 382 395 382 395 429 407.5 c 128,-1,19
 476 420 476 420 531 420 c 0,20,21
 615 420 615 420 669 392.5 c 128,-1,22
 723 365 723 365 749.5 315.5 c 128,-1,23
 776 266 776 266 776 199 c 0,0,1
181 0 m 1,24,-1
 181 75 l 1,25,-1
 200 75 l 2,26,27
 232 75 232 75 255 82 c 128,-1,28
 278 89 278 89 278 111 c 2,29,-1
 278 636 l 1,30,-1
 236 636 l 2,31,32
 195 636 195 636 174 630 c 128,-1,33
 153 624 153 624 144.5 611.5 c 128,-1,34
 136 599 136 599 134 578 c 2,35,-1
 123 472 l 1,36,-1
 50 472 l 1,37,-1
 50 710 l 1,38,-1
 640 710 l 1,39,-1
 640 490 l 1,40,-1
 567 490 l 1,41,-1
 556 578 l 2,42,43
 554 599 554 599 545.5 611.5 c 128,-1,44
 537 624 537 624 515.5 630 c 128,-1,45
 494 636 494 636 453 636 c 2,46,-1
 377 636 l 1,47,-1
 377 84 l 2,48,49
 377 82 377 82 388 79.5 c 128,-1,50
 399 77 399 77 416 76 c 128,-1,51
 433 75 433 75 450 75 c 2,52,-1
 462 75 l 1,53,-1
 462 0 l 1,54,-1
 181 0 l 1,24,-1
EndSplineSet
EndChar

StartChar: Eukrcyr
Encoding: 1028 1028 245
Width: 729
GlyphClass: 2
Flags: W
AnchorPoint: "Anchor-1" 379 0 basechar 0
AnchorPoint: "Anchor-0" 379 741 basechar 0
LayerCount: 2
Fore
SplineSet
133 399 m 1,0,1
 161 400 161 400 189 401.5 c 128,-1,2
 217 403 217 403 245 404 c 128,-1,3
 273 405 273 405 301.5 406.5 c 128,-1,4
 330 408 330 408 358 409 c 128,-1,5
 386 410 386 410 414 411.5 c 128,-1,6
 442 413 442 413 470 414 c 1,7,-1
 470 316 l 1,8,9
 442 317 442 317 414 318.5 c 128,-1,10
 386 320 386 320 358 321 c 128,-1,11
 330 322 330 322 301.5 323.5 c 128,-1,12
 273 325 273 325 245 326 c 128,-1,13
 217 327 217 327 189 328.5 c 128,-1,14
 161 330 161 330 133 331 c 1,15,-1
 133 399 l 1,0,1
371 659 m 0,16,17
 318 659 318 659 279 641 c 128,-1,18
 240 623 240 623 214.5 586.5 c 128,-1,19
 189 550 189 550 176 492.5 c 128,-1,20
 163 435 163 435 163 356 c 256,21,22
 163 277 163 277 176.5 219 c 128,-1,23
 190 161 190 161 216.5 123.5 c 128,-1,24
 243 86 243 86 284 68 c 128,-1,25
 325 50 325 50 382 50 c 0,26,27
 448 50 448 50 491 76.5 c 128,-1,28
 534 103 534 103 560.5 146 c 128,-1,29
 587 189 587 189 603 236 c 1,30,-1
 674 208 l 1,31,32
 652 137 652 137 612 85 c 128,-1,33
 572 33 572 33 513.5 4.5 c 128,-1,34
 455 -24 455 -24 377 -24 c 0,35,36
 304 -24 304 -24 245.5 0 c 128,-1,37
 187 24 187 24 144.5 72 c 128,-1,38
 102 120 102 120 79.5 191 c 128,-1,39
 57 262 57 262 57 356 c 256,40,41
 57 450 57 450 79.5 521 c 128,-1,42
 102 592 102 592 144 639.5 c 128,-1,43
 186 687 186 687 243.5 710.5 c 128,-1,44
 301 734 301 734 370 734 c 0,45,46
 432 734 432 734 480 708 c 128,-1,47
 528 682 528 682 557 630 c 128,-1,48
 586 578 586 578 593 501 c 1,49,-1
 573 542 l 1,50,-1
 586 720 l 1,51,-1
 661 720 l 1,52,-1
 661 464 l 1,53,-1
 579 464 l 1,54,55
 563 524 563 524 535 567.5 c 128,-1,56
 507 611 507 611 466.5 635 c 128,-1,57
 426 659 426 659 371 659 c 0,16,17
EndSplineSet
Substitution2: "'ss01' Style Set 1 lookup 61 subtable" Ieukran.alt1
EndChar

StartChar: Yukrcyr
Encoding: 1031 1031 248
Width: 393
GlyphClass: 2
Flags: W
AnchorPoint: "Anchor-1" 197 0 basechar 0
AnchorPoint: "Anchor-0" 197 914 basechar 0
LayerCount: 2
Fore
SplineSet
168 856 m 256,0,1
 168 820 168 820 148.5 804 c 128,-1,2
 129 788 129 788 98 788 c 0,3,4
 66 788 66 788 47 804 c 128,-1,5
 28 820 28 820 28 856 c 256,6,7
 28 892 28 892 47 908 c 128,-1,8
 66 924 66 924 98 924 c 0,9,10
 129 924 129 924 148.5 908 c 128,-1,11
 168 892 168 892 168 856 c 256,0,1
365 856 m 256,12,13
 365 820 365 820 345.5 804 c 128,-1,14
 326 788 326 788 295 788 c 256,15,16
 264 788 264 788 244.5 804 c 128,-1,17
 225 820 225 820 225 856 c 256,18,19
 225 892 225 892 244.5 908 c 128,-1,20
 264 924 264 924 295 924 c 256,21,22
 326 924 326 924 345.5 908 c 128,-1,23
 365 892 365 892 365 856 c 256,12,13
147 111 m 2,24,-1
 147 599 l 2,25,26
 147 621 147 621 125.5 628 c 128,-1,27
 104 635 104 635 73 635 c 2,28,-1
 55 635 l 1,29,-1
 55 710 l 1,30,-1
 339 710 l 1,31,-1
 339 635 l 1,32,-1
 320 635 l 2,33,34
 289 635 289 635 268 628 c 128,-1,35
 247 621 247 621 247 599 c 2,36,-1
 247 111 l 2,37,38
 247 89 247 89 268 82 c 128,-1,39
 289 75 289 75 320 75 c 2,40,-1
 339 75 l 1,41,-1
 339 0 l 1,42,-1
 55 0 l 1,43,-1
 55 75 l 1,44,-1
 73 75 l 2,45,46
 104 75 104 75 125.5 82 c 128,-1,47
 147 89 147 89 147 111 c 2,24,-1
EndSplineSet
EndChar

StartChar: Ljecyr
Encoding: 1033 1033 250
Width: 1012
GlyphClass: 2
Flags: W
AnchorPoint: "Anchor-0" 405 741 basechar 0
LayerCount: 2
Fore
SplineSet
240 710 m 1,0,-1
 550 710 l 1,1,-1
 550 635 l 1,2,-1
 240 635 l 1,3,-1
 240 710 l 1,0,-1
174 272 m 2,4,-1
 198 599 l 2,5,6
 200 621 200 621 180 628 c 128,-1,7
 160 635 160 635 131 635 c 2,8,-1
 121 635 l 1,9,-1
 121 710 l 1,10,-1
 291 710 l 1,11,-1
 258 268 l 2,12,13
 251 167 251 167 228.5 104.5 c 128,-1,14
 206 42 206 42 168.5 13.5 c 128,-1,15
 131 -15 131 -15 76 -15 c 0,16,17
 56 -15 56 -15 40 -10.5 c 128,-1,18
 24 -6 24 -6 13 0 c 1,19,-1
 13 95 l 1,20,21
 21 90 21 90 36.5 85 c 128,-1,22
 52 80 52 80 73 80 c 0,23,24
 102 80 102 80 122.5 99 c 128,-1,25
 143 118 143 118 156 160.5 c 128,-1,26
 169 203 169 203 174 272 c 2,4,-1
725 0 m 2,27,-1
 415 0 l 1,28,-1
 415 75 l 1,29,-1
 423 75 l 2,30,31
 440 75 440 75 457.5 76 c 128,-1,32
 475 77 475 77 486.5 79 c 128,-1,33
 498 81 498 81 498 85 c 2,34,-1
 498 710 l 1,35,-1
 686 710 l 1,36,-1
 686 635 l 1,37,-1
 664 635 l 2,38,39
 638 635 638 635 617.5 628 c 128,-1,40
 597 621 597 621 597 599 c 2,41,-1
 597 74 l 1,42,-1
 723 74 l 2,43,44
 768 74 768 74 797 89.5 c 128,-1,45
 826 105 826 105 840 136.5 c 128,-1,46
 854 168 854 168 854 215 c 0,47,48
 854 264 854 264 840 296.5 c 128,-1,49
 826 329 826 329 797.5 345 c 128,-1,50
 769 361 769 361 723 361 c 2,51,-1
 551 361 l 1,52,-1
 551 434 l 1,53,-1
 725 434 l 2,54,55
 797 434 797 434 849 411 c 128,-1,56
 901 388 901 388 930 339.5 c 128,-1,57
 959 291 959 291 959 215 c 0,58,59
 959 146 959 146 929 98 c 128,-1,60
 899 50 899 50 846 25 c 128,-1,61
 793 0 793 0 725 0 c 2,27,-1
EndSplineSet
EndChar

StartChar: Njecyr
Encoding: 1034 1034 251
Width: 1049
GlyphClass: 2
Flags: W
AnchorPoint: "Anchor-0" 388 741 basechar 0
LayerCount: 2
Fore
SplineSet
213 426 m 1,0,-1
 561 426 l 1,1,-1
 561 353 l 1,2,-1
 213 353 l 1,3,-1
 213 426 l 1,0,-1
56 0 m 1,4,-1
 56 75 l 1,5,-1
 66 75 l 2,6,7
 94 75 94 75 115 82 c 128,-1,8
 136 89 136 89 136 111 c 2,9,-1
 136 599 l 2,10,11
 136 621 136 621 115 628 c 128,-1,12
 94 635 94 635 66 635 c 2,13,-1
 56 635 l 1,14,-1
 56 710 l 1,15,-1
 323 710 l 1,16,-1
 323 635 l 1,17,-1
 315 635 l 2,18,19
 297 635 297 635 279 634 c 128,-1,20
 261 633 261 633 248 631.5 c 128,-1,21
 235 630 235 630 235 626 c 2,22,-1
 235 84 l 2,23,24
 235 81 235 81 248 79 c 128,-1,25
 261 77 261 77 279 76 c 128,-1,26
 297 75 297 75 315 75 c 2,27,-1
 323 75 l 1,28,-1
 323 0 l 1,29,-1
 56 0 l 1,4,-1
452 0 m 1,30,-1
 452 75 l 1,31,-1
 460 75 l 2,32,33
 477 75 477 75 494 76 c 128,-1,34
 511 77 511 77 523.5 79 c 128,-1,35
 536 81 536 81 536 84 c 2,36,-1
 536 626 l 2,37,38
 536 630 536 630 523.5 631.5 c 128,-1,39
 511 633 511 633 494 634 c 128,-1,40
 477 635 477 635 461 635 c 2,41,-1
 452 635 l 1,42,-1
 452 710 l 1,43,-1
 731 710 l 1,44,-1
 731 635 l 1,45,-1
 709 635 l 2,46,47
 690 635 690 635 673 632 c 128,-1,48
 656 629 656 629 645.5 621.5 c 128,-1,49
 635 614 635 614 635 599 c 2,50,-1
 635 74 l 1,51,-1
 760 74 l 2,52,53
 803 74 803 74 832.5 89 c 128,-1,54
 862 104 862 104 877 134.5 c 128,-1,55
 892 165 892 165 892 211 c 0,56,57
 892 258 892 258 877 289.5 c 128,-1,58
 862 321 862 321 833 337 c 128,-1,59
 804 353 804 353 760 353 c 2,60,-1
 598 353 l 1,61,-1
 598 426 l 1,62,-1
 762 426 l 2,63,64
 834 426 834 426 886.5 402.5 c 128,-1,65
 939 379 939 379 968 331 c 128,-1,66
 997 283 997 283 997 211 c 0,67,68
 997 143 997 143 967 96 c 128,-1,69
 937 49 937 49 884 24.5 c 128,-1,70
 831 0 831 0 762 0 c 2,71,-1
 452 0 l 1,30,-1
EndSplineSet
EndChar

StartChar: Tshecyr
Encoding: 1035 1035 252
Width: 879
GlyphClass: 2
Flags: W
AnchorPoint: "Anchor-0" 317 741 basechar 0
LayerCount: 2
Fore
SplineSet
534 420 m 0,0,1
 619 420 619 420 669 397.5 c 128,-1,2
 719 375 719 375 741 328.5 c 128,-1,3
 763 282 763 282 763 209 c 2,4,-1
 763 111 l 2,5,6
 763 89 763 89 783 82 c 128,-1,7
 803 75 803 75 833 75 c 2,8,-1
 843 75 l 1,9,-1
 843 0 l 1,10,-1
 664 0 l 1,11,-1
 664 204 l 2,12,13
 664 258 664 258 648 288.5 c 128,-1,14
 632 319 632 319 602.5 332 c 128,-1,15
 573 345 573 345 532 345 c 0,16,17
 484 345 484 345 433.5 334.5 c 128,-1,18
 383 324 383 324 337 296 c 1,19,-1
 337 372 l 1,20,21
 384 397 384 397 434.5 408.5 c 128,-1,22
 485 420 485 420 534 420 c 0,0,1
181 0 m 1,23,-1
 181 75 l 1,24,-1
 200 75 l 2,25,26
 232 75 232 75 255 82 c 128,-1,27
 278 89 278 89 278 111 c 2,28,-1
 278 636 l 1,29,-1
 236 636 l 2,30,31
 195 636 195 636 174 630 c 128,-1,32
 153 624 153 624 144.5 611.5 c 128,-1,33
 136 599 136 599 134 578 c 2,34,-1
 123 472 l 1,35,-1
 50 472 l 1,36,-1
 50 710 l 1,37,-1
 640 710 l 1,38,-1
 640 490 l 1,39,-1
 567 490 l 1,40,-1
 556 578 l 2,41,42
 554 599 554 599 545.5 611.5 c 128,-1,43
 537 624 537 624 515.5 630 c 128,-1,44
 494 636 494 636 453 636 c 2,45,-1
 377 636 l 1,46,-1
 377 85 l 2,47,48
 377 82 377 82 389 79.5 c 128,-1,49
 401 77 401 77 419 76 c 128,-1,50
 437 75 437 75 456 75 c 2,51,-1
 474 75 l 1,52,-1
 474 0 l 1,53,-1
 181 0 l 1,23,-1
EndSplineSet
EndChar

StartChar: Dzhecyr
Encoding: 1039 1039 253
Width: 803
GlyphClass: 2
Flags: W
AnchorPoint: "Anchor-0" 402 741 basechar 0
LayerCount: 2
Fore
SplineSet
56 710 m 1,0,-1
 323 710 l 1,1,-1
 323 635 l 1,2,-1
 314 635 l 2,3,4
 297 635 297 635 279 634 c 128,-1,5
 261 633 261 633 248 631.5 c 128,-1,6
 235 630 235 630 235 626 c 2,7,-1
 235 0 l 1,8,-1
 56 0 l 1,9,-1
 56 75 l 1,10,-1
 66 75 l 2,11,12
 94 75 94 75 115 82 c 128,-1,13
 136 89 136 89 136 111 c 2,14,-1
 136 599 l 2,15,16
 136 621 136 621 115 628 c 128,-1,17
 94 635 94 635 66 635 c 2,18,-1
 56 635 l 1,19,-1
 56 710 l 1,0,-1
480 710 m 1,20,-1
 747 710 l 1,21,-1
 747 635 l 1,22,-1
 736 635 l 2,23,24
 709 635 709 635 687.5 628 c 128,-1,25
 666 621 666 621 666 599 c 2,26,-1
 666 111 l 2,27,28
 666 89 666 89 687.5 82 c 128,-1,29
 709 75 709 75 736 75 c 2,30,-1
 747 75 l 1,31,-1
 747 0 l 1,32,-1
 567 0 l 1,33,-1
 567 626 l 2,34,35
 567 630 567 630 554.5 631.5 c 128,-1,36
 542 633 542 633 523.5 634 c 128,-1,37
 505 635 505 635 488 635 c 2,38,-1
 480 635 l 1,39,-1
 480 710 l 1,20,-1
188 0 m 1,40,-1
 188 75 l 1,41,-1
 614 75 l 1,42,-1
 614 0 l 1,43,-1
 573 0 l 2,44,45
 529 0 529 0 502.5 -5.5 c 128,-1,46
 476 -11 476 -11 463.5 -22.5 c 128,-1,47
 451 -34 451 -34 449 -54 c 2,48,-1
 437 -185 l 1,49,-1
 366 -185 l 1,50,-1
 353 -54 l 2,51,52
 352 -35 352 -35 339.5 -23 c 128,-1,53
 327 -11 327 -11 300.5 -5.5 c 128,-1,54
 274 0 274 0 229 0 c 2,55,-1
 188 0 l 1,40,-1
EndSplineSet
EndChar

StartChar: Becyr
Encoding: 1041 1041 257
Width: 659
GlyphClass: 2
Flags: W
AnchorPoint: "Anchor-0" 336 741 basechar 0
LayerCount: 2
Fore
SplineSet
56 710 m 1,0,-1
 559 710 l 1,1,-1
 559 507 l 1,2,-1
 486 507 l 1,3,-1
 475 591 l 2,4,5
 473 609 473 609 460.5 618.5 c 128,-1,6
 448 628 448 628 423.5 632 c 128,-1,7
 399 636 399 636 360 636 c 2,8,-1
 236 636 l 1,9,-1
 236 74 l 1,10,-1
 365 74 l 2,11,12
 410 74 410 74 439 88.5 c 128,-1,13
 468 103 468 103 482 133.5 c 128,-1,14
 496 164 496 164 496 210 c 0,15,16
 496 257 496 257 482 288 c 128,-1,17
 468 319 468 319 439 335 c 128,-1,18
 410 351 410 351 365 351 c 2,19,-1
 187 351 l 1,20,-1
 187 424 l 1,21,-1
 367 424 l 2,22,23
 439 424 439 424 491 401.5 c 128,-1,24
 543 379 543 379 572 331.5 c 128,-1,25
 601 284 601 284 601 210 c 0,26,27
 601 142 601 142 571 95 c 128,-1,28
 541 48 541 48 488 24 c 128,-1,29
 435 0 435 0 367 0 c 2,30,-1
 56 0 l 1,31,-1
 56 75 l 1,32,-1
 66 75 l 2,33,34
 94 75 94 75 115 82 c 128,-1,35
 136 89 136 89 136 111 c 2,36,-1
 136 601 l 2,37,38
 136 621 136 621 115 628 c 128,-1,39
 94 635 94 635 66 635 c 2,40,-1
 56 635 l 1,41,-1
 56 710 l 1,0,-1
EndSplineSet
EndChar

StartChar: Gecyr
Encoding: 1043 1043 259
Width: 623
GlyphClass: 2
Flags: W
AnchorPoint: "Anchor-0" 318 741 basechar 0
LayerCount: 2
Fore
SplineSet
235 636 m 1,0,-1
 235 111 l 2,1,2
 235 97 235 97 246 89 c 128,-1,3
 257 81 257 81 275.5 78 c 128,-1,4
 294 75 294 75 318 75 c 2,5,-1
 341 75 l 1,6,-1
 341 0 l 1,7,-1
 56 0 l 1,8,-1
 56 75 l 1,9,-1
 66 75 l 2,10,11
 94 75 94 75 115 82 c 128,-1,12
 136 89 136 89 136 111 c 2,13,-1
 136 599 l 2,14,15
 136 621 136 621 115 628 c 128,-1,16
 94 635 94 635 66 635 c 2,17,-1
 56 635 l 1,18,-1
 56 710 l 1,19,-1
 573 710 l 1,20,-1
 573 472 l 1,21,-1
 501 472 l 1,22,-1
 489 578 l 2,23,24
 487 601 487 601 476.5 613.5 c 128,-1,25
 466 626 466 626 442.5 631 c 128,-1,26
 419 636 419 636 379 636 c 2,27,-1
 235 636 l 1,0,-1
EndSplineSet
EndChar

StartChar: Decyr
Encoding: 1044 1044 261
Width: 785
GlyphClass: 2
Flags: W
AnchorPoint: "Anchor-0" 424 741 basechar 0
LayerCount: 2
Fore
SplineSet
237 710 m 1,0,-1
 595 710 l 1,1,-1
 595 635 l 1,2,-1
 237 635 l 1,3,-1
 237 710 l 1,0,-1
649 5 m 1,4,-1
 550 5 l 1,5,-1
 550 710 l 1,6,-1
 729 710 l 1,7,-1
 729 635 l 1,8,-1
 719 635 l 2,9,10
 689 635 689 635 669 628 c 128,-1,11
 649 621 649 621 649 599 c 2,12,-1
 649 5 l 1,4,-1
655 -54 m 2,13,14
 653 -35 653 -35 640.5 -23 c 128,-1,15
 628 -11 628 -11 602 -5.5 c 128,-1,16
 576 0 576 0 532 0 c 2,17,-1
 236 0 l 2,18,19
 193 0 193 0 166.5 -5.5 c 128,-1,20
 140 -11 140 -11 128 -23 c 128,-1,21
 116 -35 116 -35 114 -53 c 2,22,-1
 101 -185 l 1,23,-1
 29 -185 l 1,24,-1
 29 75 l 1,25,-1
 739 75 l 1,26,-1
 739 -185 l 1,27,-1
 667 -185 l 1,28,-1
 655 -54 l 2,13,14
172 31 m 1,29,-1
 74 31 l 1,30,31
 95 57 95 57 111 87 c 128,-1,32
 127 117 127 117 139 155.5 c 128,-1,33
 151 194 151 194 159.5 246 c 128,-1,34
 168 298 168 298 174 370 c 2,35,-1
 194 599 l 2,36,37
 196 621 196 621 176 628 c 128,-1,38
 156 635 156 635 127 635 c 2,39,-1
 117 635 l 1,40,-1
 117 710 l 1,41,-1
 288 710 l 1,42,-1
 259 368 l 2,43,44
 252 275 252 275 240.5 212.5 c 128,-1,45
 229 150 229 150 212 106.5 c 128,-1,46
 195 63 195 63 172 31 c 1,29,-1
EndSplineSet
Substitution2: "'locl' Localized Forms in Cyrillic lookup 12 subtable" De.bgr
EndChar

StartChar: Zhecyr
Encoding: 1046 1046 266
Width: 1063
GlyphClass: 2
Flags: W
AnchorPoint: "Anchor-1" 521 0 basechar 0
AnchorPoint: "Anchor-0" 521 741 basechar 0
LayerCount: 2
Fore
SplineSet
759 0 m 1,0,-1
 759 75 l 1,1,-1
 767 75 l 2,2,3
 786 75 786 75 803 76 c 128,-1,4
 820 77 820 77 831.5 79.5 c 128,-1,5
 843 82 843 82 843 85 c 2,6,-1
 623 345 l 1,7,-1
 623 372 l 1,8,-1
 853 625 l 2,9,10
 853 628 853 628 842 630 c 128,-1,11
 831 632 831 632 814.5 633.5 c 128,-1,12
 798 635 798 635 780 635 c 2,13,-1
 772 635 l 1,14,-1
 772 710 l 1,15,-1
 1013 710 l 1,16,-1
 1013 635 l 1,17,-1
 987 635 l 2,18,19
 976 635 976 635 966.5 633 c 128,-1,20
 957 631 957 631 947 624.5 c 128,-1,21
 937 618 937 618 927 606 c 2,22,-1
 698 356 l 1,23,-1
 700 397 l 1,24,-1
 956 95 l 2,25,26
 964 86 964 86 973.5 81.5 c 128,-1,27
 983 77 983 77 994.5 76 c 128,-1,28
 1006 75 1006 75 1019 75 c 2,29,-1
 1038 75 l 1,30,-1
 1038 0 l 1,31,-1
 759 0 l 1,0,-1
300 0 m 1,32,-1
 25 0 l 1,33,-1
 25 75 l 1,34,-1
 44 75 l 2,35,36
 57 75 57 75 68.5 76 c 128,-1,37
 80 77 80 77 89.5 81.5 c 128,-1,38
 99 86 99 86 106 95 c 2,39,-1
 362 397 l 1,40,-1
 359 355 l 1,41,-1
 130 607 l 2,42,43
 120 618 120 618 110 624.5 c 128,-1,44
 100 631 100 631 90.5 633 c 128,-1,45
 81 635 81 635 70 635 c 2,46,-1
 43 635 l 1,47,-1
 43 710 l 1,48,-1
 287 710 l 1,49,-1
 287 635 l 1,50,-1
 278 635 l 2,51,52
 261 635 261 635 244.5 633.5 c 128,-1,53
 228 632 228 632 217 630 c 128,-1,54
 206 628 206 628 206 624 c 2,55,-1
 436 372 l 1,56,-1
 436 345 l 1,57,-1
 216 84 l 2,58,59
 216 82 216 82 227 79.5 c 128,-1,60
 238 77 238 77 256 76 c 128,-1,61
 274 75 274 75 292 75 c 2,62,-1
 300 75 l 1,63,-1
 300 0 l 1,32,-1
398 0 m 1,64,-1
 398 74 l 1,65,-1
 406 74 l 2,66,67
 418 74 418 74 430.5 75 c 128,-1,68
 443 76 443 76 454.5 77 c 128,-1,69
 466 78 466 78 473 79.5 c 128,-1,70
 480 81 480 81 480 84 c 2,71,-1
 480 626 l 2,72,73
 480 629 480 629 473 630.5 c 128,-1,74
 466 632 466 632 454.5 633 c 128,-1,75
 443 634 443 634 430 634.5 c 128,-1,76
 417 635 417 635 405 635 c 2,77,-1
 397 635 l 1,78,-1
 397 710 l 1,79,-1
 662 710 l 1,80,-1
 662 636 l 1,81,-1
 654 636 l 2,82,83
 642 636 642 636 628.5 635 c 128,-1,84
 615 634 615 634 604 633 c 128,-1,85
 593 632 593 632 586 630.5 c 128,-1,86
 579 629 579 629 579 626 c 2,87,-1
 579 84 l 2,88,89
 579 81 579 81 585.5 79.5 c 128,-1,90
 592 78 592 78 603.5 77 c 128,-1,91
 615 76 615 76 628 75.5 c 128,-1,92
 641 75 641 75 653 75 c 2,93,-1
 661 75 l 1,94,-1
 661 0 l 1,95,-1
 398 0 l 1,64,-1
EndSplineSet
EndChar

StartChar: Zecyr
Encoding: 1047 1047 269
Width: 681
GlyphClass: 2
Flags: W
AnchorPoint: "Anchor-1" 368 0 basechar 0
AnchorPoint: "Anchor-0" 368 741 basechar 0
LayerCount: 2
Fore
SplineSet
385 -24 m 0,0,1
 315 -24 315 -24 265 0.5 c 128,-1,2
 215 25 215 25 186.5 75 c 128,-1,3
 158 125 158 125 151 201 c 1,4,-1
 171 164 l 1,5,-1
 158 -10 l 1,6,-1
 83 -10 l 1,7,-1
 83 238 l 1,8,-1
 165 238 l 1,9,10
 182 181 182 181 210.5 139 c 128,-1,11
 239 97 239 97 281.5 74.5 c 128,-1,12
 324 52 324 52 382 52 c 0,13,14
 429 52 429 52 458 67.5 c 128,-1,15
 487 83 487 83 501 114 c 128,-1,16
 515 145 515 145 515 189 c 0,17,18
 515 227 515 227 501.5 257.5 c 128,-1,19
 488 288 488 288 455.5 305 c 128,-1,20
 423 322 423 322 366 320 c 0,21,22
 351 319 351 319 336 318.5 c 128,-1,23
 321 318 321 318 306 317.5 c 128,-1,24
 291 317 291 317 277 316 c 1,25,-1
 277 413 l 1,26,27
 292 413 292 413 307 412.5 c 128,-1,28
 322 412 322 412 336.5 411 c 128,-1,29
 351 410 351 410 367 410 c 0,30,31
 413 408 413 408 441 424.5 c 128,-1,32
 469 441 469 441 481.5 471 c 128,-1,33
 494 501 494 501 494 540 c 0,34,35
 494 575 494 575 483 602 c 128,-1,36
 472 629 472 629 447.5 644.5 c 128,-1,37
 423 660 423 660 382 660 c 0,38,39
 329 660 329 660 288.5 638.5 c 128,-1,40
 248 617 248 617 220 575.5 c 128,-1,41
 192 534 192 534 175 472 c 1,42,-1
 93 472 l 1,43,-1
 93 720 l 1,44,-1
 168 720 l 1,45,-1
 181 546 l 1,46,-1
 161 509 l 1,47,48
 166 565 166 565 183.5 607.5 c 128,-1,49
 201 650 201 650 230 678 c 128,-1,50
 259 706 259 706 297.5 720 c 128,-1,51
 336 734 336 734 383 734 c 0,52,53
 455 734 455 734 502.5 709.5 c 128,-1,54
 550 685 550 685 573.5 643 c 128,-1,55
 597 601 597 601 597 547 c 0,56,57
 597 496 597 496 572.5 457 c 128,-1,58
 548 418 548 418 507.5 395 c 128,-1,59
 467 372 467 372 418 370 c 1,60,-1
 426 388 l 1,61,-1
 426 344 l 1,62,-1
 418 367 l 1,63,64
 479 365 479 365 524 342 c 128,-1,65
 569 319 569 319 594 279.5 c 128,-1,66
 619 240 619 240 619 186 c 0,67,68
 619 139 619 139 603.5 100.5 c 128,-1,69
 588 62 588 62 558 34 c 128,-1,70
 528 6 528 6 484.5 -9 c 128,-1,71
 441 -24 441 -24 385 -24 c 0,0,1
EndSplineSet
EndChar

StartChar: Icyr
Encoding: 1048 1048 270
Width: 827
GlyphClass: 2
Flags: W
AnchorPoint: "Anchor-0" 414 741 basechar 0
LayerCount: 2
Fore
SplineSet
188 184 m 1,0,-1
 592 589 l 1,1,-1
 639 536 l 1,2,-1
 235 132 l 1,3,-1
 188 184 l 1,0,-1
56 0 m 1,4,-1
 56 75 l 1,5,-1
 66 75 l 2,6,7
 94 75 94 75 115 82 c 128,-1,8
 136 89 136 89 136 111 c 2,9,-1
 136 599 l 2,10,11
 136 621 136 621 115 628 c 128,-1,12
 94 635 94 635 66 635 c 2,13,-1
 56 635 l 1,14,-1
 56 710 l 1,15,-1
 323 710 l 1,16,-1
 323 635 l 1,17,-1
 315 635 l 2,18,19
 297 635 297 635 279 634 c 128,-1,20
 261 633 261 633 248 631.5 c 128,-1,21
 235 630 235 630 235 626 c 2,22,-1
 235 84 l 2,23,24
 235 81 235 81 248 79 c 128,-1,25
 261 77 261 77 279 76 c 128,-1,26
 297 75 297 75 315 75 c 2,27,-1
 323 75 l 1,28,-1
 323 0 l 1,29,-1
 56 0 l 1,4,-1
504 0 m 1,30,-1
 504 75 l 1,31,-1
 512 75 l 2,32,33
 530 75 530 75 548 76 c 128,-1,34
 566 77 566 77 579 79 c 128,-1,35
 592 81 592 81 592 84 c 2,36,-1
 592 626 l 2,37,38
 592 630 592 630 579 631.5 c 128,-1,39
 566 633 566 633 548 634 c 128,-1,40
 530 635 530 635 512 635 c 2,41,-1
 504 635 l 1,42,-1
 504 710 l 1,43,-1
 771 710 l 1,44,-1
 771 635 l 1,45,-1
 761 635 l 2,46,47
 733 635 733 635 712 628 c 128,-1,48
 691 621 691 621 691 599 c 2,49,-1
 691 111 l 2,50,51
 691 89 691 89 712 82 c 128,-1,52
 733 75 733 75 761 75 c 2,53,-1
 771 75 l 1,54,-1
 771 0 l 1,55,-1
 504 0 l 1,30,-1
EndSplineSet
EndChar

StartChar: Elcyr
Encoding: 1051 1051 276
Width: 771
GlyphClass: 2
Flags: W
AnchorPoint: "Anchor-0" 424 741 basechar 0
LayerCount: 2
Fore
SplineSet
240 710 m 1,0,-1
 587 710 l 1,1,-1
 587 635 l 1,2,-1
 240 635 l 1,3,-1
 240 710 l 1,0,-1
448 0 m 1,4,-1
 448 75 l 1,5,-1
 457 75 l 2,6,7
 474 75 474 75 492 76 c 128,-1,8
 510 77 510 77 523 79 c 128,-1,9
 536 81 536 81 536 84 c 2,10,-1
 536 710 l 1,11,-1
 715 710 l 1,12,-1
 715 635 l 1,13,-1
 705 635 l 2,14,15
 677 635 677 635 656 628 c 128,-1,16
 635 621 635 621 635 599 c 2,17,-1
 635 111 l 2,18,19
 635 89 635 89 656 82 c 128,-1,20
 677 75 677 75 705 75 c 2,21,-1
 715 75 l 1,22,-1
 715 0 l 1,23,-1
 448 0 l 1,4,-1
174 272 m 2,24,-1
 198 599 l 2,25,26
 200 621 200 621 180 628 c 128,-1,27
 160 635 160 635 132 635 c 2,28,-1
 121 635 l 1,29,-1
 121 710 l 1,30,-1
 291 710 l 1,31,-1
 258 268 l 2,32,33
 251 167 251 167 228.5 104.5 c 128,-1,34
 206 42 206 42 168.5 13.5 c 128,-1,35
 131 -15 131 -15 76 -15 c 0,36,37
 56 -15 56 -15 40 -10.5 c 128,-1,38
 24 -6 24 -6 13 0 c 1,39,-1
 13 95 l 1,40,41
 21 90 21 90 36.5 85 c 128,-1,42
 52 80 52 80 73 80 c 0,43,44
 102 80 102 80 122.5 99 c 128,-1,45
 143 118 143 118 156 160.5 c 128,-1,46
 169 203 169 203 174 272 c 2,24,-1
EndSplineSet
Substitution2: "'locl' Localized Forms in Cyrillic lookup 12 subtable" El.bgr
EndChar

StartChar: Pecyr
Encoding: 1055 1055 281
Width: 803
GlyphClass: 2
Flags: W
AnchorPoint: "Anchor-0" 402 741 basechar 0
LayerCount: 2
Fore
SplineSet
196 710 m 1,0,-1
 606 710 l 1,1,-1
 606 635 l 1,2,-1
 196 635 l 1,3,-1
 196 710 l 1,0,-1
56 0 m 1,4,-1
 56 75 l 1,5,-1
 66 75 l 2,6,7
 94 75 94 75 115 82 c 128,-1,8
 136 89 136 89 136 111 c 2,9,-1
 136 599 l 2,10,11
 136 621 136 621 115 628 c 128,-1,12
 94 635 94 635 66 635 c 2,13,-1
 56 635 l 1,14,-1
 56 710 l 1,15,-1
 235 710 l 1,16,-1
 235 84 l 2,17,18
 235 81 235 81 248 79 c 128,-1,19
 261 77 261 77 279 76 c 128,-1,20
 297 75 297 75 315 75 c 2,21,-1
 323 75 l 1,22,-1
 323 0 l 1,23,-1
 56 0 l 1,4,-1
480 0 m 1,24,-1
 480 75 l 1,25,-1
 488 75 l 2,26,27
 505 75 505 75 523.5 76 c 128,-1,28
 542 77 542 77 554.5 79 c 128,-1,29
 567 81 567 81 567 84 c 2,30,-1
 567 710 l 1,31,-1
 747 710 l 1,32,-1
 747 635 l 1,33,-1
 736 635 l 2,34,35
 709 635 709 635 687.5 628 c 128,-1,36
 666 621 666 621 666 599 c 2,37,-1
 666 111 l 2,38,39
 666 89 666 89 687.5 82 c 128,-1,40
 709 75 709 75 736 75 c 2,41,-1
 747 75 l 1,42,-1
 747 0 l 1,43,-1
 480 0 l 1,24,-1
EndSplineSet
EndChar

StartChar: Ucyr
Encoding: 1059 1059 285
Width: 668
GlyphClass: 2
Flags: W
AnchorPoint: "Anchor-1" 220 0 basechar 0
AnchorPoint: "Anchor-0" 340 741 basechar 0
LayerCount: 2
Fore
SplineSet
395 200 m 2,0,1
 368 140 368 140 345 98.5 c 128,-1,2
 322 57 322 57 299.5 31.5 c 128,-1,3
 277 6 277 6 252 -6 c 128,-1,4
 227 -18 227 -18 195 -18 c 0,5,6
 172 -18 172 -18 155.5 -13.5 c 128,-1,7
 139 -9 139 -9 128 -2 c 1,8,-1
 128 92 l 1,9,10
 136 87 136 87 153.5 81 c 128,-1,11
 171 75 171 75 191 75 c 0,12,13
 219 75 219 75 242 88 c 128,-1,14
 265 101 265 101 286 133 c 128,-1,15
 307 165 307 165 331 222 c 2,16,-1
 495 613 l 2,17,18
 495 619 495 619 486 624 c 128,-1,19
 477 629 477 629 464 632 c 128,-1,20
 451 635 451 635 439 635 c 2,21,-1
 429 635 l 1,22,-1
 429 710 l 1,23,-1
 642 710 l 1,24,-1
 642 635 l 1,25,-1
 630 635 l 2,26,27
 615 635 615 635 603.5 630 c 128,-1,28
 592 625 592 625 582 614 c 128,-1,29
 572 603 572 603 565 586 c 2,30,-1
 395 200 l 2,0,1
364 220 m 1,31,-1
 306 134 l 1,32,-1
 99 596 l 2,33,34
 92 613 92 613 83.5 621 c 128,-1,35
 75 629 75 629 64 632 c 128,-1,36
 53 635 53 635 38 635 c 2,37,-1
 26 635 l 1,38,-1
 26 710 l 1,39,-1
 264 710 l 1,40,-1
 264 635 l 1,41,-1
 249 635 l 2,42,43
 235 635 235 635 220 633.5 c 128,-1,44
 205 632 205 632 195 630.5 c 128,-1,45
 185 629 185 629 185 625 c 2,46,-1
 364 220 l 1,31,-1
EndSplineSet
EndChar

StartChar: Efcyr
Encoding: 1060 1060 290
Width: 869
GlyphClass: 2
Flags: W
AnchorPoint: "Anchor-1" 435 0 basechar 0
AnchorPoint: "Anchor-0" 435 741 basechar 0
LayerCount: 2
Fore
SplineSet
388 86 m 2,0,-1
 388 624 l 2,1,2
 388 646 388 646 366 653 c 128,-1,3
 344 660 344 660 311 660 c 2,4,-1
 292 660 l 1,5,-1
 292 735 l 1,6,-1
 576 735 l 1,7,-1
 576 660 l 1,8,-1
 558 660 l 2,9,10
 524 660 524 660 502 653 c 128,-1,11
 480 646 480 646 480 624 c 2,12,-1
 480 86 l 2,13,14
 480 64 480 64 502 57 c 128,-1,15
 524 50 524 50 558 50 c 2,16,-1
 576 50 l 1,17,-1
 576 -25 l 1,18,-1
 292 -25 l 1,19,-1
 292 50 l 1,20,-1
 311 50 l 2,21,22
 344 50 344 50 366 57 c 128,-1,23
 388 64 388 64 388 86 c 2,0,-1
398 611 m 1,24,-1
 398 535 l 1,25,26
 310 535 310 535 256 515.5 c 128,-1,27
 202 496 202 496 178 457 c 128,-1,28
 154 418 154 418 154 360 c 0,29,30
 154 303 154 303 178 263.5 c 128,-1,31
 202 224 202 224 256 204.5 c 128,-1,32
 310 185 310 185 398 185 c 1,33,-1
 398 109 l 1,34,35
 281 109 281 109 203 139.5 c 128,-1,36
 125 170 125 170 86.5 226.5 c 128,-1,37
 48 283 48 283 48 360 c 0,38,39
 48 438 48 438 87 494 c 128,-1,40
 126 550 126 550 204 580.5 c 128,-1,41
 282 611 282 611 398 611 c 1,24,-1
471 109 m 1,42,-1
 471 185 l 1,43,44
 560 185 560 185 613.5 204.5 c 128,-1,45
 667 224 667 224 690.5 263.5 c 128,-1,46
 714 303 714 303 714 360 c 0,47,48
 714 418 714 418 690.5 457 c 128,-1,49
 667 496 667 496 613.5 515.5 c 128,-1,50
 560 535 560 535 471 535 c 1,51,-1
 471 611 l 1,52,53
 588 611 588 611 666 580.5 c 128,-1,54
 744 550 744 550 782.5 494 c 128,-1,55
 821 438 821 438 821 360 c 0,56,57
 821 283 821 283 782 226.5 c 128,-1,58
 743 170 743 170 665 139.5 c 128,-1,59
 587 109 587 109 471 109 c 1,42,-1
EndSplineSet
EndChar

StartChar: Tsecyr
Encoding: 1062 1062 292
Width: 803
GlyphClass: 2
Flags: W
AnchorPoint: "Anchor-0" 402 741 basechar 0
LayerCount: 2
Fore
SplineSet
201 0 m 1,0,-1
 201 75 l 1,1,-1
 601 75 l 1,2,-1
 601 0 l 1,3,-1
 201 0 l 1,0,-1
56 710 m 1,4,-1
 323 710 l 1,5,-1
 323 635 l 1,6,-1
 314 635 l 2,7,8
 297 635 297 635 279 634 c 128,-1,9
 261 633 261 633 248 631.5 c 128,-1,10
 235 630 235 630 235 626 c 2,11,-1
 235 0 l 1,12,-1
 56 0 l 1,13,-1
 56 75 l 1,14,-1
 66 75 l 2,15,16
 94 75 94 75 115 82 c 128,-1,17
 136 89 136 89 136 111 c 2,18,-1
 136 599 l 2,19,20
 136 621 136 621 115 628 c 128,-1,21
 94 635 94 635 66 635 c 2,22,-1
 56 635 l 1,23,-1
 56 710 l 1,4,-1
480 710 m 1,24,-1
 747 710 l 1,25,-1
 747 635 l 1,26,-1
 736 635 l 2,27,28
 709 635 709 635 687.5 628 c 128,-1,29
 666 621 666 621 666 599 c 2,30,-1
 666 0 l 1,31,-1
 567 0 l 1,32,-1
 567 626 l 2,33,34
 567 630 567 630 554.5 631.5 c 128,-1,35
 542 633 542 633 523.5 634 c 128,-1,36
 505 635 505 635 488 635 c 2,37,-1
 480 635 l 1,38,-1
 480 710 l 1,24,-1
520 0 m 1,39,-1
 520 75 l 1,40,-1
 757 75 l 1,41,-1
 757 -185 l 1,42,-1
 684 -185 l 1,43,-1
 672 -54 l 2,44,45
 671 -35 671 -35 658 -23 c 128,-1,46
 645 -11 645 -11 618.5 -5.5 c 128,-1,47
 592 0 592 0 548 0 c 2,48,-1
 520 0 l 1,39,-1
EndSplineSet
EndChar

StartChar: Checyr
Encoding: 1063 1063 293
Width: 764
GlyphClass: 2
Flags: W
AnchorPoint: "Anchor-0" 374 741 basechar 0
LayerCount: 2
Fore
SplineSet
441 0 m 1,0,-1
 441 75 l 1,1,-1
 449 75 l 2,2,3
 467 75 467 75 485 76 c 128,-1,4
 503 77 503 77 515.5 79 c 128,-1,5
 528 81 528 81 528 84 c 2,6,-1
 528 626 l 2,7,8
 528 630 528 630 515.5 631.5 c 128,-1,9
 503 633 503 633 485 634 c 128,-1,10
 467 635 467 635 450 635 c 2,11,-1
 441 635 l 1,12,-1
 441 710 l 1,13,-1
 708 710 l 1,14,-1
 708 635 l 1,15,-1
 698 635 l 2,16,17
 670 635 670 635 649 628 c 128,-1,18
 628 621 628 621 628 599 c 2,19,-1
 628 111 l 2,20,21
 628 89 628 89 649 82 c 128,-1,22
 670 75 670 75 698 75 c 2,23,-1
 708 75 l 1,24,-1
 708 0 l 1,25,-1
 441 0 l 1,0,-1
354 273 m 0,26,27
 268 273 268 273 216 293.5 c 128,-1,28
 164 314 164 314 140 360.5 c 128,-1,29
 116 407 116 407 116 484 c 2,30,-1
 116 599 l 2,31,32
 116 621 116 621 95 628 c 128,-1,33
 74 635 74 635 46 635 c 2,34,-1
 36 635 l 1,35,-1
 36 710 l 1,36,-1
 303 710 l 1,37,-1
 303 635 l 1,38,-1
 295 635 l 2,39,40
 277 635 277 635 259 634 c 128,-1,41
 241 633 241 633 228 631 c 128,-1,42
 215 629 215 629 215 625 c 2,43,-1
 215 489 l 2,44,45
 215 438 215 438 229 407 c 128,-1,46
 243 376 243 376 273.5 362 c 128,-1,47
 304 348 304 348 357 348 c 0,48,49
 408 348 408 348 463 358.5 c 128,-1,50
 518 369 518 369 565 397 c 1,51,-1
 565 321 l 1,52,53
 517 296 517 296 462 284.5 c 128,-1,54
 407 273 407 273 354 273 c 0,26,27
EndSplineSet
EndChar

StartChar: Shacyr
Encoding: 1064 1064 294
Width: 1108
GlyphClass: 2
Flags: W
AnchorPoint: "Anchor-0" 543 741 basechar 0
LayerCount: 2
Fore
SplineSet
902 0 m 1,0,-1
 205 0 l 1,1,-1
 205 75 l 1,2,-1
 902 75 l 1,3,-1
 902 0 l 1,0,-1
1052 710 m 1,4,-1
 1052 635 l 1,5,-1
 1042 635 l 2,6,7
 1014 635 1014 635 993 628 c 128,-1,8
 972 621 972 621 972 599 c 2,9,-1
 972 111 l 2,10,11
 972 89 972 89 993 82 c 128,-1,12
 1014 75 1014 75 1042 75 c 2,13,-1
 1052 75 l 1,14,-1
 1052 0 l 1,15,-1
 873 0 l 1,16,-1
 873 626 l 2,17,18
 873 630 873 630 860.5 631.5 c 128,-1,19
 848 633 848 633 829.5 634 c 128,-1,20
 811 635 811 635 794 635 c 2,21,-1
 785 635 l 1,22,-1
 785 710 l 1,23,-1
 1052 710 l 1,4,-1
323 710 m 1,24,-1
 323 635 l 1,25,-1
 315 635 l 2,26,27
 298 635 298 635 279.5 634 c 128,-1,28
 261 633 261 633 248 631.5 c 128,-1,29
 235 630 235 630 235 626 c 2,30,-1
 235 0 l 1,31,-1
 56 0 l 1,32,-1
 56 75 l 1,33,-1
 66 75 l 2,34,35
 94 75 94 75 115 82 c 128,-1,36
 136 89 136 89 136 111 c 2,37,-1
 136 599 l 2,38,39
 136 621 136 621 115 628 c 128,-1,40
 94 635 94 635 66 635 c 2,41,-1
 56 635 l 1,42,-1
 56 710 l 1,43,-1
 323 710 l 1,24,-1
421 710 m 1,44,-1
 687 710 l 1,45,-1
 687 635 l 1,46,-1
 679 635 l 2,47,48
 663 635 663 635 645.5 634 c 128,-1,49
 628 633 628 633 616 631.5 c 128,-1,50
 604 630 604 630 604 626 c 2,51,-1
 604 0 l 1,52,-1
 504 0 l 1,53,-1
 504 626 l 2,54,55
 504 630 504 630 492 631.5 c 128,-1,56
 480 633 480 633 463 634 c 128,-1,57
 446 635 446 635 429 635 c 2,58,-1
 421 635 l 1,59,-1
 421 710 l 1,44,-1
EndSplineSet
EndChar

StartChar: Shchacyr
Encoding: 1065 1065 295
Width: 1108
GlyphClass: 2
Flags: W
AnchorPoint: "Anchor-0" 543 741 basechar 0
LayerCount: 2
Fore
SplineSet
912 0 m 1,0,-1
 205 0 l 1,1,-1
 205 75 l 1,2,-1
 912 75 l 1,3,-1
 912 0 l 1,0,-1
323 710 m 1,4,-1
 323 635 l 1,5,-1
 314 635 l 2,6,7
 297 635 297 635 279 634 c 128,-1,8
 261 633 261 633 248 631.5 c 128,-1,9
 235 630 235 630 235 626 c 2,10,-1
 235 0 l 1,11,-1
 56 0 l 1,12,-1
 56 75 l 1,13,-1
 66 75 l 2,14,15
 94 75 94 75 115 82 c 128,-1,16
 136 89 136 89 136 111 c 2,17,-1
 136 599 l 2,18,19
 136 621 136 621 115 628 c 128,-1,20
 94 635 94 635 66 635 c 2,21,-1
 56 635 l 1,22,-1
 56 710 l 1,23,-1
 323 710 l 1,4,-1
785 710 m 1,24,-1
 1052 710 l 1,25,-1
 1052 635 l 1,26,-1
 1042 635 l 2,27,28
 1014 635 1014 635 993 628 c 128,-1,29
 972 621 972 621 972 599 c 2,30,-1
 972 0 l 1,31,-1
 873 0 l 1,32,-1
 873 626 l 2,33,34
 873 630 873 630 860.5 631.5 c 128,-1,35
 848 633 848 633 829.5 634 c 128,-1,36
 811 635 811 635 794 635 c 2,37,-1
 785 635 l 1,38,-1
 785 710 l 1,24,-1
855 0 m 2,39,-1
 825 0 l 1,40,-1
 825 75 l 1,41,-1
 1062 75 l 1,42,-1
 1062 -185 l 1,43,-1
 990 -185 l 1,44,-1
 978 -54 l 2,45,46
 976 -35 976 -35 963.5 -23 c 128,-1,47
 951 -11 951 -11 925 -5.5 c 128,-1,48
 899 0 899 0 855 0 c 2,39,-1
421 710 m 1,49,-1
 687 710 l 1,50,-1
 687 635 l 1,51,-1
 679 635 l 2,52,53
 663 635 663 635 645.5 634 c 128,-1,54
 628 633 628 633 616 631.5 c 128,-1,55
 604 630 604 630 604 626 c 2,56,-1
 604 0 l 1,57,-1
 504 0 l 1,58,-1
 504 626 l 2,59,60
 504 630 504 630 492 631.5 c 128,-1,61
 480 633 480 633 463 634 c 128,-1,62
 446 635 446 635 429 635 c 2,63,-1
 421 635 l 1,64,-1
 421 710 l 1,49,-1
EndSplineSet
EndChar

StartChar: Hardcyr
Encoding: 1066 1066 296
Width: 776
GlyphClass: 2
Flags: W
AnchorPoint: "Anchor-0" 272 741 basechar 0
LayerCount: 2
Fore
SplineSet
489 0 m 2,0,-1
 178 0 l 1,1,-1
 178 75 l 1,2,-1
 188 75 l 2,3,4
 217 75 217 75 238.5 82 c 128,-1,5
 260 89 260 89 260 111 c 2,6,-1
 260 636 l 1,7,-1
 236 636 l 2,8,9
 195 636 195 636 174 630 c 128,-1,10
 153 624 153 624 144.5 611.5 c 128,-1,11
 136 599 136 599 134 578 c 2,12,-1
 123 472 l 1,13,-1
 50 472 l 1,14,-1
 50 710 l 1,15,-1
 463 710 l 1,16,-1
 463 635 l 1,17,-1
 444 635 l 2,18,19
 422 635 422 635 403 634 c 128,-1,20
 384 633 384 633 372 631 c 128,-1,21
 360 629 360 629 360 625 c 2,22,-1
 360 74 l 1,23,-1
 487 74 l 2,24,25
 533 74 533 74 562 89.5 c 128,-1,26
 591 105 591 105 604.5 136.5 c 128,-1,27
 618 168 618 168 618 215 c 0,28,29
 618 264 618 264 604.5 296.5 c 128,-1,30
 591 329 591 329 562 345 c 128,-1,31
 533 361 533 361 487 361 c 2,32,-1
 308 361 l 1,33,-1
 308 434 l 1,34,-1
 489 434 l 2,35,36
 561 434 561 434 613.5 411 c 128,-1,37
 666 388 666 388 694.5 339.5 c 128,-1,38
 723 291 723 291 723 215 c 0,39,40
 723 146 723 146 693 98 c 128,-1,41
 663 50 663 50 610 25 c 128,-1,42
 557 0 557 0 489 0 c 2,0,-1
EndSplineSet
EndChar

StartChar: Ylongcyr
Encoding: 1067 1067 297
Width: 959
GlyphClass: 2
Flags: W
AnchorPoint: "Anchor-1" 470 0 basechar 0
AnchorPoint: "Anchor-0" 470 741 basechar 0
LayerCount: 2
Fore
SplineSet
724 84 m 2,0,-1
 724 626 l 2,1,2
 724 630 724 630 711 631.5 c 128,-1,3
 698 633 698 633 680 634 c 128,-1,4
 662 635 662 635 645 635 c 2,5,-1
 636 635 l 1,6,-1
 636 710 l 1,7,-1
 903 710 l 1,8,-1
 903 635 l 1,9,-1
 893 635 l 2,10,11
 863 635 863 635 843 628 c 128,-1,12
 823 621 823 621 823 599 c 2,13,-1
 823 111 l 2,14,15
 823 89 823 89 843 82 c 128,-1,16
 863 75 863 75 893 75 c 2,17,-1
 903 75 l 1,18,-1
 903 0 l 1,19,-1
 636 0 l 1,20,-1
 636 75 l 1,21,-1
 645 75 l 2,22,23
 662 75 662 75 680 76 c 128,-1,24
 698 77 698 77 711 79 c 128,-1,25
 724 81 724 81 724 84 c 2,0,-1
367 0 m 2,26,-1
 56 0 l 1,27,-1
 56 75 l 1,28,-1
 66 75 l 2,29,30
 94 75 94 75 115 82 c 128,-1,31
 136 89 136 89 136 111 c 2,32,-1
 136 599 l 2,33,34
 136 621 136 621 115 628 c 128,-1,35
 94 635 94 635 66 635 c 2,36,-1
 56 635 l 1,37,-1
 56 710 l 1,38,-1
 341 710 l 1,39,-1
 341 635 l 1,40,-1
 322 635 l 2,41,42
 300 635 300 635 280.5 634 c 128,-1,43
 261 633 261 633 248.5 631.5 c 128,-1,44
 236 630 236 630 236 626 c 2,45,-1
 236 74 l 1,46,-1
 365 74 l 2,47,48
 411 74 411 74 440 89.5 c 128,-1,49
 469 105 469 105 483 136.5 c 128,-1,50
 497 168 497 168 497 215 c 0,51,52
 497 264 497 264 483 296.5 c 128,-1,53
 469 329 469 329 439.5 345 c 128,-1,54
 410 361 410 361 365 361 c 2,55,-1
 203 361 l 1,56,-1
 203 434 l 1,57,-1
 367 434 l 2,58,59
 439 434 439 434 491 411 c 128,-1,60
 543 388 543 388 572 339.5 c 128,-1,61
 601 291 601 291 601 215 c 0,62,63
 601 146 601 146 571 98 c 128,-1,64
 541 50 541 50 488 25 c 128,-1,65
 435 0 435 0 367 0 c 2,26,-1
EndSplineSet
EndChar

StartChar: Softcyr
Encoding: 1068 1068 298
Width: 654
GlyphClass: 2
Flags: W
AnchorPoint: "Anchor-0" 190 741 basechar 0
LayerCount: 2
Fore
SplineSet
367 0 m 2,0,-1
 56 0 l 1,1,-1
 56 75 l 1,2,-1
 66 75 l 2,3,4
 94 75 94 75 115 82 c 128,-1,5
 136 89 136 89 136 111 c 2,6,-1
 136 599 l 2,7,8
 136 621 136 621 115 628 c 128,-1,9
 94 635 94 635 66 635 c 2,10,-1
 56 635 l 1,11,-1
 56 710 l 1,12,-1
 341 710 l 1,13,-1
 341 635 l 1,14,-1
 322 635 l 2,15,16
 300 635 300 635 280.5 634 c 128,-1,17
 261 633 261 633 248.5 631.5 c 128,-1,18
 236 630 236 630 236 626 c 2,19,-1
 236 74 l 1,20,-1
 365 74 l 2,21,22
 411 74 411 74 440 89.5 c 128,-1,23
 469 105 469 105 483 136.5 c 128,-1,24
 497 168 497 168 497 215 c 0,25,26
 497 264 497 264 483 296.5 c 128,-1,27
 469 329 469 329 439.5 345 c 128,-1,28
 410 361 410 361 365 361 c 2,29,-1
 203 361 l 1,30,-1
 203 434 l 1,31,-1
 367 434 l 2,32,33
 439 434 439 434 491 411 c 128,-1,34
 543 388 543 388 572 339.5 c 128,-1,35
 601 291 601 291 601 215 c 0,36,37
 601 146 601 146 571 98 c 128,-1,38
 541 50 541 50 488 25 c 128,-1,39
 435 0 435 0 367 0 c 2,0,-1
EndSplineSet
EndChar

StartChar: Ereversedcyr
Encoding: 1069 1069 299
Width: 744
GlyphClass: 2
Flags: W
AnchorPoint: "Anchor-1" 357 0 basechar 0
AnchorPoint: "Anchor-0" 357 741 basechar 0
LayerCount: 2
Fore
SplineSet
611 398 m 1,0,-1
 611 329 l 1,1,2
 569 327 569 327 527 325.5 c 128,-1,3
 485 324 485 324 443.5 322.5 c 128,-1,4
 402 321 402 321 359.5 319 c 128,-1,5
 317 317 317 317 276 315 c 1,6,-1
 276 413 l 1,7,8
 316 411 316 411 358 409 c 128,-1,9
 400 407 400 407 442.5 405.5 c 128,-1,10
 485 404 485 404 527 402 c 128,-1,11
 569 400 569 400 611 398 c 1,0,-1
381 -24 m 0,12,13
 315 -24 315 -24 265.5 1.5 c 128,-1,14
 216 27 216 27 187 77.5 c 128,-1,15
 158 128 158 128 151 203 c 1,16,-1
 171 166 l 1,17,-1
 158 -10 l 1,18,-1
 83 -10 l 1,19,-1
 83 240 l 1,20,-1
 165 240 l 1,21,22
 182 182 182 182 210 139.5 c 128,-1,23
 238 97 238 97 280 74 c 128,-1,24
 322 51 322 51 377 51 c 0,25,26
 429 51 429 51 467.5 69 c 128,-1,27
 506 87 506 87 531 124 c 128,-1,28
 556 161 556 161 568.5 218.5 c 128,-1,29
 581 276 581 276 581 355 c 0,30,31
 581 435 581 435 566 492.5 c 128,-1,32
 551 550 551 550 524.5 587 c 128,-1,33
 498 624 498 624 461.5 641.5 c 128,-1,34
 425 659 425 659 380 659 c 0,35,36
 322 659 322 659 279.5 636.5 c 128,-1,37
 237 614 237 614 209 571.5 c 128,-1,38
 181 529 181 529 165 470 c 1,39,-1
 83 470 l 1,40,-1
 83 720 l 1,41,-1
 158 720 l 1,42,-1
 171 544 l 1,43,-1
 151 507 l 1,44,45
 158 582 158 582 187.5 632.5 c 128,-1,46
 217 683 217 683 267 708.5 c 128,-1,47
 317 734 317 734 381 734 c 0,48,49
 448 734 448 734 503.5 710.5 c 128,-1,50
 559 687 559 687 600.5 640 c 128,-1,51
 642 593 642 593 664.5 522 c 128,-1,52
 687 451 687 451 687 355 c 0,53,54
 687 264 687 264 664 193.5 c 128,-1,55
 641 123 641 123 600 74.5 c 128,-1,56
 559 26 559 26 503.5 1 c 128,-1,57
 448 -24 448 -24 381 -24 c 0,12,13
EndSplineSet
Substitution2: "'ss01' Style Set 1 lookup 61 subtable" Ecyr.alt1
EndChar

StartChar: Yucyr
Encoding: 1070 1070 300
Width: 1056
GlyphClass: 2
Flags: W
AnchorPoint: "Anchor-1" 549 0 basechar 0
AnchorPoint: "Anchor-0" 549 741 basechar 0
LayerCount: 2
Fore
SplineSet
200 404 m 1,0,-1
 408 404 l 1,1,-1
 408 328 l 1,2,-1
 200 328 l 1,3,-1
 200 404 l 1,0,-1
56 0 m 1,4,-1
 56 75 l 1,5,-1
 66 75 l 2,6,7
 94 75 94 75 115 82 c 128,-1,8
 136 89 136 89 136 111 c 2,9,-1
 136 599 l 2,10,11
 136 621 136 621 115 628 c 128,-1,12
 94 635 94 635 66 635 c 2,13,-1
 56 635 l 1,14,-1
 56 710 l 1,15,-1
 323 710 l 1,16,-1
 323 636 l 1,17,-1
 315 636 l 2,18,19
 302 636 302 636 288 635 c 128,-1,20
 274 634 274 634 262 633 c 128,-1,21
 250 632 250 632 242.5 630.5 c 128,-1,22
 235 629 235 629 235 626 c 2,23,-1
 235 84 l 2,24,25
 235 81 235 81 242.5 79.5 c 128,-1,26
 250 78 250 78 262 77 c 128,-1,27
 274 76 274 76 288 75.5 c 128,-1,28
 302 75 302 75 314 75 c 2,29,-1
 323 75 l 1,30,-1
 323 0 l 1,31,-1
 56 0 l 1,4,-1
682 -24 m 256,32,33
 611 -24 611 -24 553 0.5 c 128,-1,34
 495 25 495 25 453 73.5 c 128,-1,35
 411 122 411 122 388 192.5 c 128,-1,36
 365 263 365 263 365 356 c 0,37,38
 365 448 365 448 388 518.5 c 128,-1,39
 411 589 411 589 453 637 c 128,-1,40
 495 685 495 685 553 709.5 c 128,-1,41
 611 734 611 734 682 734 c 256,42,43
 753 734 753 734 811.5 709.5 c 128,-1,44
 870 685 870 685 912 637 c 128,-1,45
 954 589 954 589 976.5 518.5 c 128,-1,46
 999 448 999 448 999 356 c 0,47,48
 999 263 999 263 976.5 192.5 c 128,-1,49
 954 122 954 122 912 73.5 c 128,-1,50
 870 25 870 25 811.5 0.5 c 128,-1,51
 753 -24 753 -24 682 -24 c 256,32,33
682 52 m 256,52,53
 734 52 734 52 773.5 70 c 128,-1,54
 813 88 813 88 839.5 125.5 c 128,-1,55
 866 163 866 163 879 219.5 c 128,-1,56
 892 276 892 276 892 355 c 0,57,58
 892 433 892 433 879 490 c 128,-1,59
 866 547 866 547 839.5 584.5 c 128,-1,60
 813 622 813 622 773.5 640 c 128,-1,61
 734 658 734 658 682 658 c 256,62,63
 630 658 630 658 590.5 640 c 128,-1,64
 551 622 551 622 524.5 584.5 c 128,-1,65
 498 547 498 547 485 490 c 128,-1,66
 472 433 472 433 472 355 c 256,67,68
 472 277 472 277 485 220 c 128,-1,69
 498 163 498 163 525 125.5 c 128,-1,70
 552 88 552 88 591 70 c 128,-1,71
 630 52 630 52 682 52 c 256,52,53
EndSplineSet
EndChar

StartChar: Yacyr
Encoding: 1071 1071 301
Width: 715
GlyphClass: 2
Flags: W
AnchorPoint: "Anchor-1" 358 0 basechar 0
AnchorPoint: "Anchor-0" 393 741 basechar 0
LayerCount: 2
Fore
SplineSet
346 322 m 1,0,-1
 176 0 l 1,1,-1
 31 0 l 1,2,-1
 31 75 l 1,3,-1
 40 75 l 2,4,5
 62 75 62 75 79.5 79.5 c 128,-1,6
 97 84 97 84 112 97.5 c 128,-1,7
 127 111 127 111 141 136 c 2,8,-1
 266 365 l 1,9,-1
 346 322 l 1,0,-1
480 84 m 2,10,-1
 480 636 l 1,11,-1
 350 636 l 2,12,13
 304 636 304 636 273.5 621 c 128,-1,14
 243 606 243 606 228 576.5 c 128,-1,15
 213 547 213 547 213 505 c 0,16,17
 213 462 213 462 227.5 430.5 c 128,-1,18
 242 399 242 399 273 382 c 128,-1,19
 304 365 304 365 354 365 c 2,20,-1
 490 365 l 1,21,-1
 490 291 l 1,22,-1
 315 291 l 1,23,-1
 291 300 l 1,24,25
 238 309 238 309 198 334 c 128,-1,26
 158 359 158 359 135 402 c 128,-1,27
 112 445 112 445 112 505 c 0,28,29
 112 571 112 571 140 616.5 c 128,-1,30
 168 662 168 662 220.5 686 c 128,-1,31
 273 710 273 710 345 710 c 2,32,-1
 659 710 l 1,33,-1
 659 635 l 1,34,-1
 649 635 l 2,35,36
 621 635 621 635 600 628 c 128,-1,37
 579 621 579 621 579 599 c 2,38,-1
 579 111 l 2,39,40
 579 89 579 89 600 82 c 128,-1,41
 621 75 621 75 649 75 c 2,42,-1
 659 75 l 1,43,-1
 659 0 l 1,44,-1
 375 0 l 1,45,-1
 375 75 l 1,46,-1
 393 75 l 2,47,48
 409 75 409 75 424.5 75.5 c 128,-1,49
 440 76 440 76 452.5 77.5 c 128,-1,50
 465 79 465 79 472.5 80 c 128,-1,51
 480 81 480 81 480 84 c 2,10,-1
EndSplineSet
EndChar

StartChar: Geupcyr
Encoding: 1168 1168 302
Width: 618
GlyphClass: 2
Flags: W
AnchorPoint: "Anchor-0" 291 741 basechar 0
LayerCount: 2
Fore
SplineSet
235 636 m 1,0,-1
 235 111 l 2,1,2
 235 97 235 97 246 89 c 128,-1,3
 257 81 257 81 275.5 78 c 128,-1,4
 294 75 294 75 318 75 c 2,5,-1
 341 75 l 1,6,-1
 341 0 l 1,7,-1
 56 0 l 1,8,-1
 56 75 l 1,9,-1
 66 75 l 2,10,11
 94 75 94 75 115 82 c 128,-1,12
 136 89 136 89 136 111 c 2,13,-1
 136 599 l 2,14,15
 136 621 136 621 115 628 c 128,-1,16
 94 635 94 635 66 635 c 2,17,-1
 56 635 l 1,18,-1
 56 710 l 1,19,-1
 363 710 l 2,20,21
 407 710 407 710 434.5 715.5 c 128,-1,22
 462 721 462 721 474 733 c 128,-1,23
 486 745 486 745 488 765 c 2,24,-1
 501 895 l 1,25,-1
 573 895 l 1,26,-1
 573 636 l 1,27,-1
 235 636 l 1,0,-1
EndSplineSet
EndChar

StartChar: Gestrokecyr
Encoding: 1170 1170 303
Width: 623
GlyphClass: 2
Flags: W
AnchorPoint: "Anchor-0" 318 741 basechar 0
LayerCount: 2
Fore
SplineSet
53 397 m 1,0,-1
 407 397 l 1,1,-1
 407 324 l 1,2,-1
 53 324 l 1,3,-1
 53 397 l 1,0,-1
235 636 m 1,4,-1
 235 111 l 2,5,6
 235 97 235 97 246 89 c 128,-1,7
 257 81 257 81 275.5 78 c 128,-1,8
 294 75 294 75 318 75 c 2,9,-1
 341 75 l 1,10,-1
 341 0 l 1,11,-1
 56 0 l 1,12,-1
 56 75 l 1,13,-1
 66 75 l 2,14,15
 94 75 94 75 115 82 c 128,-1,16
 136 89 136 89 136 111 c 2,17,-1
 136 599 l 2,18,19
 136 621 136 621 115 628 c 128,-1,20
 94 635 94 635 66 635 c 2,21,-1
 56 635 l 1,22,-1
 56 710 l 1,23,-1
 573 710 l 1,24,-1
 573 482 l 1,25,-1
 500 482 l 1,26,-1
 489 582 l 2,27,28
 487 603 487 603 476 615 c 128,-1,29
 465 627 465 627 441.5 631.5 c 128,-1,30
 418 636 418 636 379 636 c 2,31,-1
 235 636 l 1,4,-1
EndSplineSet
EndChar

StartChar: Zhetailcyr
Encoding: 1174 1174 304
Width: 1063
GlyphClass: 2
Flags: W
AnchorPoint: "Anchor-0" 521 741 basechar 0
LayerCount: 2
Fore
SplineSet
759 0 m 1,0,-1
 759 75 l 1,1,-1
 767 75 l 2,2,3
 786 75 786 75 803 76 c 128,-1,4
 820 77 820 77 831.5 79.5 c 128,-1,5
 843 82 843 82 843 85 c 2,6,-1
 623 345 l 1,7,-1
 623 372 l 1,8,-1
 853 625 l 2,9,10
 853 628 853 628 842 630 c 128,-1,11
 831 632 831 632 814.5 633.5 c 128,-1,12
 798 635 798 635 780 635 c 2,13,-1
 772 635 l 1,14,-1
 772 710 l 1,15,-1
 1013 710 l 1,16,-1
 1013 635 l 1,17,-1
 987 635 l 2,18,19
 976 635 976 635 966.5 633 c 128,-1,20
 957 631 957 631 947 624.5 c 128,-1,21
 937 618 937 618 927 606 c 2,22,-1
 698 355 l 1,23,-1
 700 397 l 1,24,-1
 973 75 l 1,25,-1
 973 0 l 1,26,-1
 759 0 l 1,0,-1
300 0 m 1,27,-1
 25 0 l 1,28,-1
 25 75 l 1,29,-1
 44 75 l 2,30,31
 57 75 57 75 68.5 76 c 128,-1,32
 80 77 80 77 89.5 81.5 c 128,-1,33
 99 86 99 86 106 95 c 2,34,-1
 362 397 l 1,35,-1
 359 355 l 1,36,-1
 130 607 l 2,37,38
 120 618 120 618 110 624.5 c 128,-1,39
 100 631 100 631 90.5 633 c 128,-1,40
 81 635 81 635 70 635 c 2,41,-1
 43 635 l 1,42,-1
 43 710 l 1,43,-1
 287 710 l 1,44,-1
 287 635 l 1,45,-1
 278 635 l 2,46,47
 261 635 261 635 244.5 633.5 c 128,-1,48
 228 632 228 632 217 630 c 128,-1,49
 206 628 206 628 206 624 c 2,50,-1
 436 372 l 1,51,-1
 436 345 l 1,52,-1
 216 84 l 2,53,54
 216 82 216 82 227 79.5 c 128,-1,55
 238 77 238 77 256 76 c 128,-1,56
 274 75 274 75 292 75 c 2,57,-1
 300 75 l 1,58,-1
 300 0 l 1,27,-1
842 0 m 2,59,-1
 832 0 l 1,60,-1
 847 75 l 1,61,-1
 1050 75 l 1,62,-1
 1050 -185 l 1,63,-1
 977 -185 l 1,64,-1
 965 -54 l 2,65,66
 964 -35 964 -35 951.5 -23 c 128,-1,67
 939 -11 939 -11 912.5 -5.5 c 128,-1,68
 886 0 886 0 842 0 c 2,59,-1
398 0 m 1,69,-1
 398 74 l 1,70,-1
 406 74 l 2,71,72
 418 74 418 74 430.5 75 c 128,-1,73
 443 76 443 76 454.5 77 c 128,-1,74
 466 78 466 78 473 79.5 c 128,-1,75
 480 81 480 81 480 84 c 2,76,-1
 480 626 l 2,77,78
 480 629 480 629 473 630.5 c 128,-1,79
 466 632 466 632 454.5 633 c 128,-1,80
 443 634 443 634 430 634.5 c 128,-1,81
 417 635 417 635 405 635 c 2,82,-1
 397 635 l 1,83,-1
 397 710 l 1,84,-1
 662 710 l 1,85,-1
 662 636 l 1,86,-1
 654 636 l 2,87,88
 642 636 642 636 628.5 635 c 128,-1,89
 615 634 615 634 604 633 c 128,-1,90
 593 632 593 632 586 630.5 c 128,-1,91
 579 629 579 629 579 626 c 2,92,-1
 579 84 l 2,93,94
 579 81 579 81 585.5 79.5 c 128,-1,95
 592 78 592 78 603.5 77 c 128,-1,96
 615 76 615 76 628 75.5 c 128,-1,97
 641 75 641 75 653 75 c 2,98,-1
 661 75 l 1,99,-1
 661 0 l 1,100,-1
 398 0 l 1,69,-1
EndSplineSet
EndChar

StartChar: Katailcyr
Encoding: 1178 1178 306
Width: 738
GlyphClass: 2
Flags: W
AnchorPoint: "Anchor-0" 376 741 basechar 0
LayerCount: 2
Fore
SplineSet
56 0 m 1,0,-1
 56 75 l 1,1,-1
 66 75 l 2,2,3
 94 75 94 75 115 82 c 128,-1,4
 136 89 136 89 136 111 c 2,5,-1
 136 599 l 2,6,7
 136 621 136 621 115 628 c 128,-1,8
 94 635 94 635 66 635 c 2,9,-1
 56 635 l 1,10,-1
 56 710 l 1,11,-1
 319 710 l 1,12,-1
 319 635 l 1,13,-1
 310 635 l 2,14,15
 299 635 299 635 285.5 634.5 c 128,-1,16
 272 634 272 634 261 633 c 128,-1,17
 250 632 250 632 242.5 630.5 c 128,-1,18
 235 629 235 629 235 626 c 2,19,-1
 235 84 l 2,20,21
 235 81 235 81 242.5 80 c 128,-1,22
 250 79 250 79 261 77.5 c 128,-1,23
 272 76 272 76 285.5 75.5 c 128,-1,24
 299 75 299 75 310 75 c 2,25,-1
 318 75 l 1,26,-1
 318 0 l 1,27,-1
 56 0 l 1,0,-1
431 0 m 1,28,-1
 431 75 l 1,29,-1
 440 75 l 2,30,31
 459 75 459 75 476 76 c 128,-1,32
 493 77 493 77 504 79.5 c 128,-1,33
 515 82 515 82 515 85 c 2,34,-1
 281 345 l 1,35,-1
 281 372 l 1,36,-1
 525 624 l 2,37,38
 525 628 525 628 514.5 630 c 128,-1,39
 504 632 504 632 487.5 633.5 c 128,-1,40
 471 635 471 635 454 635 c 2,41,-1
 445 635 l 1,42,-1
 445 710 l 1,43,-1
 688 710 l 1,44,-1
 688 635 l 1,45,-1
 663 635 l 2,46,47
 653 635 653 635 643 632.5 c 128,-1,48
 633 630 633 630 623 624 c 128,-1,49
 613 618 613 618 603 607 c 2,50,-1
 357 355 l 1,51,-1
 359 397 l 1,52,-1
 650 75 l 1,53,-1
 650 0 l 1,54,-1
 431 0 l 1,28,-1
517 0 m 2,55,-1
 507 0 l 1,56,-1
 522 75 l 1,57,-1
 725 75 l 1,58,-1
 725 -185 l 1,59,-1
 653 -185 l 1,60,-1
 640 -54 l 2,61,62
 639 -35 639 -35 626.5 -23 c 128,-1,63
 614 -11 614 -11 588 -5.5 c 128,-1,64
 562 0 562 0 517 0 c 2,55,-1
EndSplineSet
EndChar

StartChar: Kaverticalstrokecyr
Encoding: 1180 1180 307
Width: 826
GlyphClass: 2
Flags: W
AnchorPoint: "Anchor-0" 429 741 basechar 0
LayerCount: 2
Fore
SplineSet
312 171 m 1,0,-1
 312 544 l 1,1,-1
 387 544 l 1,2,-1
 387 171 l 1,3,-1
 312 171 l 1,0,-1
56 0 m 1,4,-1
 56 75 l 1,5,-1
 66 75 l 2,6,7
 94 75 94 75 115 82 c 128,-1,8
 136 89 136 89 136 111 c 2,9,-1
 136 599 l 2,10,11
 136 621 136 621 115 628 c 128,-1,12
 94 635 94 635 66 635 c 2,13,-1
 56 635 l 1,14,-1
 56 710 l 1,15,-1
 319 710 l 1,16,-1
 319 635 l 1,17,-1
 310 635 l 2,18,19
 299 635 299 635 285.5 634.5 c 128,-1,20
 272 634 272 634 261 633 c 128,-1,21
 250 632 250 632 242.5 630.5 c 128,-1,22
 235 629 235 629 235 626 c 2,23,-1
 235 84 l 2,24,25
 235 81 235 81 242.5 80 c 128,-1,26
 250 79 250 79 261 77.5 c 128,-1,27
 272 76 272 76 285.5 75.5 c 128,-1,28
 299 75 299 75 310 75 c 2,29,-1
 318 75 l 1,30,-1
 318 0 l 1,31,-1
 56 0 l 1,4,-1
527 0 m 1,32,-1
 527 75 l 1,33,-1
 535 75 l 2,34,35
 555 75 555 75 572.5 76 c 128,-1,36
 590 77 590 77 600.5 79.5 c 128,-1,37
 611 82 611 82 611 85 c 2,38,-1
 424 345 l 1,39,-1
 424 372 l 1,40,-1
 624 624 l 2,41,42
 624 628 624 628 613.5 630 c 128,-1,43
 603 632 603 632 585.5 633.5 c 128,-1,44
 568 635 568 635 549 635 c 2,45,-1
 540 635 l 1,46,-1
 540 710 l 1,47,-1
 780 710 l 1,48,-1
 780 635 l 1,49,-1
 753 635 l 2,50,51
 738 635 738 635 724 629.5 c 128,-1,52
 710 624 710 624 696 607 c 2,53,-1
 495 355 l 1,54,-1
 501 398 l 1,55,-1
 719 96 l 2,56,57
 726 86 726 86 736 81.5 c 128,-1,58
 746 77 746 77 758.5 76 c 128,-1,59
 771 75 771 75 782 75 c 2,60,-1
 801 75 l 1,61,-1
 801 0 l 1,62,-1
 527 0 l 1,32,-1
EndSplineSet
EndChar

StartChar: Kabashkcyr
Encoding: 1184 1184 308
Width: 876
GlyphClass: 2
Flags: W
AnchorPoint: "Anchor-0" 517 741 basechar 0
LayerCount: 2
Fore
SplineSet
570 0 m 1,0,-1
 570 75 l 1,1,-1
 578 75 l 2,2,3
 597 75 597 75 614 76 c 128,-1,4
 631 77 631 77 642.5 79.5 c 128,-1,5
 654 82 654 82 654 85 c 2,6,-1
 419 345 l 1,7,-1
 419 372 l 1,8,-1
 664 624 l 2,9,10
 664 628 664 628 653 630 c 128,-1,11
 642 632 642 632 625.5 633.5 c 128,-1,12
 609 635 609 635 592 635 c 2,13,-1
 583 635 l 1,14,-1
 583 710 l 1,15,-1
 826 710 l 1,16,-1
 826 635 l 1,17,-1
 802 635 l 2,18,19
 791 635 791 635 781 632.5 c 128,-1,20
 771 630 771 630 761 624 c 128,-1,21
 751 618 751 618 741 607 c 2,22,-1
 495 355 l 1,23,-1
 497 397 l 1,24,-1
 769 96 l 2,25,26
 779 87 779 87 788.5 82.5 c 128,-1,27
 798 78 798 78 809 76.5 c 128,-1,28
 820 75 820 75 832 75 c 2,29,-1
 851 75 l 1,30,-1
 851 0 l 1,31,-1
 570 0 l 1,0,-1
194 0 m 1,32,-1
 194 75 l 1,33,-1
 204 75 l 2,34,35
 232 75 232 75 253 82 c 128,-1,36
 274 89 274 89 274 111 c 2,37,-1
 274 636 l 1,38,-1
 236 636 l 2,39,40
 195 636 195 636 174 630 c 128,-1,41
 153 624 153 624 144.5 611.5 c 128,-1,42
 136 599 136 599 134 578 c 2,43,-1
 123 472 l 1,44,-1
 50 472 l 1,45,-1
 50 710 l 1,46,-1
 457 710 l 1,47,-1
 457 635 l 1,48,-1
 449 635 l 2,49,50
 434 635 434 635 416.5 634 c 128,-1,51
 399 633 399 633 386.5 631.5 c 128,-1,52
 374 630 374 630 374 626 c 2,53,-1
 374 84 l 2,54,55
 374 82 374 82 386 79.5 c 128,-1,56
 398 77 398 77 416 76 c 128,-1,57
 434 75 434 75 448 75 c 2,58,-1
 456 75 l 1,59,-1
 456 0 l 1,60,-1
 194 0 l 1,32,-1
EndSplineSet
EndChar

StartChar: Entailcyr
Encoding: 1186 1186 309
Width: 812
GlyphClass: 2
Flags: W
AnchorPoint: "Anchor-0" 406 741 basechar 0
LayerCount: 2
Fore
SplineSet
213 404 m 1,0,-1
 598 404 l 1,1,-1
 598 328 l 1,2,-1
 213 328 l 1,3,-1
 213 404 l 1,0,-1
56 0 m 1,4,-1
 56 75 l 1,5,-1
 66 75 l 2,6,7
 94 75 94 75 115 82 c 128,-1,8
 136 89 136 89 136 111 c 2,9,-1
 136 599 l 2,10,11
 136 621 136 621 115 628 c 128,-1,12
 94 635 94 635 66 635 c 2,13,-1
 56 635 l 1,14,-1
 56 710 l 1,15,-1
 323 710 l 1,16,-1
 323 636 l 1,17,-1
 315 636 l 2,18,19
 302 636 302 636 288 635 c 128,-1,20
 274 634 274 634 262 633 c 128,-1,21
 250 632 250 632 242.5 630.5 c 128,-1,22
 235 629 235 629 235 626 c 2,23,-1
 235 84 l 2,24,25
 235 81 235 81 242.5 79.5 c 128,-1,26
 250 78 250 78 262 77 c 128,-1,27
 274 76 274 76 288 75.5 c 128,-1,28
 302 75 302 75 314 75 c 2,29,-1
 323 75 l 1,30,-1
 323 0 l 1,31,-1
 56 0 l 1,4,-1
489 0 m 1,32,-1
 489 74 l 1,33,-1
 497 74 l 2,34,35
 510 74 510 74 524 75 c 128,-1,36
 538 76 538 76 550 77 c 128,-1,37
 562 78 562 78 569 79.5 c 128,-1,38
 576 81 576 81 576 84 c 2,39,-1
 576 626 l 2,40,41
 576 629 576 629 569 630.5 c 128,-1,42
 562 632 562 632 550 633 c 128,-1,43
 538 634 538 634 524 634.5 c 128,-1,44
 510 635 510 635 498 635 c 2,45,-1
 489 635 l 1,46,-1
 489 710 l 1,47,-1
 756 710 l 1,48,-1
 756 635 l 1,49,-1
 746 635 l 2,50,51
 718 635 718 635 697 628 c 128,-1,52
 676 621 676 621 676 599 c 2,53,-1
 676 0 l 1,54,-1
 489 0 l 1,32,-1
558 0 m 2,55,-1
 553 0 l 1,56,-1
 568 75 l 1,57,-1
 766 75 l 1,58,-1
 766 -185 l 1,59,-1
 693 -185 l 1,60,-1
 681 -54 l 2,61,62
 680 -35 680 -35 667.5 -23 c 128,-1,63
 655 -11 655 -11 628.5 -5.5 c 128,-1,64
 602 0 602 0 558 0 c 2,55,-1
EndSplineSet
EndChar

StartChar: Tetailcyr
Encoding: 1196 1196 311
Width: 688
GlyphClass: 2
Flags: W
AnchorPoint: "Anchor-0" 337 741 basechar 0
LayerCount: 2
Fore
SplineSet
294 111 m 2,0,-1
 294 636 l 1,1,-1
 236 636 l 2,2,3
 195 636 195 636 174 630 c 128,-1,4
 153 624 153 624 144.5 611.5 c 128,-1,5
 136 599 136 599 134 578 c 2,6,-1
 123 472 l 1,7,-1
 50 472 l 1,8,-1
 50 710 l 1,9,-1
 638 710 l 1,10,-1
 638 472 l 1,11,-1
 565 472 l 1,12,-1
 554 578 l 2,13,14
 552 599 552 599 543.5 611.5 c 128,-1,15
 535 624 535 624 513.5 630 c 128,-1,16
 492 636 492 636 451 636 c 2,17,-1
 393 636 l 1,18,-1
 393 0 l 1,19,-1
 197 0 l 1,20,-1
 197 75 l 1,21,-1
 216 75 l 2,22,23
 247 75 247 75 270.5 82 c 128,-1,24
 294 89 294 89 294 111 c 2,0,-1
290 0 m 2,25,-1
 276 0 l 1,26,-1
 289 75 l 1,27,-1
 498 75 l 1,28,-1
 498 -185 l 1,29,-1
 426 -185 l 1,30,-1
 413 -54 l 2,31,32
 412 -35 412 -35 399.5 -23 c 128,-1,33
 387 -11 387 -11 361 -5.5 c 128,-1,34
 335 0 335 0 290 0 c 2,25,-1
EndSplineSet
EndChar

StartChar: Ustraightstrokecyr
Encoding: 1200 1200 313
Width: 670
GlyphClass: 2
Flags: W
AnchorPoint: "Anchor-1" 335 0 basechar 0
AnchorPoint: "Anchor-0" 335 741 basechar 0
LayerCount: 2
Fore
SplineSet
154 276 m 1,0,-1
 520 276 l 1,1,-1
 520 200 l 1,2,-1
 154 200 l 1,3,-1
 154 276 l 1,0,-1
287 303 m 1,4,-1
 293 265 l 1,5,-1
 100 596 l 2,6,7
 91 612 91 612 82 621 c 128,-1,8
 73 630 73 630 62.5 632.5 c 128,-1,9
 52 635 52 635 38 635 c 2,10,-1
 26 635 l 1,11,-1
 26 710 l 1,12,-1
 264 710 l 1,13,-1
 264 635 l 1,14,-1
 249 635 l 2,15,16
 234 635 234 635 220 633.5 c 128,-1,17
 206 632 206 632 196.5 630 c 128,-1,18
 187 628 187 628 187 624 c 2,19,-1
 369 306 l 1,20,-1
 327 305 l 1,21,-1
 494 612 l 2,22,23
 494 620 494 620 484.5 624.5 c 128,-1,24
 475 629 475 629 462.5 632 c 128,-1,25
 450 635 450 635 440 635 c 2,26,-1
 429 635 l 1,27,-1
 429 710 l 1,28,-1
 642 710 l 1,29,-1
 642 635 l 1,30,-1
 630 635 l 2,31,32
 618 635 618 635 607 630.5 c 128,-1,33
 596 626 596 626 585 615 c 128,-1,34
 574 604 574 604 564 585 c 2,35,-1
 380 264 l 1,36,-1
 387 303 l 1,37,-1
 387 111 l 2,38,39
 387 89 387 89 409.5 82 c 128,-1,40
 432 75 432 75 463 75 c 2,41,-1
 483 75 l 1,42,-1
 483 0 l 1,43,-1
 192 0 l 1,44,-1
 192 75 l 1,45,-1
 211 75 l 2,46,47
 244 75 244 75 265.5 82 c 128,-1,48
 287 89 287 89 287 111 c 2,49,-1
 287 303 l 1,4,-1
EndSplineSet
EndChar

StartChar: Xatailcyr
Encoding: 1202 1202 314
Width: 718
GlyphClass: 2
Flags: W
AnchorPoint: "Anchor-0" 366 741 basechar 0
LayerCount: 2
Fore
SplineSet
40 635 m 1,0,-1
 40 710 l 1,1,-1
 305 710 l 1,2,-1
 305 635 l 1,3,-1
 289 635 l 2,4,5
 272 635 272 635 256.5 634.5 c 128,-1,6
 241 634 241 634 231 632 c 128,-1,7
 221 630 221 630 221 626 c 2,8,-1
 390 391 l 1,9,-1
 401 388 l 1,10,-1
 625 76 l 1,11,-1
 625 0 l 1,12,-1
 418 0 l 1,13,-1
 418 75 l 1,14,-1
 434 75 l 2,15,16
 451 75 451 75 467 76 c 128,-1,17
 483 77 483 77 493 79 c 128,-1,18
 503 81 503 81 503 84 c 2,19,-1
 320 340 l 1,20,-1
 310 343 l 1,21,-1
 123 601 l 2,22,23
 107 624 107 624 90 629.5 c 128,-1,24
 73 635 73 635 53 635 c 2,25,-1
 40 635 l 1,0,-1
27 0 m 1,26,-1
 27 75 l 1,27,-1
 46 75 l 2,28,29
 64 75 64 75 80 84.5 c 128,-1,30
 96 94 96 94 114 121 c 2,31,-1
 299 379 l 1,32,-1
 360 337 l 1,33,-1
 187 92 l 2,34,35
 187 87 187 87 197.5 83.5 c 128,-1,36
 208 80 208 80 223 77.5 c 128,-1,37
 238 75 238 75 251 75 c 2,38,-1
 268 75 l 1,39,-1
 268 0 l 1,40,-1
 27 0 l 1,26,-1
414 355 m 1,41,-1
 352 395 l 1,42,-1
 516 618 l 2,43,44
 516 624 516 624 505 627.5 c 128,-1,45
 494 631 494 631 479 633 c 128,-1,46
 464 635 464 635 450 635 c 2,47,-1
 436 635 l 1,48,-1
 436 710 l 1,49,-1
 674 710 l 1,50,-1
 674 635 l 1,51,-1
 660 635 l 2,52,53
 642 635 642 635 625.5 626.5 c 128,-1,54
 609 618 609 618 588 590 c 2,55,-1
 414 355 l 1,41,-1
497 0 m 2,56,-1
 491 0 l 1,57,-1
 506 75 l 1,58,-1
 704 75 l 1,59,-1
 704 -185 l 1,60,-1
 632 -185 l 1,61,-1
 620 -54 l 2,62,63
 618 -35 618 -35 606 -23 c 128,-1,64
 594 -11 594 -11 567.5 -5.5 c 128,-1,65
 541 0 541 0 497 0 c 2,56,-1
EndSplineSet
EndChar

StartChar: Chetailcyr
Encoding: 1206 1206 315
Width: 764
GlyphClass: 2
Flags: W
AnchorPoint: "Anchor-0" 374 741 basechar 0
LayerCount: 2
Fore
SplineSet
355 273 m 0,0,1
 268 273 268 273 216 293.5 c 128,-1,2
 164 314 164 314 140 360.5 c 128,-1,3
 116 407 116 407 116 484 c 2,4,-1
 116 599 l 2,5,6
 116 621 116 621 95 628 c 128,-1,7
 74 635 74 635 46 635 c 2,8,-1
 36 635 l 1,9,-1
 36 710 l 1,10,-1
 303 710 l 1,11,-1
 303 635 l 1,12,-1
 295 635 l 2,13,14
 277 635 277 635 259 634 c 128,-1,15
 241 633 241 633 228 631 c 128,-1,16
 215 629 215 629 215 625 c 2,17,-1
 215 489 l 2,18,19
 215 438 215 438 229 407 c 128,-1,20
 243 376 243 376 274 362 c 128,-1,21
 305 348 305 348 357 348 c 0,22,23
 408 348 408 348 463 358.5 c 128,-1,24
 518 369 518 369 565 398 c 1,25,-1
 565 322 l 1,26,27
 516 296 516 296 461.5 284.5 c 128,-1,28
 407 273 407 273 355 273 c 0,0,1
441 0 m 1,29,-1
 441 75 l 1,30,-1
 449 75 l 2,31,32
 467 75 467 75 485 76 c 128,-1,33
 503 77 503 77 515.5 79 c 128,-1,34
 528 81 528 81 528 84 c 2,35,-1
 528 626 l 2,36,37
 528 630 528 630 515.5 631.5 c 128,-1,38
 503 633 503 633 485 634 c 128,-1,39
 467 635 467 635 450 635 c 2,40,-1
 441 635 l 1,41,-1
 441 710 l 1,42,-1
 708 710 l 1,43,-1
 708 635 l 1,44,-1
 698 635 l 2,45,46
 670 635 670 635 649 628 c 128,-1,47
 628 621 628 621 628 599 c 2,48,-1
 628 0 l 1,49,-1
 441 0 l 1,29,-1
510 0 m 2,50,-1
 505 0 l 1,51,-1
 526 75 l 1,52,-1
 718 75 l 1,53,-1
 718 -185 l 1,54,-1
 645 -185 l 1,55,-1
 633 -54 l 2,56,57
 632 -35 632 -35 619.5 -23 c 128,-1,58
 607 -11 607 -11 580.5 -5.5 c 128,-1,59
 554 0 554 0 510 0 c 2,50,-1
EndSplineSet
EndChar

StartChar: Chevertcyr
Encoding: 1208 1208 316
Width: 783
GlyphClass: 2
Flags: W
AnchorPoint: "Anchor-0" 384 741 basechar 0
LayerCount: 2
Fore
SplineSet
461 0 m 1,0,-1
 461 75 l 1,1,-1
 469 75 l 2,2,3
 487 75 487 75 505 76 c 128,-1,4
 523 77 523 77 535.5 79 c 128,-1,5
 548 81 548 81 548 84 c 2,6,-1
 548 626 l 2,7,8
 548 630 548 630 535.5 631.5 c 128,-1,9
 523 633 523 633 504.5 634 c 128,-1,10
 486 635 486 635 469 635 c 2,11,-1
 461 635 l 1,12,-1
 461 710 l 1,13,-1
 727 710 l 1,14,-1
 727 635 l 1,15,-1
 717 635 l 2,16,17
 690 635 690 635 668.5 628 c 128,-1,18
 647 621 647 621 647 599 c 2,19,-1
 647 111 l 2,20,21
 647 89 647 89 668.5 82 c 128,-1,22
 690 75 690 75 717 75 c 2,23,-1
 727 75 l 1,24,-1
 727 0 l 1,25,-1
 461 0 l 1,0,-1
364 273 m 0,26,27
 274 273 274 273 219.5 293.5 c 128,-1,28
 165 314 165 314 140.5 360.5 c 128,-1,29
 116 407 116 407 116 484 c 2,30,-1
 116 599 l 2,31,32
 116 621 116 621 95 628 c 128,-1,33
 74 635 74 635 46 635 c 2,34,-1
 36 635 l 1,35,-1
 36 710 l 1,36,-1
 303 710 l 1,37,-1
 303 635 l 1,38,-1
 295 635 l 2,39,40
 277 635 277 635 259 634 c 128,-1,41
 241 633 241 633 228 631 c 128,-1,42
 215 629 215 629 215 625 c 2,43,-1
 215 489 l 2,44,45
 215 438 215 438 230 407 c 128,-1,46
 245 376 245 376 278 362 c 128,-1,47
 311 348 311 348 366 348 c 0,48,49
 420 348 420 348 478 358 c 128,-1,50
 536 368 536 368 584 398 c 1,51,-1
 584 322 l 1,52,53
 535 295 535 295 477 284 c 128,-1,54
 419 273 419 273 364 273 c 0,26,27
347 158 m 1,55,-1
 347 531 l 1,56,-1
 422 531 l 1,57,-1
 422 158 l 1,58,-1
 347 158 l 1,55,-1
EndSplineSet
EndChar

StartChar: Shhacyr
Encoding: 1210 1210 317
Width: 764
GlyphClass: 1
Flags: W
LayerCount: 2
Fore
SplineSet
323 710 m 1,0,-1
 323 635 l 1,1,-1
 314 635 l 2,2,3
 297 635 297 635 279 634 c 128,-1,4
 261 633 261 633 248 631.5 c 128,-1,5
 235 630 235 630 235 626 c 2,6,-1
 235 84 l 2,7,8
 235 81 235 81 248 79 c 128,-1,9
 261 77 261 77 279 76 c 128,-1,10
 297 75 297 75 314 75 c 2,11,-1
 323 75 l 1,12,-1
 323 0 l 1,13,-1
 56 0 l 1,14,-1
 56 75 l 1,15,-1
 66 75 l 2,16,17
 94 75 94 75 115 82 c 128,-1,18
 136 89 136 89 136 111 c 2,19,-1
 136 599 l 2,20,21
 136 621 136 621 115 628 c 128,-1,22
 94 635 94 635 66 635 c 2,23,-1
 56 635 l 1,24,-1
 56 710 l 1,25,-1
 323 710 l 1,0,-1
410 438 m 0,26,27
 495 438 495 438 547.5 417 c 128,-1,28
 600 396 600 396 624 350 c 128,-1,29
 648 304 648 304 648 226 c 2,30,-1
 648 111 l 2,31,32
 648 89 648 89 669 82 c 128,-1,33
 690 75 690 75 718 75 c 2,34,-1
 728 75 l 1,35,-1
 728 0 l 1,36,-1
 461 0 l 1,37,-1
 461 75 l 1,38,-1
 469 75 l 2,39,40
 487 75 487 75 505 76 c 128,-1,41
 523 77 523 77 535.5 79.5 c 128,-1,42
 548 82 548 82 548 85 c 2,43,-1
 548 221 l 2,44,45
 548 272 548 272 534.5 303 c 128,-1,46
 521 334 521 334 490 348 c 128,-1,47
 459 362 459 362 407 362 c 0,48,49
 356 362 356 362 301 351.5 c 128,-1,50
 246 341 246 341 199 313 c 1,51,-1
 199 389 l 1,52,53
 247 414 247 414 302 426 c 128,-1,54
 357 438 357 438 410 438 c 0,26,27
EndSplineSet
EndChar

StartChar: Obarcyr
Encoding: 1256 1256 320
Width: 765
GlyphClass: 2
Flags: W
AnchorPoint: "Anchor-1" 375 0 basechar 0
AnchorPoint: "Anchor-0" 375 741 basechar 0
LayerCount: 2
Fore
SplineSet
104 404 m 1,0,-1
 661 404 l 1,1,-1
 661 328 l 1,2,-1
 104 328 l 1,3,-1
 104 404 l 1,0,-1
383 -24 m 256,4,5
 310 -24 310 -24 250 0.5 c 128,-1,6
 190 25 190 25 147 73.5 c 128,-1,7
 104 122 104 122 80.5 192.5 c 128,-1,8
 57 263 57 263 57 355 c 0,9,10
 57 448 57 448 80.5 518.5 c 128,-1,11
 104 589 104 589 147 637 c 128,-1,12
 190 685 190 685 250 709.5 c 128,-1,13
 310 734 310 734 383 734 c 256,14,15
 456 734 456 734 516 709.5 c 128,-1,16
 576 685 576 685 618.5 637 c 128,-1,17
 661 589 661 589 684.5 518.5 c 128,-1,18
 708 448 708 448 708 355 c 0,19,20
 708 263 708 263 684.5 192.5 c 128,-1,21
 661 122 661 122 618.5 73.5 c 128,-1,22
 576 25 576 25 516 0.5 c 128,-1,23
 456 -24 456 -24 383 -24 c 256,4,5
383 52 m 256,24,25
 437 52 437 52 478 70 c 128,-1,26
 519 88 519 88 546.5 125.5 c 128,-1,27
 574 163 574 163 588 219.5 c 128,-1,28
 602 276 602 276 602 355 c 0,29,30
 602 433 602 433 588 490 c 128,-1,31
 574 547 574 547 546.5 584.5 c 128,-1,32
 519 622 519 622 478 640 c 128,-1,33
 437 658 437 658 383 658 c 256,34,35
 329 658 329 658 287.5 640 c 128,-1,36
 246 622 246 622 218.5 584.5 c 128,-1,37
 191 547 191 547 177 490 c 128,-1,38
 163 433 163 433 163 355 c 256,39,40
 163 277 163 277 177 220 c 128,-1,41
 191 163 191 163 219 125.5 c 128,-1,42
 247 88 247 88 288 70 c 128,-1,43
 329 52 329 52 383 52 c 256,24,25
EndSplineSet
EndChar

StartChar: Hastrokecyr
Encoding: 1278 1278 321
Width: 715
GlyphClass: 2
Flags: W
AnchorPoint: "Anchor-1" 336 0 basechar 0
AnchorPoint: "Anchor-0" 365 741 basechar 0
LayerCount: 2
Fore
SplineSet
160 405 m 1,0,-1
 551 405 l 1,1,-1
 551 330 l 1,2,-1
 160 330 l 1,3,-1
 160 405 l 1,0,-1
40 635 m 1,4,-1
 40 710 l 1,5,-1
 305 710 l 1,6,-1
 305 635 l 1,7,-1
 289 635 l 2,8,9
 272 635 272 635 256.5 634.5 c 128,-1,10
 241 634 241 634 231 632 c 128,-1,11
 221 630 221 630 221 626 c 2,12,-1
 390 391 l 1,13,-1
 400 388 l 1,14,-1
 601 109 l 2,15,16
 617 87 617 87 633 81 c 128,-1,17
 649 75 649 75 669 75 c 2,18,-1
 688 75 l 1,19,-1
 688 0 l 1,20,-1
 418 0 l 1,21,-1
 418 75 l 1,22,-1
 434 75 l 2,23,24
 451 75 451 75 467 76 c 128,-1,25
 483 77 483 77 493 79 c 128,-1,26
 503 81 503 81 503 84 c 2,27,-1
 320 340 l 1,28,-1
 311 343 l 1,29,-1
 123 601 l 2,30,31
 107 624 107 624 90 629.5 c 128,-1,32
 73 635 73 635 53 635 c 2,33,-1
 40 635 l 1,4,-1
27 0 m 1,34,-1
 27 75 l 1,35,-1
 46 75 l 2,36,37
 64 75 64 75 80 84.5 c 128,-1,38
 96 94 96 94 114 121 c 2,39,-1
 300 379 l 1,40,-1
 360 337 l 1,41,-1
 187 92 l 2,42,43
 187 87 187 87 197.5 83.5 c 128,-1,44
 208 80 208 80 223 77.5 c 128,-1,45
 238 75 238 75 251 75 c 2,46,-1
 268 75 l 1,47,-1
 268 0 l 1,48,-1
 27 0 l 1,34,-1
413 355 m 1,49,-1
 352 395 l 1,50,-1
 516 618 l 2,51,52
 516 624 516 624 505 627.5 c 128,-1,53
 494 631 494 631 479 633 c 128,-1,54
 464 635 464 635 450 635 c 2,55,-1
 436 635 l 1,56,-1
 436 710 l 1,57,-1
 674 710 l 1,58,-1
 674 635 l 1,59,-1
 660 635 l 2,60,61
 642 635 642 635 625.5 626.5 c 128,-1,62
 609 618 609 618 588 590 c 2,63,-1
 413 355 l 1,49,-1
EndSplineSet
EndChar

StartChar: a
Encoding: 97 97 322
Width: 580
GlyphClass: 2
Flags: W
AnchorPoint: "Anchor-2" 436 -10 basechar 0
AnchorPoint: "Anchor-1" 299 0 basechar 0
AnchorPoint: "Anchor-0" 269 565 basechar 0
LayerCount: 2
Fore
SplineSet
395 347 m 1,0,-1
 395 285 l 1,1,2
 331 274 331 274 287.5 263 c 128,-1,3
 244 252 244 252 218 239 c 128,-1,4
 192 226 192 226 179 211 c 128,-1,5
 166 196 166 196 161 178 c 128,-1,6
 156 160 156 160 156 138 c 0,7,8
 156 107 156 107 166 90 c 128,-1,9
 176 73 176 73 193.5 66 c 128,-1,10
 211 59 211 59 233 59 c 0,11,12
 260 59 260 59 285.5 70 c 128,-1,13
 311 81 311 81 337.5 107.5 c 128,-1,14
 364 134 364 134 393 180 c 1,15,-1
 396 118 l 1,16,17
 375 78 375 78 348.5 48.5 c 128,-1,18
 322 19 322 19 290 3.5 c 128,-1,19
 258 -12 258 -12 220 -12 c 0,20,21
 169 -12 169 -12 133.5 4.5 c 128,-1,22
 98 21 98 21 79.5 54.5 c 128,-1,23
 61 88 61 88 61 138 c 0,24,25
 61 181 61 181 76.5 213 c 128,-1,26
 92 245 92 245 129 269 c 128,-1,27
 166 293 166 293 231 312 c 128,-1,28
 296 331 296 331 395 347 c 1,0,-1
410 0 m 1,29,-1
 387 120 l 1,30,-1
 386 128 l 1,31,-1
 386 412 l 2,32,33
 386 442 386 442 378.5 461.5 c 128,-1,34
 371 481 371 481 348.5 491 c 128,-1,35
 326 501 326 501 280 501 c 0,36,37
 218 501 218 501 176.5 487.5 c 128,-1,38
 135 474 135 474 118 462 c 1,39,40
 118 467 118 467 123.5 476 c 128,-1,41
 129 485 129 485 138 495 c 128,-1,42
 147 505 147 505 158.5 511 c 128,-1,43
 170 517 170 517 183 517 c 1,44,-1
 183 389 l 1,45,-1
 90 389 l 1,46,-1
 90 527 l 1,47,48
 104 537 104 537 129.5 548 c 128,-1,49
 155 559 155 559 194 567 c 128,-1,50
 233 575 233 575 283 575 c 0,51,52
 328 575 328 575 364 567 c 128,-1,53
 400 559 400 559 426.5 542.5 c 128,-1,54
 453 526 453 526 467.5 498.5 c 128,-1,55
 482 471 482 471 482 433 c 2,56,-1
 482 119 l 2,57,58
 482 104 482 104 488.5 95 c 128,-1,59
 495 86 495 86 509.5 80.5 c 128,-1,60
 524 75 524 75 548 70 c 2,61,-1
 557 68 l 1,62,-1
 557 0 l 1,63,-1
 410 0 l 1,29,-1
EndSplineSet
Substitution2: "'ss06' Style Set 6 lookup 66 subtable" a.alt
EndChar

StartChar: aogonek
Encoding: 261 261 331
Width: 580
GlyphClass: 1
Flags: W
LayerCount: 2
Fore
SplineSet
251 -162 m 0,0,1
 251 -138 251 -138 259 -119.5 c 128,-1,2
 267 -101 267 -101 287.5 -81 c 128,-1,3
 308 -61 308 -61 344.5 -33 c 128,-1,4
 381 -5 381 -5 437 37 c 1,5,-1
 467 2 l 1,6,7
 433 -29 433 -29 410.5 -51 c 128,-1,8
 388 -73 388 -73 376 -89.5 c 128,-1,9
 364 -106 364 -106 359 -120.5 c 128,-1,10
 354 -135 354 -135 354 -151 c 0,11,12
 354 -168 354 -168 364 -179.5 c 128,-1,13
 374 -191 374 -191 395 -191 c 0,14,15
 423 -191 423 -191 442.5 -176 c 128,-1,16
 462 -161 462 -161 474 -145 c 1,17,-1
 514 -182 l 1,18,19
 489 -213 489 -213 456.5 -232.5 c 128,-1,20
 424 -252 424 -252 372 -252 c 256,21,22
 320 -252 320 -252 285.5 -230 c 128,-1,23
 251 -208 251 -208 251 -162 c 0,0,1
557 0 m 1,24,-1
 412 0 l 1,25,-1
 388 120 l 1,26,-1
 383 128 l 1,27,-1
 383 416 l 2,28,29
 383 445 383 445 376 464.5 c 128,-1,30
 369 484 369 484 347 493.5 c 128,-1,31
 325 503 325 503 280 503 c 0,32,33
 217 503 217 503 174.5 492 c 128,-1,34
 132 481 132 481 116 469 c 1,35,36
 116 474 116 474 121.5 482 c 128,-1,37
 127 490 127 490 135.5 498 c 128,-1,38
 144 506 144 506 155.5 511.5 c 128,-1,39
 167 517 167 517 180 517 c 1,40,-1
 180 389 l 1,41,-1
 87 389 l 1,42,-1
 87 527 l 1,43,44
 101 538 101 538 127.5 549 c 128,-1,45
 154 560 154 560 193 567.5 c 128,-1,46
 232 575 232 575 283 575 c 0,47,48
 327 575 327 575 363 567 c 128,-1,49
 399 559 399 559 425 542.5 c 128,-1,50
 451 526 451 526 465 498.5 c 128,-1,51
 479 471 479 471 479 433 c 2,52,-1
 479 115 l 2,53,54
 479 101 479 101 485.5 93 c 128,-1,55
 492 85 492 85 507.5 80.5 c 128,-1,56
 523 76 523 76 548 70 c 2,57,-1
 557 68 l 1,58,-1
 557 0 l 1,24,-1
56 138 m 0,59,60
 56 183 56 183 71.5 215.5 c 128,-1,61
 87 248 87 248 124 271.5 c 128,-1,62
 161 295 161 295 226.5 313.5 c 128,-1,63
 292 332 292 332 393 348 c 1,64,-1
 393 286 l 1,65,66
 328 275 328 275 284.5 263.5 c 128,-1,67
 241 252 241 252 214.5 239.5 c 128,-1,68
 188 227 188 227 174.5 211.5 c 128,-1,69
 161 196 161 196 156.5 178 c 128,-1,70
 152 160 152 160 152 138 c 0,71,72
 152 107 152 107 162 90 c 128,-1,73
 172 73 172 73 190.5 66 c 128,-1,74
 209 59 209 59 232 59 c 0,75,76
 258 59 258 59 284 69.5 c 128,-1,77
 310 80 310 80 336.5 105.5 c 128,-1,78
 363 131 363 131 392 175 c 1,79,-1
 394 114 l 1,80,81
 374 74 374 74 347 45.5 c 128,-1,82
 320 17 320 17 287 2.5 c 128,-1,83
 254 -12 254 -12 215 -12 c 0,84,85
 165 -12 165 -12 129 4.5 c 128,-1,86
 93 21 93 21 74.5 54.5 c 128,-1,87
 56 88 56 88 56 138 c 0,59,60
EndSplineSet
Substitution2: "'ss06' Style Set 6 lookup 66 subtable" aogonek.alt
EndChar

StartChar: acaron
Encoding: 462 462 332
Width: 580
GlyphClass: 1
Flags: W
LayerCount: 2
Fore
SplineSet
245 654 m 1,0,-1
 312 654 l 1,1,-1
 441 824 l 1,2,-1
 441 844 l 1,3,-1
 389 844 l 1,4,-1
 216 696 l 1,5,-1
 341 700 l 1,6,-1
 172 844 l 1,7,-1
 114 844 l 1,8,-1
 114 824 l 1,9,-1
 245 654 l 1,0,-1
395 347 m 1,10,-1
 395 285 l 1,11,12
 331 274 331 274 287.5 263 c 128,-1,13
 244 252 244 252 218 239 c 128,-1,14
 192 226 192 226 179 211 c 128,-1,15
 166 196 166 196 161 178 c 128,-1,16
 156 160 156 160 156 138 c 0,17,18
 156 107 156 107 166 90 c 128,-1,19
 176 73 176 73 193.5 66 c 128,-1,20
 211 59 211 59 233 59 c 0,21,22
 260 59 260 59 285.5 70 c 128,-1,23
 311 81 311 81 337.5 107.5 c 128,-1,24
 364 134 364 134 393 180 c 1,25,-1
 396 118 l 1,26,27
 375 78 375 78 348.5 48.5 c 128,-1,28
 322 19 322 19 290 3.5 c 128,-1,29
 258 -12 258 -12 220 -12 c 0,30,31
 169 -12 169 -12 133.5 4.5 c 128,-1,32
 98 21 98 21 79.5 54.5 c 128,-1,33
 61 88 61 88 61 138 c 0,34,35
 61 181 61 181 76.5 213 c 128,-1,36
 92 245 92 245 129 269 c 128,-1,37
 166 293 166 293 231 312 c 128,-1,38
 296 331 296 331 395 347 c 1,10,-1
410 0 m 1,39,-1
 387 120 l 1,40,-1
 386 128 l 1,41,-1
 386 412 l 2,42,43
 386 442 386 442 378.5 461.5 c 128,-1,44
 371 481 371 481 348.5 491 c 128,-1,45
 326 501 326 501 280 501 c 0,46,47
 218 501 218 501 176.5 487.5 c 128,-1,48
 135 474 135 474 118 462 c 1,49,50
 118 467 118 467 123.5 476 c 128,-1,51
 129 485 129 485 138 495 c 128,-1,52
 147 505 147 505 158.5 511 c 128,-1,53
 170 517 170 517 183 517 c 1,54,-1
 183 389 l 1,55,-1
 90 389 l 1,56,-1
 90 527 l 1,57,58
 104 537 104 537 129.5 548 c 128,-1,59
 155 559 155 559 194 567 c 128,-1,60
 233 575 233 575 283 575 c 0,61,62
 328 575 328 575 364 567 c 128,-1,63
 400 559 400 559 426.5 542.5 c 128,-1,64
 453 526 453 526 467.5 498.5 c 128,-1,65
 482 471 482 471 482 433 c 2,66,-1
 482 119 l 2,67,68
 482 104 482 104 488.5 95 c 128,-1,69
 495 86 495 86 509.5 80.5 c 128,-1,70
 524 75 524 75 548 70 c 2,71,-1
 557 68 l 1,72,-1
 557 0 l 1,73,-1
 410 0 l 1,39,-1
EndSplineSet
Substitution2: "'ss06' Style Set 6 lookup 66 subtable" acaron.alt
EndChar

StartChar: adblgrave
Encoding: 513 513 334
Width: 580
GlyphClass: 1
Flags: W
LayerCount: 2
Fore
SplineSet
384 805 m 2,0,-1
 414 691 l 1,1,-1
 412 661 l 1,2,-1
 375 661 l 1,3,-1
 299 746 l 2,4,5
 282 765 282 765 273 781.5 c 128,-1,6
 264 798 264 798 264 817 c 0,7,8
 264 840 264 840 278 855 c 128,-1,9
 292 870 292 870 316 870 c 0,10,11
 343 870 343 870 360.5 851.5 c 128,-1,12
 378 833 378 833 384 805 c 2,0,-1
196 805 m 2,13,-1
 225 691 l 1,14,-1
 225 661 l 1,15,-1
 187 661 l 1,16,-1
 111 746 l 2,17,18
 94 765 94 765 85 781.5 c 128,-1,19
 76 798 76 798 76 817 c 0,20,21
 76 840 76 840 90 855 c 128,-1,22
 104 870 104 870 128 870 c 0,23,24
 155 870 155 870 172 851.5 c 128,-1,25
 189 833 189 833 196 805 c 2,13,-1
395 347 m 1,26,-1
 395 285 l 1,27,28
 331 274 331 274 287.5 263 c 128,-1,29
 244 252 244 252 218 239 c 128,-1,30
 192 226 192 226 179 211 c 128,-1,31
 166 196 166 196 161 178 c 128,-1,32
 156 160 156 160 156 138 c 0,33,34
 156 107 156 107 166 90 c 128,-1,35
 176 73 176 73 193.5 66 c 128,-1,36
 211 59 211 59 233 59 c 0,37,38
 260 59 260 59 285.5 70 c 128,-1,39
 311 81 311 81 337.5 107.5 c 128,-1,40
 364 134 364 134 393 180 c 1,41,-1
 396 118 l 1,42,43
 375 78 375 78 348.5 48.5 c 128,-1,44
 322 19 322 19 290 3.5 c 128,-1,45
 258 -12 258 -12 220 -12 c 0,46,47
 169 -12 169 -12 133.5 4.5 c 128,-1,48
 98 21 98 21 79.5 54.5 c 128,-1,49
 61 88 61 88 61 138 c 0,50,51
 61 181 61 181 76.5 213 c 128,-1,52
 92 245 92 245 129 269 c 128,-1,53
 166 293 166 293 231 312 c 128,-1,54
 296 331 296 331 395 347 c 1,26,-1
410 0 m 1,55,-1
 387 120 l 1,56,-1
 386 128 l 1,57,-1
 386 412 l 2,58,59
 386 442 386 442 378.5 461.5 c 128,-1,60
 371 481 371 481 348.5 491 c 128,-1,61
 326 501 326 501 280 501 c 0,62,63
 218 501 218 501 176.5 487.5 c 128,-1,64
 135 474 135 474 118 462 c 1,65,66
 118 467 118 467 123.5 476 c 128,-1,67
 129 485 129 485 138 495 c 128,-1,68
 147 505 147 505 158.5 511 c 128,-1,69
 170 517 170 517 183 517 c 1,70,-1
 183 389 l 1,71,-1
 90 389 l 1,72,-1
 90 527 l 1,73,74
 104 537 104 537 129.5 548 c 128,-1,75
 155 559 155 559 194 567 c 128,-1,76
 233 575 233 575 283 575 c 0,77,78
 328 575 328 575 364 567 c 128,-1,79
 400 559 400 559 426.5 542.5 c 128,-1,80
 453 526 453 526 467.5 498.5 c 128,-1,81
 482 471 482 471 482 433 c 2,82,-1
 482 119 l 2,83,84
 482 104 482 104 488.5 95 c 128,-1,85
 495 86 495 86 509.5 80.5 c 128,-1,86
 524 75 524 75 548 70 c 2,87,-1
 557 68 l 1,88,-1
 557 0 l 1,89,-1
 410 0 l 1,55,-1
EndSplineSet
Substitution2: "'ss06' Style Set 6 lookup 66 subtable" adblgrave.alt
EndChar

StartChar: ainvertedbreve
Encoding: 515 515 335
Width: 580
GlyphClass: 1
Flags: W
LayerCount: 2
Fore
SplineSet
273 831 m 256,0,1
 219 831 219 831 184.5 816 c 128,-1,2
 150 801 150 801 134.5 765 c 128,-1,3
 119 729 119 729 119 666 c 1,4,-1
 193 666 l 1,5,6
 195 706 195 706 200.5 725 c 128,-1,7
 206 744 206 744 222 751 c 128,-1,8
 238 758 238 758 270 758 c 0,9,10
 303 758 303 758 319 751 c 128,-1,11
 335 744 335 744 341 725 c 128,-1,12
 347 706 347 706 348 666 c 1,13,-1
 427 666 l 1,14,15
 428 729 428 729 412 765 c 128,-1,16
 396 801 396 801 361.5 816 c 128,-1,17
 327 831 327 831 273 831 c 256,0,1
395 347 m 1,18,-1
 395 285 l 1,19,20
 331 274 331 274 287.5 263 c 128,-1,21
 244 252 244 252 218 239 c 128,-1,22
 192 226 192 226 179 211 c 128,-1,23
 166 196 166 196 161 178 c 128,-1,24
 156 160 156 160 156 138 c 0,25,26
 156 107 156 107 166 90 c 128,-1,27
 176 73 176 73 193.5 66 c 128,-1,28
 211 59 211 59 233 59 c 0,29,30
 260 59 260 59 285.5 70 c 128,-1,31
 311 81 311 81 337.5 107.5 c 128,-1,32
 364 134 364 134 393 180 c 1,33,-1
 396 118 l 1,34,35
 375 78 375 78 348.5 48.5 c 128,-1,36
 322 19 322 19 290 3.5 c 128,-1,37
 258 -12 258 -12 220 -12 c 0,38,39
 169 -12 169 -12 133.5 4.5 c 128,-1,40
 98 21 98 21 79.5 54.5 c 128,-1,41
 61 88 61 88 61 138 c 0,42,43
 61 181 61 181 76.5 213 c 128,-1,44
 92 245 92 245 129 269 c 128,-1,45
 166 293 166 293 231 312 c 128,-1,46
 296 331 296 331 395 347 c 1,18,-1
410 0 m 1,47,-1
 387 120 l 1,48,-1
 386 128 l 1,49,-1
 386 412 l 2,50,51
 386 442 386 442 378.5 461.5 c 128,-1,52
 371 481 371 481 348.5 491 c 128,-1,53
 326 501 326 501 280 501 c 0,54,55
 218 501 218 501 176.5 487.5 c 128,-1,56
 135 474 135 474 118 462 c 1,57,58
 118 467 118 467 123.5 476 c 128,-1,59
 129 485 129 485 138 495 c 128,-1,60
 147 505 147 505 158.5 511 c 128,-1,61
 170 517 170 517 183 517 c 1,62,-1
 183 389 l 1,63,-1
 90 389 l 1,64,-1
 90 527 l 1,65,66
 104 537 104 537 129.5 548 c 128,-1,67
 155 559 155 559 194 567 c 128,-1,68
 233 575 233 575 283 575 c 0,69,70
 328 575 328 575 364 567 c 128,-1,71
 400 559 400 559 426.5 542.5 c 128,-1,72
 453 526 453 526 467.5 498.5 c 128,-1,73
 482 471 482 471 482 433 c 2,74,-1
 482 119 l 2,75,76
 482 104 482 104 488.5 95 c 128,-1,77
 495 86 495 86 509.5 80.5 c 128,-1,78
 524 75 524 75 548 70 c 2,79,-1
 557 68 l 1,80,-1
 557 0 l 1,81,-1
 410 0 l 1,47,-1
EndSplineSet
Substitution2: "'ss06' Style Set 6 lookup 66 subtable" ainvertedbreve.alt
EndChar

StartChar: b
Encoding: 98 98 348
Width: 642
GlyphClass: 2
Flags: W
AnchorPoint: "Anchor-1" 349 0 basechar 0
AnchorPoint: "Anchor-0" 329 755 basechar 0
LayerCount: 2
Fore
SplineSet
362 -13 m 0,0,1
 320 -13 320 -13 285 3 c 128,-1,2
 250 19 250 19 222 50 c 128,-1,3
 194 81 194 81 171 124 c 1,4,-1
 176 181 l 1,5,6
 202 142 202 142 229.5 116 c 128,-1,7
 257 90 257 90 287.5 78 c 128,-1,8
 318 66 318 66 355 66 c 0,9,10
 389 66 389 66 415.5 79 c 128,-1,11
 442 92 442 92 460 119 c 128,-1,12
 478 146 478 146 487 187.5 c 128,-1,13
 496 229 496 229 496 285 c 256,14,15
 496 341 496 341 487.5 381 c 128,-1,16
 479 421 479 421 462.5 446.5 c 128,-1,17
 446 472 446 472 420.5 484 c 128,-1,18
 395 496 395 496 361 496 c 0,19,20
 323 496 323 496 291 484.5 c 128,-1,21
 259 473 259 473 230.5 447 c 128,-1,22
 202 421 202 421 173 380 c 1,23,-1
 171 434 l 1,24,25
 194 478 194 478 223.5 509.5 c 128,-1,26
 253 541 253 541 290 558 c 128,-1,27
 327 575 327 575 373 575 c 0,28,29
 447 575 447 575 496.5 538 c 128,-1,30
 546 501 546 501 571 436 c 128,-1,31
 596 371 596 371 596 285 c 256,32,33
 596 199 596 199 569 131.5 c 128,-1,34
 542 64 542 64 490 25.5 c 128,-1,35
 438 -13 438 -13 362 -13 c 0,0,1
95 662 m 2,36,37
 95 677 95 677 87 685 c 128,-1,38
 79 693 79 693 64.5 698 c 128,-1,39
 50 703 50 703 29 707 c 2,40,-1
 20 709 l 1,41,-1
 20 780 l 1,42,-1
 190 780 l 1,43,-1
 190 121 l 1,44,-1
 190 121 l 1,45,-1
 161 -18 l 1,46,-1
 95 -18 l 1,47,-1
 95 662 l 2,36,37
EndSplineSet
EndChar

StartChar: c
Encoding: 99 99 349
Width: 551
GlyphClass: 2
Flags: W
AnchorPoint: "Anchor-1" 304 0 basechar 0
AnchorPoint: "Anchor-0" 294 565 basechar 0
LayerCount: 2
Fore
SplineSet
308 63 m 0,0,1
 346 63 346 63 372.5 73 c 128,-1,2
 399 83 399 83 418 102.5 c 128,-1,3
 437 122 437 122 453 151 c 1,4,-1
 509 112 l 1,5,6
 492 73 492 73 462 45 c 128,-1,7
 432 17 432 17 392.5 2 c 128,-1,8
 353 -13 353 -13 307 -13 c 0,9,10
 224 -13 224 -13 166 21.5 c 128,-1,11
 108 56 108 56 77 122 c 128,-1,12
 46 188 46 188 46 282 c 0,13,14
 46 375 46 375 76.5 440.5 c 128,-1,15
 107 506 107 506 165.5 540.5 c 128,-1,16
 224 575 224 575 308 575 c 0,17,18
 358 575 358 575 395 569 c 128,-1,19
 432 563 432 563 456 555 c 128,-1,20
 480 547 480 547 490 542 c 1,21,-1
 490 368 l 1,22,-1
 391 368 l 1,23,-1
 391 511 l 1,24,25
 401 511 401 511 410.5 506 c 128,-1,26
 420 501 420 501 427.5 493.5 c 128,-1,27
 435 486 435 486 440 479.5 c 128,-1,28
 445 473 445 473 446 470 c 1,29,30
 423 481 423 481 388.5 490 c 128,-1,31
 354 499 354 499 309 499 c 0,32,33
 250 499 250 499 214 475 c 128,-1,34
 178 451 178 451 162 402.5 c 128,-1,35
 146 354 146 354 146 282 c 0,36,37
 146 224 146 224 154.5 182.5 c 128,-1,38
 163 141 163 141 182 114.5 c 128,-1,39
 201 88 201 88 232.5 75.5 c 128,-1,40
 264 63 264 63 308 63 c 0,0,1
EndSplineSet
EndChar

StartChar: ccaron
Encoding: 269 269 354
Width: 551
GlyphClass: 1
Flags: W
LayerCount: 2
Fore
SplineSet
260 654 m 1,0,-1
 327 654 l 1,1,-1
 456 824 l 1,2,-1
 456 844 l 1,3,-1
 404 844 l 1,4,-1
 232 696 l 1,5,-1
 356 700 l 1,6,-1
 188 844 l 1,7,-1
 129 844 l 1,8,-1
 129 824 l 1,9,-1
 260 654 l 1,0,-1
308 63 m 0,10,11
 346 63 346 63 372.5 73 c 128,-1,12
 399 83 399 83 418 102.5 c 128,-1,13
 437 122 437 122 453 151 c 1,14,-1
 509 112 l 1,15,16
 492 73 492 73 462 45 c 128,-1,17
 432 17 432 17 392.5 2 c 128,-1,18
 353 -13 353 -13 307 -13 c 0,19,20
 224 -13 224 -13 166 21.5 c 128,-1,21
 108 56 108 56 77 122 c 128,-1,22
 46 188 46 188 46 282 c 0,23,24
 46 375 46 375 76.5 440.5 c 128,-1,25
 107 506 107 506 165.5 540.5 c 128,-1,26
 224 575 224 575 308 575 c 0,27,28
 358 575 358 575 395 569 c 128,-1,29
 432 563 432 563 456 555 c 128,-1,30
 480 547 480 547 490 542 c 1,31,-1
 490 368 l 1,32,-1
 391 368 l 1,33,-1
 391 511 l 1,34,35
 401 511 401 511 410.5 506 c 128,-1,36
 420 501 420 501 427.5 493.5 c 128,-1,37
 435 486 435 486 440 479.5 c 128,-1,38
 445 473 445 473 446 470 c 1,39,40
 423 481 423 481 388.5 490 c 128,-1,41
 354 499 354 499 309 499 c 0,42,43
 250 499 250 499 214 475 c 128,-1,44
 178 451 178 451 162 402.5 c 128,-1,45
 146 354 146 354 146 282 c 0,46,47
 146 224 146 224 154.5 182.5 c 128,-1,48
 163 141 163 141 182 114.5 c 128,-1,49
 201 88 201 88 232.5 75.5 c 128,-1,50
 264 63 264 63 308 63 c 0,10,11
EndSplineSet
EndChar

StartChar: d
Encoding: 100 100 356
Width: 650
GlyphClass: 2
Flags: W
AnchorPoint: "Anchor-2" 616 735 basechar 0
AnchorPoint: "Anchor-1" 303 0 basechar 0
LayerCount: 2
Fore
SplineSet
547 115 m 2,0,1
 547 93 547 93 564.5 85.5 c 128,-1,2
 582 78 582 78 613 70 c 2,3,-1
 622 68 l 1,4,-1
 622 0 l 1,5,-1
 481 0 l 1,6,-1
 457 124 l 1,7,-1
 451 121 l 1,8,-1
 451 662 l 2,9,10
 451 677 451 677 443 684.5 c 128,-1,11
 435 692 435 692 418.5 697 c 128,-1,12
 402 702 402 702 378 707 c 2,13,-1
 369 709 l 1,14,-1
 369 780 l 1,15,-1
 547 780 l 1,16,-1
 547 115 l 2,0,1
279 575 m 0,17,18
 322 575 322 575 357 559 c 128,-1,19
 392 543 392 543 420 512.5 c 128,-1,20
 448 482 448 482 471 438 c 1,21,-1
 466 381 l 1,22,23
 440 421 440 421 412.5 446.5 c 128,-1,24
 385 472 385 472 354.5 484 c 128,-1,25
 324 496 324 496 287 496 c 0,26,27
 253 496 253 496 226.5 483 c 128,-1,28
 200 470 200 470 182 443 c 128,-1,29
 164 416 164 416 155 374.5 c 128,-1,30
 146 333 146 333 146 277 c 0,31,32
 146 222 146 222 154.5 181.5 c 128,-1,33
 163 141 163 141 179.5 115.5 c 128,-1,34
 196 90 196 90 221.5 78 c 128,-1,35
 247 66 247 66 281 66 c 0,36,37
 319 66 319 66 351 77.5 c 128,-1,38
 383 89 383 89 412 115.5 c 128,-1,39
 441 142 441 142 468 182 c 1,40,-1
 471 128 l 1,41,42
 448 84 448 84 418.5 52.5 c 128,-1,43
 389 21 389 21 352 4 c 128,-1,44
 315 -13 315 -13 269 -13 c 0,45,46
 196 -13 196 -13 146 24 c 128,-1,47
 96 61 96 61 71 126.5 c 128,-1,48
 46 192 46 192 46 277 c 0,49,50
 46 363 46 363 73 430 c 128,-1,51
 100 497 100 497 152 536 c 128,-1,52
 204 575 204 575 279 575 c 0,17,18
EndSplineSet
EndChar

StartChar: e
Encoding: 101 101 360
Width: 558
GlyphClass: 2
Flags: W
AnchorPoint: "Anchor-2" 441 1 basechar 0
AnchorPoint: "Anchor-1" 306 0 basechar 0
AnchorPoint: "Anchor-0" 285 565 basechar 0
LayerCount: 2
Fore
SplineSet
142 276 m 0,0,1
 142 212 142 212 155 170.5 c 128,-1,2
 168 129 168 129 191 105.5 c 128,-1,3
 214 82 214 82 244.5 72.5 c 128,-1,4
 275 63 275 63 310 63 c 0,5,6
 348 63 348 63 374.5 74 c 128,-1,7
 401 85 401 85 421 105 c 128,-1,8
 441 125 441 125 457 152 c 1,9,-1
 514 114 l 1,10,11
 496 76 496 76 465 47 c 128,-1,12
 434 18 434 18 393 2.5 c 128,-1,13
 352 -13 352 -13 304 -13 c 0,14,15
 231 -13 231 -13 172.5 19 c 128,-1,16
 114 51 114 51 80 115.5 c 128,-1,17
 46 180 46 180 46 276 c 0,18,19
 46 369 46 369 76 436 c 128,-1,20
 106 503 106 503 161 539 c 128,-1,21
 216 575 216 575 290 575 c 0,22,23
 346 575 346 575 388 555 c 128,-1,24
 430 535 430 535 457 495 c 128,-1,25
 484 455 484 455 497.5 393.5 c 128,-1,26
 511 332 511 332 512 249 c 1,27,-1
 109 249 l 1,28,-1
 109 322 l 1,29,-1
 440 322 l 1,30,-1
 417 293 l 1,31,32
 415 352 415 352 407 392 c 128,-1,33
 399 432 399 432 384 455.5 c 128,-1,34
 369 479 369 479 346 489 c 128,-1,35
 323 499 323 499 290 499 c 0,36,37
 256 499 256 499 228.5 487 c 128,-1,38
 201 475 201 475 182 448.5 c 128,-1,39
 163 422 163 422 152.5 379.5 c 128,-1,40
 142 337 142 337 142 276 c 0,0,1
EndSplineSet
EndChar

StartChar: eogonek
Encoding: 281 281 368
Width: 558
GlyphClass: 1
Flags: W
LayerCount: 2
Fore
SplineSet
383 39 m 1,0,-1
 383 0 l 1,1,2
 365 -6 365 -6 346 -9.5 c 128,-1,3
 327 -13 327 -13 306 -13 c 0,4,5
 232 -13 232 -13 173 19 c 128,-1,6
 114 51 114 51 80 115.5 c 128,-1,7
 46 180 46 180 46 276 c 0,8,9
 46 369 46 369 76 436 c 128,-1,10
 106 503 106 503 161 539 c 128,-1,11
 216 575 216 575 290 575 c 0,12,13
 347 575 347 575 388.5 555 c 128,-1,14
 430 535 430 535 457 495 c 128,-1,15
 484 455 484 455 497.5 394.5 c 128,-1,16
 511 334 511 334 512 251 c 1,17,-1
 111 251 l 1,18,-1
 111 322 l 1,19,-1
 439 322 l 1,20,-1
 417 293 l 1,21,22
 415 352 415 352 407 392 c 128,-1,23
 399 432 399 432 384 455.5 c 128,-1,24
 369 479 369 479 346 489 c 128,-1,25
 323 499 323 499 290 499 c 0,26,27
 256 499 256 499 228.5 487 c 128,-1,28
 201 475 201 475 182 448.5 c 128,-1,29
 163 422 163 422 152.5 379.5 c 128,-1,30
 142 337 142 337 142 276 c 0,31,32
 142 212 142 212 155 170.5 c 128,-1,33
 168 129 168 129 191 105.5 c 128,-1,34
 214 82 214 82 244 72.5 c 128,-1,35
 274 63 274 63 309 63 c 0,36,37
 348 63 348 63 375.5 74 c 128,-1,38
 403 85 403 85 423 105 c 128,-1,39
 443 125 443 125 458 153 c 1,40,-1
 514 114 l 1,41,42
 502 90 502 90 484.5 68.5 c 128,-1,43
 467 47 467 47 436 24 c 0,44,45
 406 0 406 0 380.5 -23.5 c 128,-1,46
 355 -47 355 -47 337 -70 c 128,-1,47
 319 -93 319 -93 309 -114 c 128,-1,48
 299 -135 299 -135 299 -152 c 256,49,50
 299 -169 299 -169 309.5 -180 c 128,-1,51
 320 -191 320 -191 340 -191 c 0,52,53
 366 -191 366 -191 385.5 -176 c 128,-1,54
 405 -161 405 -161 417 -145 c 1,55,-1
 456 -182 l 1,56,57
 432 -213 432 -213 399.5 -232.5 c 128,-1,58
 367 -252 367 -252 317 -252 c 0,59,60
 283 -252 283 -252 255.5 -242.5 c 128,-1,61
 228 -233 228 -233 212 -212.5 c 128,-1,62
 196 -192 196 -192 196 -162 c 0,63,64
 196 -138 196 -138 204.5 -118.5 c 128,-1,65
 213 -99 213 -99 233.5 -78 c 128,-1,66
 254 -57 254 -57 290.5 -29 c 128,-1,67
 327 -1 327 -1 383 39 c 1,0,-1
EndSplineSet
EndChar

